<svg id="Capa_1" enable-background="new 0 0 512 512" height="512" viewBox="0 0 512 512" width="512" xmlns="http://www.w3.org/2000/svg"><g><g><path d="m430.17 504.502h-348.34c-9.228 0-16.709-7.481-16.709-16.709v-463.587c0-9.228 7.481-16.709 16.709-16.709h348.34c9.228 0 16.709 7.481 16.709 16.709v463.587c0 9.229-7.481 16.709-16.709 16.709z" fill="#b6c4cf"/></g><g><path d="m446.881 24.202v463.596c0 9.227-7.478 16.705-16.715 16.705h-20.444c9.237 0 16.715-7.478 16.715-16.705v-463.596c0-9.227-7.478-16.705-16.715-16.705h20.444c9.237 0 16.715 7.478 16.715 16.705z" fill="#9facba"/></g><g><path d="m411.698 418.752h-311.396c-3.205 0-5.803-2.598-5.803-5.803v-370.698c0-3.205 2.598-5.803 5.803-5.803h311.395c3.205 0 5.803 2.598 5.803 5.803v370.699c0 3.204-2.598 5.802-5.802 5.802z" fill="#f9f7f8"/></g><g><path d="m417.5 42.246v370.705c0 3.199-2.599 5.798-5.798 5.798h-20.294c3.209 0 5.808-2.599 5.808-5.798v-370.705c0-3.199-2.599-5.798-5.808-5.798h20.294c3.199 0 5.798 2.599 5.798 5.798z" fill="#efedef"/></g><g><path d="m411.698 426.25h-311.396c-7.334 0-13.3-5.966-13.3-13.301v-370.698c0-7.334 5.966-13.301 13.3-13.301h311.395c7.334 0 13.3 5.966 13.3 13.301v370.699c.001 7.333-5.966 13.3-13.299 13.3zm-309.7-14.996h308.005v-367.309h-308.005z"/></g><g><circle cx="256" cy="461.627" fill="#8d9ca8" r="16.929"/></g><g><path d="m272.925 461.626c0 9.347-7.578 16.935-16.925 16.935-7.438 0-13.756-4.808-16.025-11.486.91.15 1.829.23 2.779.23 9.357 0 16.935-7.588 16.935-16.935 0-1.899-.31-3.729-.9-5.428 8.018 1.319 14.136 8.287 14.136 16.684z" fill="#7a8c98"/></g><g><path d="m383.985 291.338h-255.97c-1.962 0-3.553-1.591-3.553-3.553v-74.66c0-1.962 1.591-3.553 3.553-3.553h255.97c1.962 0 3.553 1.591 3.553 3.553v74.66c0 1.962-1.591 3.553-3.553 3.553z" fill="#e5e1e5"/></g><g><path d="m387.539 213.123v74.657c0 1.969-1.59 3.559-3.559 3.559h-19.994c1.969 0 3.559-1.59 3.559-3.559v-74.657c0-1.959-1.59-3.549-3.559-3.549h19.994c1.97 0 3.559 1.59 3.559 3.549z" fill="#d7d0d6"/></g><g><path d="m383.985 376.332h-255.97c-1.962 0-3.553-1.591-3.553-3.553v-46.983c0-1.962 1.591-3.553 3.553-3.553h255.97c1.962 0 3.553 1.591 3.553 3.553v46.983c0 1.963-1.591 3.553-3.553 3.553z" fill="#fedba6"/></g><g><path d="m387.539 325.798v46.985c0 1.959-1.59 3.549-3.559 3.549h-19.994c1.969 0 3.559-1.59 3.559-3.549v-46.985c0-1.969-1.59-3.559-3.559-3.559h19.994c1.97 0 3.559 1.59 3.559 3.559z" fill="#fece85"/></g><g><path d="m430.17 0h-348.34c-13.348 0-24.207 10.859-24.207 24.206v463.587c0 13.348 10.859 24.207 24.207 24.207h262.266c4.141 0 7.498-3.357 7.498-7.498s-3.357-7.498-7.498-7.498h-262.266c-5.079 0-9.211-4.132-9.211-9.211v-463.587c0-5.079 4.133-9.211 9.211-9.211h348.34c5.079 0 9.211 4.132 9.211 9.211v463.587c0 5.079-4.133 9.211-9.211 9.211h-50.66c-4.141 0-7.498 3.357-7.498 7.498s3.357 7.498 7.498 7.498h50.66c13.348 0 24.207-10.859 24.207-24.206v-463.588c0-13.347-10.859-24.206-24.207-24.206z"/><path d="m231.574 461.627c0 13.469 10.958 24.426 24.426 24.426 13.469 0 24.426-10.958 24.426-24.426 0-13.469-10.958-24.427-24.426-24.427-13.468.001-24.426 10.958-24.426 24.427zm33.857 0c0 5.2-4.231 9.431-9.431 9.431s-9.431-4.23-9.431-9.431c0-5.2 4.231-9.431 9.431-9.431s9.431 4.231 9.431 9.431z"/><path d="m116.964 287.785c0 6.093 4.957 11.051 11.051 11.051h255.969c6.094 0 11.051-4.958 11.051-11.051v-74.661c0-6.093-4.957-11.051-11.051-11.051h-199.518c-4.141 0-7.498 3.357-7.498 7.498s3.357 7.498 7.498 7.498h195.574v66.771h-248.081v-66.771h17.501c4.141 0 7.498-3.357 7.498-7.498s-3.357-7.498-7.498-7.498h-21.445c-6.094 0-11.051 4.957-11.051 11.051z"/><path d="m395.036 372.779v-46.983c0-6.093-4.957-11.051-11.051-11.051h-255.97c-6.094 0-11.051 4.958-11.051 11.051v46.983c0 6.094 4.957 11.051 11.051 11.051h255.969c6.094 0 11.052-4.957 11.052-11.051zm-14.996-3.944h-248.081v-39.095h248.081z"/><circle cx="189.127" cy="349.288" r="7.498"/><circle cx="222.564" cy="349.288" r="7.498"/><circle cx="256" cy="349.288" r="7.498"/><circle cx="289.436" cy="349.288" r="7.498"/><circle cx="322.873" cy="349.288" r="7.498"/><path d="m387.538 86.365c4.141 0 7.498-3.357 7.498-7.498s-3.357-7.498-7.498-7.498h-34.258c-4.141 0-7.498 3.357-7.498 7.498s3.357 7.498 7.498 7.498z"/><path d="m318.915 71.37h-146.974c-4.141 0-7.498 3.357-7.498 7.498s3.357 7.498 7.498 7.498h146.973c4.141 0 7.498-3.357 7.498-7.498s-3.357-7.498-7.497-7.498z"/><path d="m223.704 111.543c0 4.141 3.357 7.498 7.498 7.498h156.337c4.141 0 7.498-3.357 7.498-7.498s-3.357-7.498-7.498-7.498h-156.337c-4.141.001-7.498 3.358-7.498 7.498z"/><path d="m116.964 111.543c0 4.141 3.357 7.498 7.498 7.498h71.875c4.141 0 7.498-3.357 7.498-7.498s-3.357-7.498-7.498-7.498h-71.875c-4.141.001-7.498 3.358-7.498 7.498z"/><path d="m387.538 136.722h-96.712c-4.141 0-7.498 3.357-7.498 7.498s3.357 7.498 7.498 7.498h96.712c4.141 0 7.498-3.357 7.498-7.498s-3.357-7.498-7.498-7.498z"/><path d="m124.462 151.717h131.538c4.141 0 7.498-3.357 7.498-7.498s-3.357-7.498-7.498-7.498h-131.538c-4.141 0-7.498 3.357-7.498 7.498s3.357 7.498 7.498 7.498z"/><path d="m124.462 184.393h174.338c4.141 0 7.498-3.357 7.498-7.498s-3.357-7.498-7.498-7.498h-174.338c-4.141 0-7.498 3.357-7.498 7.498s3.357 7.498 7.498 7.498z"/></g></g></svg>