<svg id="Capa_1" enable-background="new 0 0 512 512" height="512" viewBox="0 0 512 512" width="512" xmlns="http://www.w3.org/2000/svg"><g><g><path d="m139.359 56.592c-1.072 1.011-1.547 2.5-1.259 3.945 1.786 8.963 10.491 41.588 43.997 52.658 39.247 12.086 68.026-19.081 68.026-19.081s-5.404-42.076-44.397-54.959c-33.724-10.386-59.719 11.166-66.367 17.437z" fill="#b0e7c9"/></g><g><path d="m250.125 94.113s-2.733 2.963-7.661 6.703c-4.828-13.486-16.03-33.676-40.978-41.916-27.153-8.359-49.297 3.98-60.36 12.379-1.666-4.619-2.574-8.459-3.022-10.743-.289-1.446.179-2.933 1.257-3.95 6.643-6.264 32.639-27.821 66.365-17.437 38.992 12.889 44.399 54.964 44.399 54.964z" fill="#91deb6"/></g><g><path d="m245.281 108.173s-8.178-35.769-7.619-70.093c.165-10.152 8.377-18.325 18.531-18.325 10.825 0 19.342 9.234 18.469 20.023-1.744 21.55-3.942 54.59-2.361 68.394h-27.02z" fill="#e8ad8c"/></g><g><path d="m274.664 39.779c-1.746 21.546-3.94 54.594-2.364 68.39h-15.551c-1.576-13.796.619-46.843 2.364-68.39.04-.509.06-1.007.06-1.516 0-7.391-4.379-13.845-10.753-16.788 2.364-1.107 4.988-1.716 7.771-1.716 10.314 0 18.534 8.379 18.534 18.504-.002.508-.022 1.007-.061 1.516z" fill="#e19974"/></g><g><path d="m369.248 123.289c-21.198-40.482-84.979-54.09-113.069-12.935-28.089-41.155-91.871-27.547-113.069 12.935-22.769 43.483-3.818 92.931 21.832 130.574 14.31 21.001 39.868 46.059 67.983 40.354 9.11-1.849 17.493-7.041 23.254-14.33 5.761 7.29 14.144 12.482 23.254 14.33 28.115 5.705 53.673-19.353 67.983-40.354 25.65-37.643 44.601-87.092 21.832-130.574z" fill="#fe99a0"/></g><g><path d="m347.412 253.865c-14.304 20.998-39.861 46.055-67.981 40.35-.718-.15-1.426-.309-2.125-.509 20.409-5.057 38.125-23.661 49.158-39.841 25.646-37.646 44.599-87.093 21.835-130.575-10.584-20.21-31.781-33.726-53.856-37.068 28.509-4.559 60.868 10.444 74.804 37.068 22.774 43.482 3.821 92.929-21.835 130.575z" fill="#fd8087"/></g><g><g><path d="m490.789 492.244h-469.641c-7.565-.018-13.684-6.165-13.666-13.73v-63.215c.018-7.565 6.312-12.591 13.877-12.574h469.641c7.565.018 13.537 6.165 13.519 13.73v63.215c-.018 7.565-6.165 12.591-13.73 12.574z" fill="#e8ad8c"/></g></g><g><g><path d="m504.521 416.46v63.212c-.02 7.561-6.165 12.589-13.736 12.569h-19.901c7.541 0 13.666-5.018 13.686-12.569v-63.212c.02-7.571-5.955-13.716-13.516-13.736h19.95c7.562.02 13.537 6.165 13.517 13.736z" fill="#e19974"/></g></g><g><g><path d="m453.839 402.553h-395.53c-7.565-.018-13.684-7.085-13.666-14.65l.147-95.589c.018-7.565 6.165-12.764 13.73-12.746h395.53c7.565.018 13.684 6.165 13.666 13.73l-.147 95.589c-.018 7.565-6.165 13.684-13.73 13.666z" fill="#91deb6"/></g></g><g><g><path d="m467.573 293.297v95.592c-.02 7.561-6.165 13.686-13.736 13.666h-19.91c7.551 0 13.676-6.115 13.696-13.666l.14-95.592c.02-7.561-6.095-13.716-13.666-13.726h19.95c7.571.01 13.536 6.165 13.526 13.726z" fill="#6ed5a1"/></g></g><g><path d="m98.506 279.568h315.347v122.974h-315.347z" fill="#ceefdd"/></g><g><path d="m393.906 279.571h19.95v122.973h-19.95z" fill="#b9eacf"/></g><g><g><path d="m59.377 402.726h65.496v89.518h-65.496z" fill="#dc8758"/></g><g><path d="m358.634 402.726h94.347v89.518h-94.347z" fill="#dc8758"/></g></g><g><g><path d="m104.927 402.724h19.95v89.517h-19.95z" fill="#d77f4a"/></g><g><path d="m433.029 402.724h19.95v89.517h-19.95z" fill="#d77f4a"/></g></g><g><path d="m491 395.244h-16.934c.639-2.027.98-4.158.985-6.345l.147-95.583c.013-5.657-2.177-10.981-6.168-14.99s-9.305-6.225-14.979-6.238h-111.398c5.003-5.649 8.745-10.783 10.946-14.011 15.222-22.339 25.378-44.429 30.187-65.657 6.033-26.63 3.371-51.056-7.91-72.6-1.917-3.66-6.435-5.075-10.099-3.157-3.66 1.917-5.073 6.438-3.157 10.098 9.588 18.308 11.799 39.287 6.573 62.354-4.392 19.389-13.8 39.757-27.96 60.538-6.626 9.724-13.143 17.002-19.321 22.437h-131.465c-6.179-5.436-12.697-12.712-19.323-22.437-14.16-20.781-23.566-41.148-27.959-60.538-5.226-23.067-3.014-44.046 6.572-62.354 10.039-19.171 31.332-32.423 54.244-33.759 11.244-.657 32.166 1.275 46.019 21.571 1.394 2.042 3.707 3.264 6.179 3.264 2.473 0 4.785-1.221 6.179-3.264 18.534-27.157 55.051-26.531 79.645-10.234 3.446 2.281 8.088 1.34 10.369-2.104 2.282-3.445 1.34-8.087-2.104-10.369-20.503-13.584-47.825-18.157-70.778-9.286.403-11.347 1.284-25.587 2.628-42.195.583-7.219-1.897-14.411-6.805-19.733-4.909-5.322-11.878-8.375-19.12-8.375-14.112 0-25.781 11.521-26.012 25.684-.033 2.036-.036 4.075-.014 6.109-5.995-4.877-13.265-9.1-22.095-12.017-.048-.016-.096-.031-.145-.046-37.36-11.505-65.858 11.746-73.703 19.145-2.965 2.796-4.259 6.852-3.463 10.85 1.382 6.934 6.075 24.553 19.591 39.328-5.572 5.439-10.293 11.659-13.871 18.492-11.281 21.544-13.943 45.97-7.91 72.6 4.809 21.228 14.965 43.318 30.187 65.657 2.2 3.229 5.94 8.363 10.942 14.011h-111.163c-.019 0-.037 0-.056 0-5.562 0-10.771 1.937-14.67 5.458-4.18 3.773-6.489 9.012-6.502 14.758l-.147 95.583c-.006 2.492.455 4.984 1.289 7.358h-17.075c-.019 0-.038 0-.057 0-5.538 0-10.739 1.877-14.648 5.288-4.288 3.742-6.657 8.98-6.671 14.768v63.197c-.013 5.657 2.178 10.981 6.169 14.99 3.991 4.01 9.304 6.225 14.979 6.238h128.962c4.132 0 7.481-3.35 7.481-7.481s-3.35-7.481-7.481-7.481h-17.756v-74.555h218.799v74.555h-166.162c-4.132 0-7.481 3.349-7.481 7.481s3.35 7.481 7.481 7.481h305.78.059c12.045 0 21.143-8.605 21.169-20.055v-63.197c.028-11.682-9.385-21.205-20.999-21.232zm-245.858-357.041c.098-6.046 5.056-10.965 11.051-10.965 3.122 0 6.007 1.263 8.121 3.557 2.116 2.293 3.142 5.27 2.89 8.381-1.329 16.428-2.675 36.365-2.892 51.845-2.861 2.167-5.592 4.606-8.144 7.361-1.969-2.115-4.076-4.057-6.282-5.862-2.259-13.277-5.072-34.145-4.744-54.317zm-99.328 22.622c7.816-6.943 29.818-23.073 57.638-14.543 13.238 4.393 22.094 12.587 27.984 21.025.51 5.453 1.131 10.646 1.786 15.409-9.168-3.646-19.357-5.28-30.112-4.654-14.804.863-29.077 5.84-41.086 13.833-10.458-11.024-14.673-24.406-16.21-31.07zm-93.919 423.937h-30.73c-1.66-.004-3.22-.654-4.392-1.831-1.171-1.177-1.814-2.74-1.81-4.418v-63.197c.003-1.458.509-2.606 1.545-3.511 1.166-1.017 2.918-1.599 4.828-1.599h.022 30.537zm2.267-91.742c-1.299-1.427-2.043-3.285-2.038-5.105l.147-95.584c.008-3.651 3.122-5.282 6.228-5.282h.021 32.505v108.022h-32.699c-2.001-.004-3.467-1.286-4.164-2.051zm63.23 91.742h-50.534v-74.555h50.534zm-11.405-89.701v-108.011h300.384v108.011zm339.513 89.701h-79.384v-74.555h79.384zm14.587-95.892c-.004 1.66-.655 3.22-1.831 4.391-1.174 1.168-2.731 1.811-4.386 1.811-.011 0-.022 0-.032 0h-32.505v-108.022h32.699c1.661.004 3.22.654 4.391 1.831 1.172 1.177 1.815 2.739 1.811 4.406zm36.95 90.783c-.008 3.532-3.121 5.11-6.227 5.11-.007 0-.015 0-.021 0h-30.327v-74.555h30.52c1.631.004 3.149.64 4.279 1.791 1.149 1.172 1.781 2.75 1.777 4.458v63.196z"/><path d="m366.738 340.144 17.77-16.335c3.042-2.796 3.242-7.529.445-10.571-2.796-3.042-7.529-3.242-10.57-.445l-12.57 11.554v-6.636c0-4.132-3.349-7.481-7.481-7.481s-7.481 3.35-7.481 7.481v46.688c0 4.132 3.349 7.481 7.481 7.481s7.481-3.35 7.481-7.481v-8.216l14.097 13.6c1.451 1.401 3.324 2.097 5.193 2.097 1.96 0 3.917-.765 5.385-2.287 2.869-2.973 2.784-7.71-.19-10.579z"/><path d="m160.836 337.137c1.405-2.583 2.204-5.541 2.204-8.682 0-10.049-8.175-18.224-18.224-18.224h-13.562c-4.132 0-7.481 3.35-7.481 7.481v46.688c0 1.99.793 3.898 2.203 5.302 1.402 1.396 3.3 2.18 5.278 2.18h.033c.001 0 12.462-.055 15.897-.055 11.055 0 20.048-8.994 20.048-20.048.001-5.781-2.471-10.981-6.396-14.642zm-22.1-11.944h6.081c1.798 0 3.261 1.463 3.261 3.261 0 1.799-1.463 3.262-3.261 3.262-1.003 0-2.897.006-4.958.013h-1.123zm8.449 31.669c-1.592 0-5.116.012-8.449.024v-10.191c.381-.001.761-.003 1.135-.004h7.314c2.804 0 5.085 2.281 5.085 5.085 0 2.805-2.281 5.086-5.085 5.086z"/><path d="m293.552 310.23c-16.998 0-30.826 13.828-30.826 30.825s13.828 30.825 30.826 30.825c16.997 0 30.825-13.828 30.825-30.825s-13.828-30.825-30.825-30.825zm0 46.688c-8.747 0-15.863-7.116-15.863-15.862s7.116-15.862 15.863-15.862c8.746 0 15.862 7.116 15.862 15.862 0 8.745-7.116 15.862-15.862 15.862z"/><path d="m214.331 310.23c-16.997 0-30.825 13.828-30.825 30.825s13.828 30.825 30.825 30.825 30.825-13.828 30.825-30.825-13.828-30.825-30.825-30.825zm0 46.688c-8.746 0-15.862-7.116-15.862-15.862s7.116-15.862 15.862-15.862 15.862 7.116 15.862 15.862c0 8.745-7.116 15.862-15.862 15.862z"/></g></g></svg>