<svg id="Capa_1" enable-background="new 0 0 512.462 512.462" height="512" viewBox="0 0 512.462 512.462" width="512" xmlns="http://www.w3.org/2000/svg"><g><g><path d="m159.69 141.848v66.596c0 48.215 39.086 87.302 87.302 87.302 48.215 0 87.302-39.086 87.302-87.302v-66.596l-87.302-26.366z" fill="#fed2a4"/></g><g><path d="m334.294 141.844v66.599c0 24.114-9.769 45.934-25.573 61.729-15.795 15.805-37.616 25.574-61.729 25.574-3.351 0-6.653-.186-9.906-.568 20.145-2.263 38.204-11.395 51.813-25.005 15.795-15.795 25.564-37.616 25.564-61.729v-72.586z" fill="#ffbd86"/></g><g><path d="m341.679 210.394h-7.385v-39.44h7.385c10.891 0 19.72 8.829 19.72 19.72 0 10.891-8.829 19.72-19.72 19.72z" fill="#fed2a4"/></g><g><path d="m152.305 210.394h7.385v-39.44h-7.385c-10.891 0-19.72 8.829-19.72 19.72 0 10.891 8.829 19.72 19.72 19.72z" fill="#fed2a4"/></g><g><g><path d="m246.991 74.722h-87.301v76.014l87.301-15.585 87.3 15.585v-76.014z" fill="#8d9ca8"/></g><g><path d="m334.294 74.72v76.017l-19.827-3.54v-72.477z" fill="#7a8c98"/></g></g><g><path d="m402.369 48.634-145.455-39.802c-6.496-1.777-13.349-1.777-19.845 0l-145.454 39.802c-3.647.998-3.652 6.169-.006 7.173l145.395 40.068c6.537 1.801 13.439 1.801 19.976 0l145.395-40.068c3.646-1.005 3.641-6.175-.006-7.173z" fill="#596c76"/></g><g><path d="m402.372 55.806-145.396 40.065c-6.535 1.803-13.433 1.803-19.969 0l-13.179-3.635 132.218-36.43c3.645-.999 3.635-6.173-.01-7.172l-132.208-36.176 13.238-3.625c6.496-1.773 13.355-1.773 19.851 0l145.456 39.801c3.644.999 3.644 6.172-.001 7.172z" fill="#465a61"/></g><g><circle cx="405.107" cy="176.193" fill="#8d9ca8" r="18.478"/></g><g><path d="m423.586 176.197c0 10.2-8.27 18.47-18.48 18.47-6.957 0-13.022-3.851-16.167-9.534.666.078 1.352.118 2.038.118 10.2 0 18.48-8.27 18.48-18.48 0-3.233-.833-6.29-2.312-8.936 9.249 1.009 16.441 8.838 16.441 18.362z" fill="#7a8c98"/></g><g><path d="m362.133 465.977h-230.282c-9.307 0-16.852-7.545-16.852-16.852v-150.992c0-11.953 9.689-21.642 21.642-21.642h220.703c11.953 0 21.642 9.689 21.642 21.642v150.991c-.001 9.308-7.546 16.853-16.853 16.853z" fill="#c5d3dd"/></g><g><path d="m378.981 298.13v150.99c0 9.31-7.54 16.86-16.85 16.86h-20.7c9.31 0 16.85-7.55 16.85-16.86v-150.99c0-11.95-9.68-21.64-21.64-21.64h20.7c11.95 0 21.64 9.69 21.64 21.64z" fill="#b6c4cf"/></g><g><path d="m383.775 504.962h-273.566c-8.787 0-15.91-7.123-15.91-15.91v-17.574c0-3.038 2.463-5.501 5.501-5.501h294.384c3.038 0 5.501 2.463 5.501 5.501v17.574c0 8.787-7.123 15.91-15.91 15.91z" fill="#8d9ca8"/></g><g><path d="m399.681 471.48v17.57c0 8.79-7.12 15.91-15.91 15.91h-20.7c8.79 0 15.91-7.12 15.91-15.91v-17.57c0-3.04-2.46-5.5-5.5-5.5h20.7c3.04 0 5.5 2.46 5.5 5.5z" fill="#7a8c98"/></g><g><circle cx="246.992" cy="371.234" fill="#f9f7f8" r="26.533"/></g><g><path d="m273.521 371.23c0 14.66-11.88 26.54-26.53 26.54-10.57 0-19.7-6.19-23.96-15.14 2.3.66 4.72 1.01 7.23 1.01 14.66 0 26.54-11.88 26.54-26.53 0-4.08-.92-7.95-2.58-11.4 11.14 3.14 19.3 13.38 19.3 25.52z" fill="#efedef"/></g><g><path d="m212.113 174.965c-4.143 0-7.5 3.358-7.5 7.5v16.418c0 4.142 3.357 7.5 7.5 7.5s7.5-3.358 7.5-7.5v-16.418c0-4.142-3.357-7.5-7.5-7.5z"/><path d="m281.871 206.383c4.143 0 7.5-3.358 7.5-7.5v-16.418c0-4.142-3.357-7.5-7.5-7.5s-7.5 3.358-7.5 7.5v16.418c0 4.142 3.358 7.5 7.5 7.5z"/><path d="m236.883 229.428c-1.946-3.656-6.487-5.043-10.146-3.095-3.655 1.947-5.041 6.489-3.095 10.145 4.614 8.666 13.576 14.049 23.388 14.049 9.717 0 18.638-5.308 23.28-13.852 1.978-3.639.631-8.193-3.009-10.17-3.641-1.978-8.193-.631-10.171 3.009-2.016 3.709-5.886 6.013-10.101 6.013-4.255 0-8.143-2.337-10.146-6.099z"/><path d="m379.129 176.193c0 14.324 11.653 25.978 25.978 25.978s25.979-11.653 25.979-25.978c0-11.717-7.8-21.643-18.479-24.87v-100.262c0-1.694-.568-3.252-1.516-4.508-1.433-2.468-3.795-4.347-6.742-5.153l-145.455-39.802c-7.786-2.13-16.018-2.131-23.804 0l-145.453 39.801c-4.936 1.35-8.255 5.695-8.26 10.812s3.307 9.468 8.239 10.827l62.574 17.244v83.175c-14.957.063-27.105 12.247-27.105 27.217 0 15.009 12.211 27.22 27.221 27.22h.369c1.923 19.314 9.658 36.941 21.439 51.097h-37.473c-16.068 0-29.142 13.073-29.142 29.142v21.987c0 4.142 3.357 7.5 7.5 7.5s7.5-3.358 7.5-7.5v-21.987c0-7.798 6.344-14.142 14.142-14.142h220.702c7.798 0 14.143 6.344 14.143 14.142v150.991c0 5.157-4.195 9.352-9.352 9.352h-230.283c-5.156 0-9.352-4.195-9.352-9.352v-94.177c0-4.142-3.357-7.5-7.5-7.5s-7.5 3.358-7.5 7.5v94.177c0 3.312.667 6.471 1.87 9.352h-9.569c-7.169 0-13.001 5.832-13.001 13.001v17.574c0 12.908 10.502 23.41 23.41 23.41h210.613c4.143 0 7.5-3.358 7.5-7.5s-3.357-7.5-7.5-7.5h-210.613c-4.638 0-8.41-3.773-8.41-8.41v-15.575h290.386v15.575c0 4.637-3.772 8.41-8.41 8.41h-28.372c-4.143 0-7.5 3.358-7.5 7.5s3.357 7.5 7.5 7.5h28.372c12.908 0 23.41-10.502 23.41-23.41v-17.574c0-7.169-5.832-13.001-13.001-13.001h-9.568c1.203-2.881 1.87-6.04 1.87-9.352v-150.991c0-16.069-13.073-29.142-29.143-29.142h-37.474c11.782-14.155 19.518-31.782 21.441-51.097h.369c15.009 0 27.22-12.211 27.22-27.22 0-14.971-12.149-27.155-27.105-27.217l-.002-83.175 55.815-15.382v86.423c-10.679 3.227-18.478 13.153-18.478 24.87zm-226.939 26.701c-6.686-.062-12.105-5.52-12.105-12.22s5.42-12.158 12.105-12.22zm189.604-24.439c6.685.063 12.104 5.52 12.104 12.22s-5.42 12.157-12.104 12.22zm-15 29.989c0 24.202-10.841 45.905-27.911 60.547h-103.777c-17.069-14.646-27.915-36.345-27.915-60.547v-51.429l79.8-14.245 79.804 14.246v51.428zm-159.604-66.666v-57.362l67.821 18.69c3.919 1.08 7.949 1.62 11.98 1.62s8.062-.54 11.98-1.62l67.818-18.69v57.362l-78.482-14.01c-.437-.078-.877-.117-1.318-.117s-.882.039-1.318.117zm87.798-53.133c-5.232 1.441-10.762 1.441-15.992 0l-132.123-36.411 132.176-36.168c5.196-1.422 10.689-1.421 15.886 0l100.479 27.495h-105.801c-4.143 0-7.5 3.358-7.5 7.5s3.357 7.5 7.5 7.5h114.54zm150.118 76.57c6.054 0 10.979 4.925 10.979 10.978s-4.925 10.978-10.979 10.978c-6.053 0-10.978-4.924-10.978-10.978s4.926-10.978 10.978-10.978z"/><path d="m281.025 371.234c0-18.766-15.268-34.033-34.033-34.033s-34.033 15.267-34.033 34.033 15.268 34.033 34.033 34.033 34.033-15.267 34.033-34.033zm-53.066 0c0-10.495 8.538-19.033 19.033-19.033s19.033 8.538 19.033 19.033-8.538 19.033-19.033 19.033-19.033-8.538-19.033-19.033z"/></g></g></svg>