<svg id="Capa_1" enable-background="new 0 0 512 512" height="512" viewBox="0 0 512 512" width="512" xmlns="http://www.w3.org/2000/svg"><g><g><g><path d="m374.118 504.501h-236.236c-2.008 0-3.636-1.628-3.636-3.636v-18.906c0-8.412 6.819-15.232 15.232-15.232h213.045c8.412 0 15.232 6.819 15.232 15.232v18.906c-.001 2.008-1.629 3.636-3.637 3.636z" fill="#c5d3dd"/></g><g><path d="m377.752 481.954v18.912c0 2.008-1.628 3.636-3.636 3.636h-16.363v-22.549c0-8.409-6.82-15.229-15.229-15.229h19.999c8.411.001 15.229 6.82 15.229 15.23z" fill="#b6c4cf"/></g><g><path d="m193.054 397.713h125.892v69.014h-125.892z" fill="#8d9ca8"/></g><g><path d="m298.947 397.713h19.999v69.014h-19.999z" fill="#7a8c98"/></g><g><path d="m482.275 397.713h-452.55c-12.161 0-22.019-9.858-22.019-22.019v-305.76c0-12.161 9.858-22.019 22.019-22.019h452.551c12.161 0 22.019 9.858 22.019 22.019v305.76c0 12.16-9.859 22.019-22.02 22.019z" fill="#596c76"/></g><g><path d="m504.294 69.931v305.76c0 12.159-9.859 22.019-22.019 22.019h-21.319c12.159 0 22.019-9.859 22.019-22.019v-305.76c0-12.159-9.859-22.019-22.019-22.019h21.319c12.16 0 22.019 9.86 22.019 22.019z" fill="#465a61"/></g><g><path d="m482.275 397.713h-452.55c-12.161 0-22.019-9.858-22.019-22.019v-27.068h496.589v27.068c0 12.16-9.859 22.019-22.02 22.019z" fill="#c5d3dd"/></g><g><path d="m504.294 348.623v27.068c0 12.159-9.859 22.019-22.019 22.019h-21.319c12.159 0 22.019-9.859 22.019-22.019v-27.068z" fill="#b6c4cf"/></g><g><path d="m469.876 348.626h-427.752v-262.193c0-3.652 2.961-6.613 6.613-6.613h414.526c3.652 0 6.613 2.961 6.613 6.613z" fill="#f2fbff"/></g><g><path d="m469.876 86.43v262.193h-19.999v-262.193c0-3.65-2.96-6.609-6.61-6.609h19.999c3.65-.001 6.61 2.959 6.61 6.609z" fill="#dff6fd"/></g></g><g><g><path d="m438.458 59.02h-364.916v-45.944c0-3.08 2.497-5.577 5.577-5.577h353.763c3.08 0 5.577 2.497 5.577 5.577v45.944z" fill="#c8effe"/></g><g><path d="m438.458 13.074v45.947h-19.998v-45.947c0-3.08-2.5-5.57-5.58-5.57h19.999c3.079 0 5.579 2.49 5.579 5.57z" fill="#99e6fc"/></g><g><path d="m73.542 59.02h364.917v289.602h-364.917z" fill="#f9f7f8"/></g><g><path d="m418.46 59.021h19.999v289.602h-19.999z" fill="#efedef"/></g><g><path d="m385.664 148.856h-259.328c-2.086 0-3.777-1.691-3.777-3.777v-37.455c0-2.086 1.691-3.777 3.777-3.777h259.328c2.086 0 3.777 1.691 3.777 3.777v37.455c0 2.086-1.691 3.777-3.777 3.777z" fill="#e5e1e5"/></g><g><path d="m389.441 107.628v37.448c0 2.09-1.69 3.78-3.78 3.78h-19.999c2.09 0 3.78-1.69 3.78-3.78v-37.448c0-2.09-1.69-3.78-3.78-3.78h19.999c2.091 0 3.78 1.69 3.78 3.78z" fill="#d7d0d6"/></g><g><path d="m482.275 40.415h-36.318v-27.339c0-7.21-5.866-13.076-13.076-13.076h-53.745c-4.142 0-7.5 3.358-7.5 7.5s3.358 7.5 7.5 7.5h51.822v36.522h-349.917v-36.523h263.393c4.142 0 7.5-3.358 7.5-7.5s-3.358-7.5-7.5-7.5h-265.315c-7.21 0-13.076 5.866-13.076 13.076v27.339h-36.318c-16.277 0-29.519 13.242-29.519 29.519v305.76c0 16.277 13.242 29.519 29.519 29.519h155.829v54.015h-36.077c-12.534 0-22.731 10.197-22.731 22.731v18.906c0 6.14 4.996 11.135 11.136 11.135h29.378c4.142 0 7.5-3.358 7.5-7.5s-3.358-7.5-7.5-7.5h-25.515v-15.043c0-4.263 3.469-7.732 7.732-7.732h213.045c4.264 0 7.732 3.469 7.732 7.732v15.043h-167.948c-4.142 0-7.5 3.358-7.5 7.5s3.358 7.5 7.5 7.5h171.812c6.14 0 11.136-4.995 11.136-11.135v-18.906c0-12.534-10.197-22.731-22.731-22.731h-36.077v-54.015h155.829c16.277 0 29.519-13.242 29.519-29.519v-305.759c0-16.277-13.242-29.519-29.519-29.519zm-36.317 46.905h16.419v253.806h-16.419zm-364.917-20.8h349.917v274.603h-349.917zm-65.836 3.414c0-8.006 6.514-14.52 14.52-14.52h36.318v3.607 13.3h-17.306c-7.782 0-14.113 6.331-14.113 14.112v254.693h-19.419zm50.837 17.386v253.806h-16.419v-253.806zm245.405 371.907h-110.894v-54.015h110.893v54.015zm185.348-83.534c0 8.006-6.514 14.52-14.52 14.52h-452.55c-8.006 0-14.52-6.513-14.52-14.52v-19.568h481.59zm0-34.567h-19.419v-254.693c0-7.782-6.331-14.112-14.113-14.112h-17.306v-13.3-3.607h36.318c8.006 0 14.52 6.513 14.52 14.52z"/><path d="m385.664 96.348h-259.328c-6.218 0-11.276 5.058-11.276 11.276v37.455c0 6.218 5.058 11.277 11.276 11.277h259.328c6.218 0 11.276-5.059 11.276-11.277v-37.455c0-6.218-5.058-11.276-11.276-11.276zm-3.723 45.008h-251.882v-30.009h251.882z"/><path d="m389.441 184.186h-47.516c-4.142 0-7.5 3.358-7.5 7.5s3.358 7.5 7.5 7.5h47.516c4.142 0 7.5-3.358 7.5-7.5s-3.358-7.5-7.5-7.5z"/><path d="m122.559 199.185h184.6c4.142 0 7.5-3.358 7.5-7.5s-3.358-7.5-7.5-7.5h-184.6c-4.142 0-7.5 3.358-7.5 7.5s3.358 7.5 7.5 7.5z"/><path d="m389.441 221.556h-266.882c-4.142 0-7.5 3.358-7.5 7.5s3.358 7.5 7.5 7.5h266.881c4.142 0 7.5-3.358 7.5-7.5s-3.357-7.5-7.499-7.5z"/><path d="m389.441 258.926h-153.78c-4.142 0-7.5 3.358-7.5 7.5s3.358 7.5 7.5 7.5h153.78c4.142 0 7.5-3.358 7.5-7.5s-3.358-7.5-7.5-7.5z"/><path d="m122.559 273.925h78.32c4.142 0 7.5-3.358 7.5-7.5s-3.358-7.5-7.5-7.5h-78.32c-4.142 0-7.5 3.358-7.5 7.5s3.358 7.5 7.5 7.5z"/><path d="m389.441 296.297h-102.316c-4.142 0-7.5 3.358-7.5 7.5s3.358 7.5 7.5 7.5h102.315c4.142 0 7.5-3.358 7.5-7.5s-3.357-7.5-7.499-7.5z"/><path d="m252.306 296.297h-129.747c-4.142 0-7.5 3.358-7.5 7.5s3.358 7.5 7.5 7.5h129.747c4.142 0 7.5-3.358 7.5-7.5s-3.358-7.5-7.5-7.5z"/></g></g></g></svg>