<svg id="Capa_1" enable-background="new 0 0 512 512" height="512" viewBox="0 0 512 512" width="512" xmlns="http://www.w3.org/2000/svg"><g><g><path d="m289.348 257.078h50.208v116.492h-50.208z" fill="#c5d3dd" transform="matrix(.707 -.707 .707 .707 -130.867 314.707)"/></g><g><path d="m315.618 246.197h19.43v116.492h-19.43z" fill="#b6c4cf" transform="matrix(.707 -.707 .707 .707 -119.985 319.214)"/></g><g><path d="m492.429 491.373c-16.171 16.171-42.39 16.171-58.561 0l-109.424-109.423c-3.846-3.846-3.846-10.082 0-13.928l44.633-44.633c3.846-3.846 10.082-3.846 13.928 0l109.423 109.423c16.172 16.171 16.172 42.39.001 58.561z" fill="#b0e7c9"/></g><g><path d="m492.432 491.369c-4.639 4.639-10.104 7.944-15.917 9.924 14.414-16.265 13.826-41.151-1.742-56.71l-109.417-109.426c-1.493-1.493-3.355-2.409-5.296-2.747l9.019-9.019c3.842-3.852 10.084-3.852 13.926 0l109.427 109.418c16.166 16.175 16.166 42.394 0 58.56z" fill="#91deb6"/></g><g><circle cx="172.849" cy="173.889" fill="#8d9ca8" r="165.391"/></g><g><path d="m289.798 290.835c-51.412 51.412-128.247 61.907-190.039 31.467 58.319 20.837 126.002 7.905 172.703-38.796 64.594-64.594 64.594-169.307 0-233.901-13.172-13.172-28.004-23.648-43.833-31.448 22.334 7.982 43.286 20.914 61.169 38.787 64.593 64.584 64.593 169.307 0 233.891z" fill="#7a8c98"/></g><g><circle cx="172.849" cy="173.889" fill="#f9f7f8" r="127.961"/></g><g><path d="m263.329 264.367c-46.155 46.155-118.788 49.685-168.991 10.582 48.457 26.085 110.182 18.669 151.089-22.248 49.973-49.973 49.973-130.99 0-180.963-3.818-3.818-7.819-7.339-11.973-10.572 10.735 5.766 20.818 13.182 29.874 22.238 49.974 49.972 49.974 130.999.001 180.963z" fill="#efedef"/></g><g><g><g><g><path d="m174.742 258.868c-46.858 0-84.98-38.122-84.98-84.98s38.122-84.979 84.98-84.979c17.027 0 33.461 5.022 47.525 14.524 8.102 5.474 10.233 16.48 4.759 24.583-5.474 8.102-16.48 10.234-24.583 4.759-8.187-5.532-17.767-8.456-27.702-8.456-27.333 0-49.57 22.237-49.57 49.569 0 27.333 22.237 49.57 49.57 49.57 10.074 0 18.535-2.985 25.146-8.874 1.289-1.147 2.524-2.424 3.674-3.793 6.287-7.49 17.455-8.465 24.944-2.181 7.49 6.287 8.466 17.454 2.181 24.944-2.248 2.678-4.686 5.192-7.247 7.473-13.105 11.672-29.944 17.841-48.697 17.841z" fill="#c5d3dd"/></g></g></g><g><g><path d="m128.11 190.693c-8.164-8.836-13.172-20.655-13.172-33.616 0-13.603 5.739-26.799 15.65-36.11 4.847-4.554 10.603-8.124 16.846-10.421 8.786-3.232 18.632-3.994 27.889-2.887 9.149 1.094 16.371 7.353 25.062 9.891 10.723 3.132 19.13-5.285 19.439-15.704.825.508 1.641 1.036 2.446 1.583 8.097 5.478 10.227 16.482 4.758 24.588-5.478 8.097-16.482 10.237-24.588 4.759-8.183-5.536-17.767-8.462-27.697-8.462-27.332 0-49.57 22.238-49.57 49.57.002 5.901 1.038 11.561 2.937 16.809z" fill="#b6c4cf"/></g><g><path d="m230.685 233.557c-2.245 2.677-4.682 5.19-7.243 7.473-13.105 11.666-29.951 17.834-48.697 17.834-34.239 0-63.816-20.348-77.257-49.589 15.57 19.935 39.823 32.781 67.021 32.781 18.755 0 35.592-6.169 48.707-17.834 2.552-2.283 4.998-4.797 7.243-7.473 2.609-3.118 3.972-6.86 4.125-10.63 1.381.643 2.705 1.468 3.924 2.494 7.492 6.284 8.461 17.451 2.177 24.944z" fill="#b6c4cf"/></g></g><g><path d="m497.708 427.533-34.703-34.703c-2.915-2.915-7.643-2.915-10.558 0-2.916 2.915-2.916 7.643 0 10.558l34.703 34.703c6.411 6.411 9.941 14.935 9.941 24.002 0 9.066-3.531 17.591-9.942 24.002s-14.935 9.942-24.002 9.942c-9.066 0-17.591-3.531-24.002-9.942l-109.422-109.424c-.929-.929-.929-2.441 0-3.37l44.633-44.633c.608-.607 1.317-.698 1.685-.698.369 0 1.078.09 1.686.698l50.263 50.263c2.915 2.915 7.643 2.915 10.558 0 2.916-2.915 2.916-7.643 0-10.558l-50.263-50.263c-3.27-3.271-7.618-5.072-12.244-5.072-4.625 0-8.972 1.801-12.243 5.072l-.25.25-47.559-47.559c45.546-67.218 38.583-159.645-20.912-219.14-32.649-32.649-76.057-50.628-122.228-50.628-46.172 0-89.58 17.98-122.228 50.628-13.43 13.43-24.467 28.797-32.803 45.676-1.826 3.697-.309 8.174 3.388 10 3.698 1.827 8.174.31 10-3.388 7.613-15.414 17.698-29.454 29.974-41.73 29.828-29.828 69.486-46.255 111.67-46.255 42.183 0 81.841 16.427 111.669 46.255 61.575 61.575 61.575 161.765 0 223.34-29.828 29.828-69.486 46.255-111.669 46.255-42.184 0-81.842-16.427-111.67-46.255-19.671-19.671-33.826-44.193-40.934-70.915-6.9-25.939-7.085-53.413-.533-79.45 1.006-3.998-1.42-8.056-5.419-9.062-3.999-1.004-8.055 1.42-9.062 5.419-7.168 28.488-6.967 58.548.584 86.931 7.784 29.26 23.277 56.106 44.806 77.635 32.648 32.648 76.056 50.628 122.228 50.628 35.16 0 68.711-10.437 97.135-29.828l47.632 47.632c-5.136 6.78-4.632 16.5 1.549 22.68l109.423 109.423c9.231 9.231 21.505 14.315 34.56 14.315s25.329-5.084 34.56-14.315c19.055-19.056 19.055-50.063-.001-69.119zm-202.632-131.416c4.239-4.239 8.209-8.645 11.915-13.197l45.998 45.999-24.944 24.944-45.976-45.976c4.499-3.682 8.842-7.605 13.007-11.77z"/><path d="m172.849 309.252c34.68 0 69.359-13.201 95.761-39.602 52.803-52.802 52.803-138.719 0-191.521s-138.719-52.802-191.521 0c-52.803 52.802-52.803 138.719 0 191.521 26.4 26.401 61.08 39.602 95.76 39.602zm-85.203-220.566c23.49-23.49 54.347-35.236 85.203-35.236s61.712 11.745 85.203 35.236c46.981 46.981 46.981 123.424 0 170.406-46.981 46.98-123.425 46.981-170.406 0-46.981-46.982-46.981-123.425 0-170.406z"/><path d="m174.742 266.334c20.613 0 39.169-6.824 53.662-19.733 2.83-2.52 5.522-5.296 8.001-8.249 8.921-10.631 7.53-26.539-3.1-35.462-10.631-8.921-26.539-7.53-35.462 3.1-.922 1.099-1.903 2.112-2.92 3.017-5.203 4.635-11.993 6.984-20.181 6.984-23.217 0-42.105-18.888-42.105-42.105 0-23.216 18.888-42.104 42.105-42.104 8.439 0 16.573 2.482 23.522 7.176 5.572 3.765 12.277 5.134 18.876 3.856 6.601-1.278 12.309-5.05 16.073-10.622 7.769-11.501 4.734-27.178-6.767-34.948-15.304-10.338-33.183-15.803-51.704-15.803-50.975 0-92.446 41.471-92.446 92.445.001 50.977 41.471 92.448 92.446 92.448zm0-169.959c15.531 0 30.52 4.58 43.346 13.244 4.678 3.161 5.913 9.539 2.753 14.218-1.531 2.266-3.854 3.801-6.539 4.321-2.686.519-5.412-.037-7.679-1.569-9.427-6.369-20.451-9.735-31.881-9.735-31.45 0-57.036 25.586-57.036 57.035 0 31.45 25.586 57.036 57.036 57.036 11.961 0 22.091-3.622 30.108-10.762 1.553-1.382 3.044-2.92 4.43-4.572 3.63-4.325 10.103-4.891 14.425-1.262 4.325 3.63 4.891 10.102 1.262 14.425-2.016 2.402-4.201 4.655-6.494 6.697-11.716 10.435-26.839 15.952-43.732 15.952-42.742 0-77.514-34.773-77.514-77.514.001-42.742 34.774-77.514 77.515-77.514z"/></g></g></g></svg>