<svg id="Capa_1" enable-background="new 0 0 514.073 514.073" height="512" viewBox="0 0 514.073 514.073" width="512" xmlns="http://www.w3.org/2000/svg"><g><g><path d="m231.471 217.284h32.76v58.603h-32.76z" fill="#c5d3dd"/></g><g><path d="m352.806 217.284h32.76v58.603h-32.76z" fill="#c5d3dd"/></g><g><path d="m369.186 217.284h16.38v58.603h-16.38z" fill="#b6c4cf"/></g><g><path d="m247.852 217.284h16.38v58.603h-16.38z" fill="#b6c4cf"/></g><g><path d="m423.553 486.304-23.075-190.32c-1.202-9.917-10.214-16.982-20.135-15.78-9.918 1.203-16.984 10.217-15.781 20.135l11.321 93.379h-134.73l11.321-93.379c1.202-9.919-5.863-18.933-15.781-20.135-9.921-1.202-18.933 5.863-20.135 15.78l-23.075 190.32c-1.202 9.919 5.863 18.933 15.781 20.135.74.09 1.473.134 2.199.134 9.018 0 16.823-6.736 17.936-15.914l8.017-66.128h142.204l8.017 66.128c1.113 9.178 8.917 15.914 17.936 15.914.727 0 1.46-.045 2.199-.134 9.918-1.203 16.984-10.217 15.781-20.135z" fill="#c5d3dd"/></g><g><path d="m228.845 424.527h8.572l-8.02 66.13c-1.11 9.18-8.91 15.92-17.93 15.92-.73 0-1.46-.05-2.2-.14-2.35-.28-4.53-1.01-6.49-2.07 4.94-2.72 8.54-7.69 9.27-13.71l6.963-57.416c.603-4.974 4.825-8.714 9.835-8.714z" fill="#b6c4cf"/></g><g><path d="m252.477 300.337-11.32 93.38h-6.169c-5.944 0-10.55-5.198-9.835-11.099l9.974-82.281c.92-7.57-2.98-14.61-9.29-18.05 3.2-1.75 6.96-2.56 10.86-2.08 9.92 1.2 16.98 10.21 15.78 20.13z" fill="#b6c4cf"/></g><g><path d="m407.777 506.437c-.74.09-1.48.14-2.2.14-3.1 0-6.07-.8-8.66-2.22 6.31-3.44 10.21-10.48 9.29-18.05l-23.08-190.32c-.73-6.02-4.33-10.99-9.28-13.7 1.96-1.07 4.15-1.8 6.5-2.08 9.92-1.21 18.93 5.86 20.13 15.78l23.08 190.32c1.2 9.92-5.87 18.93-15.78 20.13z" fill="#b6c4cf"/></g><g><path d="m385.627 7.5h-154.216c-11.239 0-20.584 9.736-21.445 22.345l-16.945 161.384c-.96 14.055 8.917 26.055 21.445 26.055h188.106c12.528 0 22.405-12 21.445-26.055l-16.945-161.384c-.862-12.608-10.206-22.345-21.445-22.345z" fill="#e8ad8c"/></g><g><path d="m402.567 217.287h-19.76c12.53 0 22.4-12 21.44-26.06l-16.94-161.38c-.86-12.61-10.21-22.35-21.45-22.35h19.77c11.24 0 20.58 9.74 21.45 22.35l16.94 161.38c.96 14.06-8.92 26.06-21.45 26.06z" fill="#e19974"/></g><g><path d="m411.984 338.094h-206.931c-8.268 0-14.97-6.703-14.97-14.97v-32.266c0-8.268 6.703-14.97 14.97-14.97h206.931c8.268 0 14.97 6.703 14.97 14.97v32.266c.001 8.267-6.702 14.97-14.97 14.97z" fill="#e8ad8c"/></g><g><path d="m426.957 290.857v32.27c0 8.26-6.7 14.97-14.97 14.97h-19.77c8.27 0 14.97-6.71 14.97-14.97v-32.27c0-8.27-6.7-14.97-14.97-14.97h19.77c8.27 0 14.97 6.7 14.97 14.97z" fill="#e19974"/></g><g><path d="m280.978 186.96h-186.086c-4.293 0-7.774-3.48-7.774-7.774v-19.7c0-4.293 3.48-7.774 7.774-7.774h186.086c4.293 0 7.774 3.48 7.774 7.774v19.7c0 4.294-3.48 7.774-7.774 7.774z" fill="#c5d3dd"/></g><g><path d="m288.757 159.487v19.7c0 4.29-3.48 7.77-7.78 7.77h-20c4.3 0 7.78-3.48 7.78-7.77v-19.7c0-4.29-3.48-7.77-7.78-7.77h20c4.3 0 7.78 3.48 7.78 7.77z" fill="#b6c4cf"/></g><path d="m434.455 323.124v-32.266c0-12.391-10.08-22.471-22.47-22.471h-18.919v-43.603h9.506c7.646 0 14.854-3.211 20.301-9.041 6.121-6.554 9.266-15.675 8.627-25.025-.006-.091-.014-.181-.023-.272l-16.933-161.257c-1.188-16.38-13.864-29.189-28.918-29.189h-154.215c-15.053 0-27.729 12.809-28.917 29.189l-12.077 115.023h-38.167c-4.143 0-7.5 3.358-7.5 7.5s3.357 7.5 7.5 7.5h128.729c.151 0 .274.123.274.273v19.7c0 .151-.123.274-.274.274h-186.087c-.15 0-.273-.123-.273-.274v-19.7c0-.151.123-.273.273-.273h22.776c4.143 0 7.5-3.358 7.5-7.5s-3.357-7.5-7.5-7.5h-22.776c-8.422 0-15.273 6.852-15.273 15.273v19.7c0 8.422 6.852 15.274 15.273 15.274h15.276v56.383c0 17.945 14.599 32.544 32.543 32.544h41.153c-.827 2.339-1.282 4.852-1.282 7.471v32.266c0 11.698 8.987 21.332 20.419 22.373l-16.961 139.904c-.823 6.786 1.046 13.486 5.262 18.866 4.217 5.38 10.275 8.795 17.061 9.618 1.035.125 2.079.189 3.104.189 12.913 0 23.824-9.678 25.381-22.512l7.218-59.53h128.91l7.218 59.531c1.557 12.833 12.468 22.511 25.381 22.511 1.024 0 2.069-.064 3.102-.189 14.008-1.698 24.022-14.475 22.324-28.483l-4.751-39.183c-.498-4.112-4.259-7.038-8.348-6.542-4.112.499-7.042 4.236-6.543 8.348l4.751 39.183c.702 5.797-3.441 11.084-9.241 11.787-.437.053-.872.08-1.294.08-5.336 0-9.846-4.006-10.49-9.317l-8.018-66.127c-.456-3.765-3.652-6.597-7.445-6.597h-142.204c-3.793 0-6.989 2.832-7.445 6.597l-8.018 66.127c-.645 5.312-5.154 9.318-10.49 9.318-.422 0-.858-.027-1.298-.08-2.808-.34-5.315-1.754-7.06-3.98s-2.519-4.999-2.178-7.807l17.169-141.613h21.334l-5.725 47.221c-.259 2.131.408 4.271 1.832 5.877 1.423 1.606 3.467 2.526 5.613 2.526h134.73c2.146 0 4.189-.919 5.613-2.526s2.091-3.746 1.832-5.877l-5.725-47.221h21.334l8.196 67.6c.498 4.112 4.262 7.042 8.348 6.542 4.112-.499 7.042-4.236 6.543-8.348l-7.989-65.892c11.434-1.041 20.421-10.675 20.421-22.373zm-153.477-128.664c8.422 0 15.274-6.852 15.274-15.274v-19.7c0-8.422-6.853-15.273-15.274-15.273h-75.479l11.926-113.584c.01-.09.018-.181.023-.272.59-8.612 6.721-15.357 13.963-15.357h154.216c7.241 0 13.374 6.745 13.963 15.356.006.091.014.182.023.272l16.93 161.238c.321 5.174-1.363 10.138-4.633 13.638-2.577 2.76-5.894 4.28-9.338 4.28h-188.106c-3.444 0-6.761-1.52-9.338-4.28-2.717-2.909-4.319-6.833-4.605-11.044zm97.088 30.324v43.603h-17.76v-43.603zm-32.76 0v43.603h-73.574v-43.603zm-88.574 0v43.603h-17.761v-43.603zm-114.021 43.603c-9.673 0-17.543-7.87-17.543-17.544v-56.383h60.321c.313 8.007 3.376 15.608 8.676 21.283 5.446 5.83 12.655 9.041 20.301 9.041h9.505v43.603zm224.709 117.83h-117.802l4.925-40.624h107.952zm52.035-63.093c0 4.119-3.351 7.47-7.47 7.47h-206.932c-4.119 0-7.471-3.351-7.471-7.47v-32.266c0-4.119 3.352-7.471 7.471-7.471h3.517 203.415c4.119 0 7.47 3.352 7.47 7.471z"/></g></svg>