<svg id="Capa_1" enable-background="new 0 0 512 512" height="512" viewBox="0 0 512 512" width="512" xmlns="http://www.w3.org/2000/svg"><g><g><path d="m256 504.515c-25.277 0-45.769-20.491-45.769-45.769v-5.804h91.538v5.804c0 25.278-20.492 45.769-45.769 45.769z" fill="#8d9ca8"/></g><g><path d="m301.767 452.938v5.808c0 25.278-20.488 45.767-45.767 45.767-3.353 0-6.627-.359-9.78-1.048 20.568-4.481 35.977-22.803 35.977-44.719v-5.808z" fill="#7a8c98"/></g><g><path d="m328.402 420.164h-144.804c-4.599 0-8.328-3.729-8.328-8.328v-16.123c0-4.599 3.729-8.328 8.328-8.328h144.804c4.599 0 8.328 3.729 8.328 8.328v16.123c0 4.599-3.728 8.328-8.328 8.328z" fill="#c5d3dd"/></g><g><path d="m309.122 452.942h-106.244c-4.599 0-8.328-3.729-8.328-8.328v-16.123c0-4.599 3.729-8.328 8.328-8.328h106.245c4.599 0 8.328 3.729 8.328 8.328v16.123c-.001 4.6-3.729 8.328-8.329 8.328z" fill="#c5d3dd"/></g><g><path d="m336.725 395.715v16.117c0 4.601-3.722 8.333-8.323 8.333h-19.959c4.601 0 8.323-3.732 8.323-8.333v-16.117c0-4.601-3.722-8.333-8.323-8.333h19.959c4.601 0 8.323 3.733 8.323 8.333z" fill="#b6c4cf"/></g><g><path d="m317.455 428.488v16.127c0 4.601-3.732 8.323-8.333 8.323h-19.959c4.601 0 8.333-3.722 8.333-8.323v-16.127c0-4.601-3.732-8.323-8.333-8.323h19.959c4.6 0 8.333 3.723 8.333 8.323z" fill="#b6c4cf"/></g><g><path d="m398.856 204.021c0-78.237-62.893-141.784-140.878-142.842-79.93-1.084-145.93 64.938-144.819 144.868.67 48.207 25.218 90.642 62.352 116.012 21.628 14.777 34.734 39.126 34.734 65.32v.007h91.511c0-25.931 12.628-50.39 34.115-64.906 38-25.673 62.985-69.148 62.985-118.459z" fill="#fedba6"/></g><g><path d="m398.859 204.026c0 49.309-24.989 92.781-62.992 118.449-10.748 7.255-19.271 17.005-25.109 28.173-5.848 11.177-9.002 23.771-9.002 36.735h-20.558c0-13.572 1.848-30.824 7.965-42.521 6.118-11.696 15.059-21.905 26.306-29.5 39.789-26.885 67.411-68.343 67.411-119.978 0-44.669-19.58-84.767-50.627-112.181 40.03 25.308 66.606 69.957 66.606 120.823z" fill="#fece85"/></g><g><path d="m390.371 154.828c-3.951 1.215-6.169 5.403-4.955 9.354 3.951 12.851 5.955 26.255 5.955 39.839 0 45.042-22.314 87.006-59.69 112.256-21.374 14.44-34.888 37.836-37.091 63.624h-12.981v-75.589l34.15-33.059c2.969-2.875 3.047-7.613.172-10.583-2.875-2.969-7.612-3.047-10.584-.172l-5.447 5.273-10.977-4.107c-1.692-.633-3.553-.633-5.245 0l-12.53 4.688-12.526-4.688c-1.692-.633-3.555-.633-5.247 0l-12.526 4.688-12.526-4.688c-1.692-.633-3.555-.633-5.247 0l-10.973 4.106-5.446-5.272c-2.971-2.876-7.71-2.798-10.584.172-2.875 2.97-2.798 7.708.172 10.583l34.15 33.059v75.589h-12.989c-2.246-25.66-15.97-49.197-37.671-64.022-36.388-24.86-58.478-65.958-59.09-109.936-.509-36.62 13.636-71.218 39.829-97.419 26.194-26.202 60.793-40.377 97.405-39.861 47.151.64 89.842 25.187 114.201 65.664 2.131 3.542 6.73 4.684 10.272 2.554 3.542-2.131 4.685-6.73 2.553-10.273-12.96-21.537-31.269-39.64-52.946-52.355-22.329-13.096-47.875-20.205-73.878-20.559-40.688-.544-79.12 15.161-108.195 44.246-29.074 29.084-44.776 67.514-44.209 108.21.679 48.842 25.207 94.483 65.613 122.088 17.604 12.027 28.863 30.955 31.067 51.662h-18.757c-8.719 0-15.813 7.094-15.813 15.813v16.122c0 8.72 7.094 15.813 15.813 15.813h3.51c-.015.281-.043.558-.043.843v16.123c0 8.688 7.045 15.758 15.722 15.808.201 6.564 1.573 12.941 4.114 18.975 1.604 3.81 5.995 5.599 9.802 3.993 3.811-1.604 5.598-5.993 3.994-9.803-1.762-4.185-2.75-8.605-2.945-13.161h76.496c-.883 20.333-17.701 36.604-38.248 36.604-5.453 0-10.715-1.12-15.644-3.33-3.768-1.689-8.2-.005-9.892 3.768-1.691 3.772-.004 8.201 3.768 9.892 6.867 3.079 14.191 4.64 21.768 4.64 28.802 0 52.321-22.988 53.211-51.578 8.677-.049 15.723-7.119 15.723-15.808v-16.123c0-.285-.028-.562-.043-.843h3.51c8.719 0 15.813-7.093 15.813-15.813v-16.122c0-8.719-7.094-15.813-15.813-15.813h-18.769c2.149-20.793 13.177-39.566 30.427-51.219 41.502-28.038 66.28-74.639 66.28-124.66 0-15.077-2.226-29.96-6.615-44.238-1.218-3.952-5.405-6.168-9.355-4.955zm-166.362 122.47 1.689-.632 12.526 4.688c1.692.633 3.555.633 5.247 0l12.526-4.688 12.526 4.688c1.692.633 3.556.633 5.246 0l12.53-4.688 1.691.633-19.074 18.464c-1.456 1.41-2.279 3.351-2.279 5.378v78.76h-21.277v-78.76c0-2.027-.823-3.968-2.279-5.378zm85.956 167.317c0 .465-.378.843-.843.843h-106.244c-.465 0-.843-.378-.843-.843v-16.123c0-.465.378-.843.843-.843h106.244c.465 0 .843.378.843.843zm18.437-49.745c.465 0 .843.378.843.843v16.122c0 .465-.378.844-.843.844h-144.804c-.465 0-.843-.379-.843-.844v-16.122c0-.465.378-.843.843-.843z"/><path d="m256 31.175c4.134 0 7.485-3.351 7.485-7.485v-16.205c0-4.134-3.351-7.485-7.485-7.485s-7.485 3.351-7.485 7.485v16.205c0 4.134 3.351 7.485 7.485 7.485z"/><path d="m154.451 52.906c1.386 2.401 3.902 3.744 6.489 3.744 1.27 0 2.557-.324 3.736-1.004 3.58-2.067 4.806-6.644 2.74-10.224l-8.103-14.034c-2.066-3.581-6.647-4.807-10.224-2.74-3.58 2.067-4.807 6.644-2.74 10.224z"/><path d="m95.081 112.275-14.034-8.103c-3.582-2.068-8.158-.841-10.224 2.74-2.067 3.58-.84 8.157 2.74 10.224l14.034 8.103c1.179.681 2.466 1.004 3.736 1.004 2.587 0 5.103-1.343 6.489-3.744 2.066-3.579.839-8.156-2.741-10.224z"/><path d="m438.438 310.512-14.034-8.103c-3.579-2.068-8.157-.841-10.224 2.74-2.067 3.58-.84 8.157 2.74 10.224l14.034 8.103c1.178.681 2.466 1.004 3.736 1.004 2.586 0 5.102-1.343 6.489-3.744 2.065-3.579.838-8.157-2.741-10.224z"/><path d="m73.351 213.824c0-4.134-3.351-7.485-7.485-7.485h-16.205c-4.134 0-7.485 3.351-7.485 7.485s3.351 7.485 7.485 7.485h16.205c4.134 0 7.485-3.351 7.485-7.485z"/><path d="m462.339 206.34h-16.205c-4.134 0-7.485 3.351-7.485 7.485s3.351 7.485 7.485 7.485h16.205c4.134 0 7.485-3.351 7.485-7.485s-3.351-7.485-7.485-7.485z"/><path d="m87.596 302.409-14.034 8.103c-3.58 2.067-4.807 6.645-2.74 10.224 1.387 2.401 3.902 3.744 6.489 3.744 1.27 0 2.557-.324 3.736-1.004l14.034-8.103c3.58-2.067 4.807-6.645 2.74-10.224-2.068-3.581-6.647-4.806-10.225-2.74z"/><path d="m420.668 126.244c1.27 0 2.557-.324 3.736-1.004l14.034-8.103c3.58-2.067 4.807-6.645 2.74-10.224-2.068-3.58-6.647-4.807-10.224-2.74l-14.034 8.103c-3.58 2.067-4.807 6.645-2.74 10.224 1.386 2.401 3.902 3.744 6.488 3.744z"/><path d="m347.324 55.645c1.179.681 2.466 1.004 3.736 1.004 2.586 0 5.103-1.343 6.489-3.744l8.103-14.034c2.067-3.58.84-8.158-2.74-10.224-3.582-2.068-8.158-.84-10.224 2.74l-8.103 14.034c-2.067 3.58-.84 8.158 2.739 10.224z"/></g></g></svg>