<svg id="Capa_1" enable-background="new 0 0 512 512" height="512" viewBox="0 0 512 512" width="512" xmlns="http://www.w3.org/2000/svg"><g><g><path d="m430.818 504.502h-321.14c-8.632 0-15.63-6.998-15.63-15.63v-465.744c0-8.632 6.998-15.63 15.63-15.63h321.14c8.632 0 15.63 6.998 15.63 15.63v465.744c0 8.632-6.998 15.63-15.63 15.63z" fill="#e5caf3"/></g><g><path d="m446.444 23.129v465.742c0 8.638-6.988 15.626-15.626 15.626h-19.995c8.638 0 15.626-6.988 15.626-15.626v-465.742c0-8.638-6.988-15.626-15.626-15.626h19.995c8.637 0 15.626 6.988 15.626 15.626z" fill="#d9b1ee"/></g><g><g><path d="m108.357 96.573h-28.617c-7.836 0-14.188-6.352-14.188-14.188 0-7.836 6.352-14.188 14.188-14.188h28.618c7.836 0 14.188 6.352 14.188 14.188-.001 7.836-6.353 14.188-14.189 14.188z" fill="#c5d3dd"/></g><g><path d="m108.357 183.381h-28.617c-7.836 0-14.188-6.352-14.188-14.188 0-7.836 6.352-14.188 14.188-14.188h28.618c7.836 0 14.188 6.352 14.188 14.188-.001 7.836-6.353 14.188-14.189 14.188z" fill="#c5d3dd"/></g><g><path d="m108.357 270.188h-28.617c-7.836 0-14.188-6.352-14.188-14.188 0-7.836 6.352-14.188 14.188-14.188h28.618c7.836 0 14.188 6.352 14.188 14.188-.001 7.836-6.353 14.188-14.189 14.188z" fill="#c5d3dd"/></g><g><path d="m108.357 356.995h-28.617c-7.836 0-14.188-6.352-14.188-14.188 0-7.836 6.352-14.188 14.188-14.188h28.618c7.836 0 14.188 6.352 14.188 14.188-.001 7.836-6.353 14.188-14.189 14.188z" fill="#c5d3dd"/></g><g><path d="m108.357 443.802h-28.617c-7.836 0-14.188-6.352-14.188-14.188 0-7.836 6.352-14.188 14.188-14.188h28.618c7.836 0 14.188 6.352 14.188 14.188-.001 7.836-6.353 14.188-14.189 14.188z" fill="#c5d3dd"/></g></g><g><g><path d="m122.546 82.384c0 3.919-1.59 7.468-4.159 10.037-2.559 2.559-6.108 4.149-10.027 4.149h-19.996c3.919 0 7.468-1.59 10.027-4.149 2.569-2.569 4.159-6.118 4.159-10.037 0-7.838-6.348-14.186-14.186-14.186h19.995c7.838 0 14.187 6.348 14.187 14.186z" fill="#b6c4cf"/></g><g><path d="m122.546 169.192c0 3.919-1.59 7.468-4.159 10.027-2.559 2.569-6.108 4.159-10.027 4.159h-19.996c3.919 0 7.468-1.59 10.027-4.159 2.569-2.559 4.159-6.108 4.159-10.027 0-7.838-6.348-14.186-14.186-14.186h19.995c7.838 0 14.187 6.348 14.187 14.186z" fill="#b6c4cf"/></g><g><path d="m122.546 256c0 3.919-1.59 7.468-4.159 10.037-2.559 2.559-6.108 4.149-10.027 4.149h-19.996c3.919 0 7.468-1.59 10.027-4.149 2.569-2.569 4.159-6.118 4.159-10.037 0-7.838-6.348-14.186-14.186-14.186h19.995c7.838 0 14.187 6.348 14.187 14.186z" fill="#b6c4cf"/></g><g><path d="m122.546 342.808c0 3.919-1.59 7.468-4.159 10.027-2.559 2.569-6.108 4.159-10.027 4.159h-19.996c3.919 0 7.468-1.59 10.027-4.159 2.569-2.559 4.159-6.108 4.159-10.027 0-7.838-6.348-14.186-14.186-14.186h19.995c7.838 0 14.187 6.348 14.187 14.186z" fill="#b6c4cf"/></g><g><path d="m122.546 429.616c0 3.919-1.59 7.468-4.159 10.037-2.559 2.559-6.108 4.149-10.027 4.149h-19.996c3.919 0 7.468-1.59 10.027-4.149 2.569-2.569 4.159-6.118 4.159-10.037 0-7.838-6.348-14.186-14.186-14.186h19.995c7.838 0 14.187 6.348 14.187 14.186z" fill="#b6c4cf"/></g></g><g><circle cx="270.248" cy="256" fill="#f9f7f8" r="58.942"/></g><g><path d="m329.193 256c0 32.552-26.393 58.945-58.945 58.945-16.626 0-31.642-6.878-42.349-17.955 7.938 3.989 16.896 6.228 26.383 6.228 32.552 0 58.945-26.393 58.945-58.945 0-15.926-6.318-30.382-16.596-40.99 19.306 9.678 32.562 29.653 32.562 52.717z" fill="#efedef"/></g><g><path d="m222.928 398.975c-4.141 0-7.498 3.357-7.498 7.498s3.357 7.498 7.498 7.498h94.641c4.141 0 7.498-3.357 7.498-7.498s-3.357-7.498-7.498-7.498z"/><path d="m430.818 0h-321.14c-12.752 0-23.128 10.375-23.128 23.128v37.572h-6.81c-11.957 0-21.686 9.729-21.686 21.686s9.729 21.685 21.686 21.685h6.811v43.436h-6.811c-11.957 0-21.686 9.728-21.686 21.686s9.729 21.686 21.686 21.686h6.811v43.435h-6.811c-11.957 0-21.686 9.729-21.686 21.686s9.729 21.686 21.686 21.686h6.811v43.435h-6.811c-11.957 0-21.686 9.729-21.686 21.686s9.729 21.686 21.686 21.686h6.811v43.436h-6.811c-11.957 0-21.686 9.728-21.686 21.685s9.729 21.686 21.686 21.686h6.811v37.572c0 12.753 10.375 23.128 23.128 23.128h237.798c4.141 0 7.498-3.357 7.498-7.498s-3.357-7.498-7.498-7.498h-237.799c-4.484 0-8.132-3.648-8.132-8.132v-37.572h6.811c11.957 0 21.686-9.728 21.686-21.686 0-11.957-9.729-21.685-21.686-21.685h-6.811v-43.436h6.811c11.957 0 21.686-9.728 21.686-21.686 0-11.957-9.729-21.686-21.686-21.686h-6.811v-43.435h6.811c11.957 0 21.686-9.729 21.686-21.686s-9.729-21.686-21.686-21.686h-6.811v-43.435h6.811c11.957 0 21.686-9.729 21.686-21.686s-9.729-21.686-21.686-21.686h-6.811v-43.436h6.811c11.957 0 21.686-9.728 21.686-21.685s-9.728-21.686-21.686-21.686h-6.811v-37.572c0-4.484 3.648-8.132 8.132-8.132h321.14c4.484 0 8.132 3.648 8.132 8.132v465.744c0 4.484-3.648 8.132-8.132 8.132h-48.456c-4.141 0-7.498 3.357-7.498 7.498s3.357 7.498 7.498 7.498h48.456c12.753 0 23.128-10.375 23.128-23.128v-465.744c0-12.753-10.375-23.128-23.128-23.128zm-322.461 422.925c3.689 0 6.69 3.001 6.69 6.689 0 3.689-3.001 6.69-6.69 6.69h-28.617c-3.689 0-6.69-3.001-6.69-6.69 0-3.688 3.001-6.689 6.69-6.689zm0-86.808c3.689 0 6.69 3.001 6.69 6.69s-3.001 6.69-6.69 6.69h-28.617c-3.689 0-6.69-3.001-6.69-6.69 0-3.688 3.001-6.69 6.69-6.69zm0-86.807c3.689 0 6.69 3.001 6.69 6.69s-3.001 6.69-6.69 6.69h-28.617c-3.689 0-6.69-3.001-6.69-6.69s3.001-6.69 6.69-6.69zm0-86.807c3.689 0 6.69 3.001 6.69 6.69s-3.001 6.69-6.69 6.69h-28.617c-3.689 0-6.69-3.001-6.69-6.69s3.001-6.69 6.69-6.69zm0-86.807c3.689 0 6.69 3.001 6.69 6.69 0 3.688-3.001 6.689-6.69 6.689h-28.617c-3.689 0-6.69-3.001-6.69-6.689 0-3.689 3.001-6.69 6.69-6.69z"/><path d="m270.248 189.56c-11.105 0-22.098 2.796-31.79 8.086-3.635 1.984-4.973 6.539-2.989 10.174s6.539 4.974 10.174 2.989c7.495-4.091 16.003-6.253 24.605-6.253 28.366 0 51.444 23.078 51.444 51.444s-23.078 51.444-51.444 51.444-51.444-23.078-51.444-51.444c0-8.268 1.899-16.16 5.646-23.458 1.892-3.684.438-8.203-3.246-10.094-3.685-1.892-8.204-.439-10.095 3.246-4.777 9.304-7.301 19.784-7.301 30.307 0 36.635 29.805 66.44 66.441 66.44 36.635 0 66.44-29.805 66.44-66.44s-29.805-66.441-66.441-66.441z"/><path d="m367.307 98.029h-194.117c-4.141 0-7.498 3.357-7.498 7.498s3.357 7.498 7.498 7.498h194.117c4.141 0 7.498-3.357 7.498-7.498s-3.357-7.498-7.498-7.498z"/><path d="m343.607 137.565c0-4.141-3.357-7.498-7.498-7.498h-131.72c-4.141 0-7.498 3.357-7.498 7.498s3.357 7.498 7.498 7.498h131.72c4.141 0 7.498-3.357 7.498-7.498z"/></g></g></svg>