<svg id="Capa_1" enable-background="new 0 0 512 512" height="512" viewBox="0 0 512 512" width="512" xmlns="http://www.w3.org/2000/svg"><g><g><g><path d="m479.708 441.758h-447.416c-13.693 0-24.794-11.101-24.794-24.794v-27.387c0-4.734 3.838-8.572 8.572-8.572h479.858c4.734 0 8.572 3.838 8.572 8.572v27.387c.001 13.693-11.099 24.794-24.792 24.794z" fill="#c5d3dd"/></g><g><path d="m504.496 389.581v27.384c0 13.697-11.098 24.795-24.785 24.795h-19.996c13.687 0 24.785-11.098 24.785-24.795v-27.384c0-4.739-3.829-8.578-8.568-8.578h19.996c4.739 0 8.568 3.839 8.568 8.578z" fill="#b6c4cf"/></g><g><path d="m440.632 381.005h-377.672c-15.264 0-27.638-12.374-27.638-27.638v-247.631c0-19.603 15.891-35.494 35.494-35.494h361.96c19.603 0 35.494 15.891 35.494 35.494v247.631c0 15.264-12.374 27.638-27.638 27.638z" fill="#596c76"/></g><g><path d="m468.274 105.732v247.637c0 15.267-12.377 27.634-27.644 27.634h-19.996c15.267 0 27.644-12.367 27.644-27.634v-247.637c0-19.596-15.897-35.492-35.502-35.492h19.996c19.606 0 35.502 15.897 35.502 35.492z" fill="#465a61"/></g><g><path d="m293.51 411.381h-75.02c-6.507 0-11.782-5.275-11.782-11.782v-18.595h98.583v18.596c.001 6.507-5.274 11.781-11.781 11.781z" fill="#8d9ca8"/></g><g><path d="m305.289 381.003v18.596c0 6.509-5.269 11.777-11.777 11.777h-19.996c6.509 0 11.777-5.269 11.777-11.777v-18.596z" fill="#7a8c98"/></g></g><g><path d="m428.555 349.569h-353.519c-5.285 0-9.569-4.284-9.569-9.569v-228.753c0-5.285 4.284-9.569 9.569-9.569h353.519c5.285 0 9.569 4.284 9.569 9.569v228.752c.001 5.285-4.284 9.57-9.569 9.57z" fill="#f2fbff"/></g><g><path d="m428.557 349.569h-176.761v-247.89h176.761c5.284 0 9.568 4.284 9.568 9.568v228.754c0 5.284-4.284 9.568-9.568 9.568z" fill="#e5e1e5"/></g><g><path d="m438.121 111.241v228.761c0 5.279-4.279 9.568-9.568 9.568h-19.996c5.289 0 9.568-4.289 9.568-9.568v-228.761c0-5.279-4.279-9.568-9.568-9.568h19.996c5.289 0 9.568 4.289 9.568 9.568z" fill="#d7d0d6"/></g><g><path d="m211.303 219.928h-105.342c-3.963 0-7.175-3.212-7.175-7.175v-70.412c0-3.963 3.212-7.175 7.175-7.175h105.342c3.963 0 7.175 3.212 7.175 7.175v70.412c0 3.963-3.213 7.175-7.175 7.175z" fill="#fedba6"/></g><g><path d="m218.478 142.345v70.405c0 3.969-3.209 7.178-7.178 7.178h-19.996c3.969 0 7.178-3.209 7.178-7.178v-70.405c0-3.969-3.209-7.178-7.178-7.178h19.996c3.969-.001 7.178 3.208 7.178 7.178z" fill="#fece85"/></g><g><path d="m106.794 135.166 48.269 46.17c1.996 1.909 5.141 1.909 7.136 0l48.269-46.17z" fill="#fec165"/></g><g><path d="m210.47 135.166-48.27 46.17c-2 1.91-5.139 1.91-7.138 0l-12.057-11.528c.85-.2 1.67-.63 2.35-1.28l34.882-33.363h30.233z" fill="#fdb441"/></g><g><path d="m495.929 373.506h-26.532c4.008-5.708 6.37-12.651 6.37-20.14v-247.63c0-23.706-19.286-42.992-42.992-42.992h-255.6c-4.141 0-7.498 3.357-7.498 7.498s3.357 7.498 7.498 7.498h255.601c15.437 0 27.995 12.559 27.995 27.996v247.631c0 11.105-9.034 20.14-20.139 20.14h-377.672c-11.105 0-20.139-9.035-20.139-20.14v-247.631c0-15.437 12.559-27.996 27.995-27.996h71.336c4.141 0 7.498-3.357 7.498-7.498s-3.357-7.498-7.498-7.498h-71.336c-23.706 0-42.992 19.286-42.992 42.992v247.631c0 7.489 2.362 14.432 6.37 20.14h-18.123c-8.862-.001-16.071 7.209-16.071 16.07v27.387c0 17.806 14.486 32.292 32.292 32.292h272.328c4.141 0 7.498-3.357 7.498-7.498s-3.357-7.498-7.498-7.498h-272.328c-9.537 0-17.296-7.759-17.296-17.296v-27.387c0-.592.482-1.074 1.074-1.074h183.14v11.097c0 10.631 8.649 19.28 19.28 19.28h75.02c10.631 0 19.28-8.649 19.28-19.28v-11.097h183.139c.592 0 1.074.482 1.074 1.074v27.387c0 9.537-7.759 17.296-17.296 17.296h-139.936c-4.141 0-7.498 3.357-7.498 7.498s3.357 7.498 7.498 7.498h139.936c17.806 0 32.292-14.486 32.292-32.292v-27.387c.001-8.861-7.208-16.071-16.07-16.071zm-198.136 26.094c0 2.362-1.921 4.283-4.283 4.283h-75.02c-2.362 0-4.283-1.921-4.283-4.283v-11.097h83.586z"/><path d="m57.969 111.248v228.752c0 9.411 7.657 17.068 17.068 17.068h353.519.001c9.41 0 17.066-7.656 17.066-17.067v-.001-228.752-.001c0-9.411-7.656-17.066-17.066-17.066h-.001-353.519c-9.412-.001-17.068 7.655-17.068 17.067zm201.325-2.071h169.261c1.142 0 2.071.929 2.071 2.071v228.752c0 1.142-.929 2.071-2.071 2.071h-169.261zm-14.997 232.893h-169.26c-1.142 0-2.071-.929-2.071-2.071v-228.751c0-1.142.929-2.071 2.071-2.071h169.261v232.893z"/><path d="m105.961 227.427h105.342c8.091 0 14.673-6.583 14.673-14.674v-70.412c0-8.091-6.583-14.674-14.673-14.674h-105.342c-8.091 0-14.673 6.583-14.673 14.674v70.412c-.001 8.091 6.582 14.674 14.673 14.674zm85.821-84.763-33.151 31.708-33.15-31.708zm-85.498 2.39 43.596 41.699c2.454 2.348 5.602 3.521 8.752 3.521 3.149 0 6.298-1.174 8.752-3.52l43.596-41.7v67.375h-104.696z"/><path d="m98.786 260.055h119.692c4.141 0 7.498-3.357 7.498-7.498s-3.357-7.498-7.498-7.498h-119.692c-4.141 0-7.498 3.357-7.498 7.498-.001 4.141 3.357 7.498 7.498 7.498z"/><path d="m218.477 276.821h-23.975c-4.141 0-7.498 3.357-7.498 7.498s3.357 7.498 7.498 7.498h23.975c4.141 0 7.498-3.357 7.498-7.498s-3.356-7.498-7.498-7.498z"/><path d="m98.786 291.818h60.878c4.141 0 7.498-3.357 7.498-7.498s-3.357-7.498-7.498-7.498h-60.878c-4.141 0-7.498 3.357-7.498 7.498s3.357 7.498 7.498 7.498z"/><path d="m98.786 323.579h119.692c4.141 0 7.498-3.357 7.498-7.498s-3.357-7.498-7.498-7.498h-119.692c-4.141 0-7.498 3.357-7.498 7.498-.001 4.141 3.357 7.498 7.498 7.498z"/><path d="m403.888 127.667h-80.761c-4.141 0-7.498 3.357-7.498 7.499 0 4.141 3.357 7.498 7.498 7.498h80.761c4.141 0 7.498-3.357 7.498-7.498 0-4.142-3.357-7.499-7.498-7.499z"/><path d="m403.888 163.85h-120.656c-4.141 0-7.498 3.357-7.498 7.499 0 4.141 3.357 7.498 7.498 7.498h120.656c4.141 0 7.498-3.357 7.498-7.498s-3.357-7.499-7.498-7.499z"/><path d="m403.888 200.034h-80.761c-4.141 0-7.498 3.357-7.498 7.498s3.357 7.498 7.498 7.498h80.761c4.141 0 7.498-3.357 7.498-7.498s-3.357-7.498-7.498-7.498z"/><path d="m403.888 236.217h-120.656c-4.141 0-7.498 3.357-7.498 7.498s3.357 7.498 7.498 7.498h120.656c4.141 0 7.498-3.357 7.498-7.498s-3.357-7.498-7.498-7.498z"/><path d="m403.888 272.399h-80.761c-4.141 0-7.498 3.357-7.498 7.498s3.357 7.498 7.498 7.498h80.761c4.141 0 7.498-3.357 7.498-7.498s-3.357-7.498-7.498-7.498z"/><path d="m403.888 308.582h-120.656c-4.141 0-7.498 3.357-7.498 7.498s3.357 7.498 7.498 7.498h120.656c4.141 0 7.498-3.357 7.498-7.498 0-4.14-3.357-7.498-7.498-7.498z"/></g></g></svg>