<svg id="Capa_1" enable-background="new 0 0 511.999 511.999" height="512" viewBox="0 0 511.999 511.999" width="512" xmlns="http://www.w3.org/2000/svg"><g><g><g><path d="m287.761 287.779-31.77 31.77 62.108 62.108c3.259 3.259 8.774 2.234 10.644-1.979l14.625-32.954c.66-1.488 1.85-2.677 3.338-3.338l32.954-14.625c4.213-1.87 5.239-7.385 1.979-10.644l-62.108-62.108z" fill="#c8effe"/></g><g><path d="m319.528 256.01 62.106 62.106c3.264 3.264 2.24 8.768-1.971 10.648l-11.079 4.918c-.276-.516-.643-.996-1.081-1.434l-62.106-62.106z" fill="#99e6fc"/></g></g><g><path d="m427.733 11.28c-.439-.304-.87-.601-1.293-.892-7.267-5-17.598-3.291-23.798 3.918l-36.556 42.504c-61.503 71.513-214.369 225.039-285.289 287.264l-66.658 58.486c-7.092 6.222-8.729 16.456-3.771 23.668.321.467.65.944.987 1.43 19.762 28.55 44.436 53.224 72.986 72.986.486.337.964.666 1.431.987 7.211 4.958 17.445 3.321 23.668-3.771l58.486-66.658c62.225-70.92 215.751-223.785 287.265-285.289l42.505-36.555c7.209-6.2 8.918-16.531 3.918-23.798-.291-.423-.589-.855-.893-1.294-19.764-28.551-44.438-53.225-72.988-72.986z" fill="#f9f7f8"/></g><g><path d="m497.692 109.353-42.507 36.562c-71.504 61.502-225.034 214.362-287.256 285.287l-58.494 66.658c-6.215 7.094-16.447 8.733-23.661 3.767-.47-.32-.949-.65-1.429-.979-4.746-3.287-9.393-6.705-13.919-10.262 6.755 2.248 14.728.08 19.944-5.865l59.344-67.637c63.151-71.964 218.939-227.093 291.512-289.504l43.126-37.091c6.035-5.196 8.273-13.23 6.025-20.024 3.587 4.556 7.034 9.223 10.342 13.999.3.44.6.869.889 1.299 5.007 7.263 3.298 17.595-3.916 23.79z" fill="#efedef"/></g><g><path d="m443.794 23.233c1.421 9.625-2.238 19.962-9.746 27.47l-383.27 383.27c-7.508 7.508-17.845 11.167-27.47 9.746-4.156-5.209-8.151-10.563-11.953-16.063-.332-.485-.665-.954-.989-1.431-4.951-7.21-3.321-17.436 3.77-23.662l66.661-58.491c70.92-62.215 223.786-215.741 285.282-287.262l36.565-42.504c6.198-7.204 16.525-8.92 23.799-3.922.421.302.85.596 1.287.897 5.501 3.801 10.855 7.796 16.064 11.952z" fill="#e5e1e5"/></g><g><path d="m434.052 50.699-383.271 383.27c-7.514 7.514-17.846 11.171-27.469 9.752-4.157-5.216-8.154-10.562-11.961-16.067-.17-.24-.33-.48-.5-.719 8.214-.13 16.537-3.717 22.852-10.032l383.272-383.271c6.315-6.325 9.912-14.648 10.032-22.852.24.17.48.33.719.5 5.506 3.807 10.862 7.794 16.067 11.951 1.42 9.632-2.237 19.964-9.741 27.468z" fill="#d7d0d6"/></g><g><g><path d="m316.063 296.522-19.558 19.558c-7.771 7.771-20.37 7.771-28.14 0l-72.446-72.446c-7.771-7.771-7.771-20.37 0-28.14l19.558-19.558c7.771-7.771 20.37-7.771 28.14 0l72.446 72.446c7.77 7.771 7.77 20.37 0 28.14z" fill="#f2fbff"/></g></g><g><g><path d="m316.064 296.527-4.347 4.347c.21-5.755-1.889-11.591-6.285-15.987l-78.319-78.319c-4.397-4.397-10.232-6.495-15.988-6.285l4.347-4.347c7.774-7.774 20.374-7.774 28.148 0l72.443 72.443c7.775 7.773 7.775 20.374.001 28.148z" fill="#dff6fd"/></g></g><path d="m507.783 81.308c-7.462-10.846-15.363-20.963-24.184-30.775-13.224-14.71-27.935-28.082-43.817-39.828-2.994-2.214-6.026-4.381-9.094-6.492-10.476-7.208-24.977-4.971-33.729 5.205l-36.555 42.505c-27.6 32.092-74.281 81.429-123.763 131.62-2.286-.609-4.665-.93-7.094-.93-7.317 0-14.195 2.849-19.369 8.023l-19.558 19.558c-7.156 7.156-9.51 17.317-7.076 26.458-41.073 40.5-80.087 77.57-107.688 101.788l-66.659 58.487c-9.981 8.757-12.133 23.179-5.002 33.551 2.495 3.629 5.243 7.457 7.964 11.073 16.806 22.329 36.861 42.317 59.288 59.053.228.17.457.34.686.51 2.616 1.94 5.261 3.842 7.942 5.691 0 0 1.451 1.001 1.451 1.001 4.109 2.825 8.855 4.193 13.633 4.193 7.277 0 14.627-3.172 19.914-9.196l58.486-66.658c22.122-25.213 54.966-59.948 91.354-97.076l10.397 10.398c2.927 2.926 7.672 2.926 10.599 0 2.926-2.926 2.926-7.672 0-10.598l-10.343-10.343c2.218.571 4.519.878 6.869.878 7.317 0 14.196-2.849 19.37-8.023l19.558-19.558h-.001c5.175-5.174 8.024-12.053 8.024-19.37 0-2.35-.306-4.652-.878-6.869l46.877 46.877-31.716 14.076c-3.193 1.416-5.732 3.955-7.15 7.148l-14.077 31.718-11.745-11.746c-2.927-2.926-7.672-2.926-10.599 0-2.926 2.926-2.926 7.672 0 10.598l12.702 12.702c2.662 2.661 6.246 4.118 9.94 4.118.855 0 1.715-.078 2.572-.237 4.557-.847 8.401-3.883 10.281-8.12l14.48-32.626 32.628-14.481c4.237-1.881 7.272-5.725 8.119-10.281.847-4.557-.604-9.234-3.881-12.512l-47.88-47.881c46.462-45.548 91.19-87.689 121.018-113.342l42.505-36.555c10.175-8.752 12.412-23.252 5.201-33.732zm-490.266 342.085-.974-1.411c-2.78-4.044-1.665-10.1 2.539-13.789l66.658-58.486c27.189-23.856 65.397-60.12 105.774-99.879l16.405 16.405-162.44 162.44c-5.122 5.122-11.779 7.944-18.278 7.855-.548-.701-7.338-9.745-9.684-13.135zm144.775 2.866-58.486 66.658c-3.689 4.204-9.746 5.318-13.79 2.538l-1.411-.973c-18.586-12.865-35.402-27.796-50.273-44.575 6.508-1.929 12.657-5.548 17.744-10.636l162.44-162.44 43.654 43.654c-39.758 40.378-76.023 78.586-99.878 105.774zm148.472-135.036-19.559 19.558c-2.342 2.343-5.458 3.633-8.771 3.633s-6.429-1.29-8.77-3.633l-72.446-72.446c-4.836-4.837-4.836-12.705 0-17.542l19.558-19.558c2.343-2.343 5.458-3.633 8.771-3.633s6.428 1.29 8.771 3.633l72.446 72.446c2.343 2.342 3.633 5.458 3.633 8.771s-1.29 6.428-3.633 8.771zm182.043-187.547-42.505 36.555c-31.732 27.291-80.235 73.139-129.827 121.966l-43.662-43.661 125.863-125.863c2.927-2.926 2.927-7.672 0-10.598-2.927-2.927-7.672-2.927-10.599 0l-125.862 125.861-16.412-16.412c48.827-49.593 94.674-98.095 121.965-129.828l36.555-42.505c2.327-2.707 5.614-4.166 8.749-4.166 1.832 0 3.612.498 5.121 1.536 4.177 2.873 8.506 6.01 12.606 9.16.604.464 1.203.935 1.803 1.404.091 6.494-2.732 13.156-7.855 18.278l-12.182 12.182c-2.926 2.927-2.926 7.672.001 10.598 2.925 2.927 7.671 2.926 10.598 0l12.182-12.182c5.087-5.087 8.708-11.234 10.637-17.741 16.777 14.869 31.707 31.683 44.57 50.266l.884 1.281c2.814 4.089 1.659 10.181-2.63 13.869z"/></g></svg>