<svg id="Capa_1" enable-background="new 0 0 512 512" height="512" viewBox="0 0 512 512" width="512" xmlns="http://www.w3.org/2000/svg"><g><g><path d="m89.78 43.523-75.82 103.274c-2.97 4.045-2.31 9.698 1.511 12.951l52.39 44.595c3.852 3.279 9.594 2.982 13.087-.678l39.936-41.841v-34.876z" fill="#e5caf3"/></g><g><path d="m425.645 43.523 75.835 103.295c2.961 4.033 2.304 9.669-1.507 12.913l-52.41 44.612c-3.852 3.279-9.594 2.982-13.087-.678l-39.936-41.841v-34.876z" fill="#e5caf3"/></g><g><path d="m499.976 159.726-52.414 44.617c-3.849 3.28-9.592 2.981-13.081-.678l-10.429-10.918c3.071.817 6.471.159 9.063-2.044l54.877-46.711c3.699-3.161 4.557-8.465 2.174-12.583l11.316 15.404c2.961 4.039 2.303 9.673-1.506 12.913z" fill="#d9b1ee"/></g><g><path d="m175.798 7.478 9.914 107.239h72.001 72l9.915-107.239z" fill="#f9f7f8"/></g><g><path d="m339.628 7.478s-.683 70.269-61.161 85.959c-6.795 1.763-13.774 2.644-20.754 2.644-6.979 0-13.959-.881-20.754-2.644-60.478-15.69-61.161-85.959-61.161-85.959l-86.018 36.045 31.104 83.425v126.192 208.405c0 5.708 3.1 10.953 8.093 13.719 17.081 9.465 60.91 29.258 128.735 29.258s111.655-19.793 128.736-29.258c4.992-2.766 8.093-8.012 8.093-13.719v-208.405-126.192l31.104-83.425z" fill="#c8effe"/></g><g><path d="m425.647 43.521-31.108 83.422v334.606c0 5.703-3.101 10.948-8.096 13.719-3.51 1.944-8.146 4.317-13.889 6.88.987-2.064 1.525-4.357 1.525-6.73v-340.931c0-4.989.893-9.937 2.635-14.612l31.234-83.772z" fill="#99e6fc"/></g><g><path d="m507.508 142.393-75.835-103.295c-.815-1.114-1.869-1.939-3.138-2.471l-86.017-36.046c-.059-.025-.121-.04-.181-.063-.859-.335-1.786-.518-2.709-.518h-163.83c-.031 0-.061.007-.092.007-.948.012-1.897.197-2.797.574 0 0-86.378 36.217-86.416 36.236-1.137.554-1.995 1.266-2.74 2.281-.085.114-81.091 110.452-81.091 110.452-2.32 3.161-1.805 7.578 1.181 10.119l59.171 50.367c3.192 2.717 7.115 4.056 11.026 4.056 4.501 0 8.987-1.775 12.318-5.265l27.049-28.339v281.057c0 8.414 4.577 16.177 11.947 20.26 16.382 9.079 62.078 30.195 132.358 30.195 70.281 0 115.977-21.116 132.36-30.195 7.369-4.083 11.947-11.846 11.947-20.26v-65.777c0-4.13-3.348-7.478-7.478-7.478s-7.478 3.348-7.478 7.478v65.777c0 2.979-1.624 5.729-4.239 7.178-15.367 8.515-58.32 28.321-125.112 28.321-66.791 0-109.743-19.805-125.111-28.321-2.615-1.449-4.239-4.2-4.239-7.178v-334.597c0-.892-.16-1.776-.471-2.612l-28.594-76.693 69.934-29.306c1.805 13.381 7.187 36.707 23.226 55.765 2.659 3.161 7.377 3.566 10.536.906 3.16-2.659 3.566-7.377.906-10.536-13.284-15.786-18.015-35.684-19.698-47.331l-.201-2.185h147.427l-.222 2.397c-.946 6.504-2.832 15.503-6.6 24.892-9.362 23.329-25.517 38.117-48.017 43.954-12.3 3.192-25.449 3.192-37.753 0-3.352-.87-6.609-1.955-9.68-3.226-3.816-1.58-8.189.233-9.769 4.05-1.579 3.816.234 8.189 4.05 9.769 3.707 1.534 7.625 2.841 11.644 3.884 14.755 3.828 30.51 3.828 45.265 0 27.133-7.039 47.305-25.487 58.334-53.349 4.395-11.104 6.498-21.579 7.504-28.993l69.945 29.311-28.594 76.693c-.312.836-.471 1.72-.471 2.612v233.85c0 4.13 3.348 7.478 7.478 7.478s7.478-3.348 7.478-7.478v-180.311l27.05 28.339c3.331 3.49 7.816 5.264 12.318 5.264 3.91 0 7.834-1.339 11.025-4.055l52.41-44.612c6.762-5.758 7.942-15.874 2.686-23.032zm-407.086-48.924 12.985 34.827v30.531l-37.868 39.675c-.756.79-1.996.855-2.83.147l-53.872-45.857 68.776-93.679zm394.705 60.568-52.41 44.612c-.832.709-2.075.644-2.83-.147l-37.868-39.674v-30.531l25.795-69.184 67.64 92.131c.636.868.493 2.095-.327 2.793z"/><path d="m334.158 162.477c2.499 0 4.907.735 6.966 2.125 3.422 2.312 8.07 1.412 10.382-2.01s1.412-8.071-2.011-10.383c-4.539-3.067-9.843-4.688-15.337-4.688-15.121 0-27.423 12.302-27.423 27.423s12.302 27.423 27.423 27.423c6.114 0 11.619-2.024 15.922-5.856.843-.752 1.642-1.576 2.375-2.451 2.652-3.165 2.235-7.882-.93-10.534s-7.882-2.235-10.534.93c-.269.32-.558.62-.859.888-1.563 1.391-3.517 2.068-5.974 2.068-6.875 0-12.468-5.593-12.468-12.468 0-6.874 5.593-12.467 12.468-12.467z"/></g></g></svg>