<svg id="Capa_1" enable-background="new 0 0 512.059 512.059" height="512" viewBox="0 0 512.059 512.059" width="512" xmlns="http://www.w3.org/2000/svg"><g><g><path d="m319.682 8.435c-10.689 6.208-44.49 27.469-80.62 67.174-93.024 102.227-92.99 258.685.077 360.872 36.148 39.69 69.957 60.937 80.649 67.14 2.157 1.251 4.811 1.252 6.967 0 12.781-7.422 58.626-36.379 101.978-92.671 74.138-96.267 74.113-213.654-.066-309.889-43.376-56.273-89.233-85.211-102.017-92.628-2.158-1.253-4.812-1.251-6.968.002z" fill="#fe99a0"/></g><g><path d="m428.729 410.947c-43.35 56.29-89.19 85.25-101.97 92.67-2.16 1.26-4.81 1.26-6.97 0-2.17-1.26-5.29-3.14-9.2-5.67 16.51-10.1 58.37-38.74 98.14-90.38 74.14-96.27 74.12-213.65-.06-309.89-36.01-46.71-73.72-74.58-92.81-86.96 1.49-.91 2.77-1.67 3.82-2.28 2.16-1.25 4.81-1.26 6.97 0 12.78 7.41 58.64 36.35 102.02 92.62 74.181 96.24 74.201 213.63.06 309.89z" fill="#fd8087"/></g><g><g><path d="m456.486 144.582-263.016.056c9.188-20.153 21.02-39.409 35.476-57.245l188.676-.04c3.68 4.378 7.37 8.944 11.04 13.708 10.863 14.092 20.137 28.649 27.824 43.521z" fill="#e5e1e5"/></g><g><path d="m456.534 367.415c-7.68 14.876-16.949 29.436-27.805 43.533-3.668 4.765-7.356 9.333-11.034 13.713l-188.676.04c-14.463-17.83-26.304-37.08-35.501-57.229z" fill="#e5e1e5"/></g><g><g><path d="m456.489 144.587h-18.27c-8.01-16.05-17.86-31.74-29.55-46.91-2.74-3.55-5.48-6.99-8.23-10.32h17.18c.92 1.09 1.84 2.2 2.76 3.311 2.825 3.408 5.564 6.858 8.28 10.39 4.065 5.287 7.8 10.46 11.519 15.979 4.106 6.092 8.149 12.68 11.82 19.21 1.04 1.85 2.05 3.7 3.03 5.55.491.93.981 1.86 1.461 2.79z" fill="#d7d0d6"/></g><g><path d="m456.529 367.417c-.96 1.86-1.94 3.71-2.95 5.56-2.034 3.725-4.156 7.393-6.36 11.03-3.941 6.505-8.076 12.679-12.47 18.84-5.155 7.227-10.763 14.154-16.36 20.97-.23.28-.47.56-.7.84h-22.89c4.65-5.39 9.3-11.08 13.93-17.09 10.04-13.03 18.71-26.45 26.03-40.15z" fill="#d7d0d6"/></g></g></g><g><path d="m326.83 317.355c-13.097.003-23.716-10.612-23.719-23.709l-.016-75.23c-.003-13.097 10.612-23.716 23.709-23.719 13.097-.003 23.716 10.612 23.719 23.709l.016 75.23c.002 13.097-10.612 23.716-23.709 23.719z" fill="#fe646f"/></g><g><path d="m350.539 293.637c0 13.1-10.61 23.72-23.71 23.72-3.59 0-6.99-.8-10.04-2.23 8.08-3.78 13.67-11.98 13.67-21.49l-.02-75.23c0-6.55-2.65-12.48-6.95-16.77-1.94-1.94-4.21-3.54-6.72-4.71 3.04-1.43 6.44-2.23 10.03-2.23 6.55 0 12.48 2.65 16.77 6.94 4.3 4.29 6.95 10.22 6.95 16.77z" fill="#fd4755"/></g><g><circle cx="149.076" cy="383.224" fill="#f9f7f8" r="121.335"/></g><g><path d="m270.409 383.227c0 67.01-54.32 121.33-121.33 121.33-14.83 0-29.05-2.66-42.18-7.54 6.53 1.1 13.24 1.67 20.08 1.67 67.01 0 121.33-54.32 121.33-121.33 0-52.19-32.93-96.67-79.15-113.8 57.45 9.55 101.25 59.5 101.25 119.67z" fill="#efedef"/></g><g><path d="m364.029 281.317s-.001 0-.002 0l-5.992.001-.004-17.799 5.993-.001c4.142-.001 7.499-3.359 7.498-7.501s-3.358-7.499-7.5-7.499c0 0-.001 0-.002 0l-5.992.001-.004-17.799 5.993-.001c4.142-.001 7.499-3.359 7.498-7.501s-3.358-7.499-7.5-7.499c0 0-.001 0-.002 0l-6.115.001c-1.37-15.957-14.786-28.524-31.091-28.524-.001 0-.005 0-.006 0-8.338.002-16.176 3.25-22.069 9.147-5.257 5.259-8.4 12.065-9.018 19.39l-6.113.001c-4.142.001-7.499 3.359-7.498 7.501s3.358 7.499 7.5 7.499h.002l5.992-.001.004 17.799-5.993.001c-4.142.001-7.499 3.359-7.498 7.501s3.358 7.499 7.5 7.499h.002l5.992-.001.004 17.798-5.993.001c-4.142.001-7.499 3.359-7.498 7.501s3.358 7.499 7.5 7.499h.002l6.115-.001c1.37 15.957 14.786 28.524 31.089 28.524h.007c8.338-.001 16.177-3.25 22.07-9.147 5.257-5.259 8.4-12.065 9.018-19.39l6.113-.001c4.142-.001 7.499-3.359 7.498-7.501-.001-4.141-3.358-7.498-7.5-7.498zm-48.688-74.369c3.062-3.063 7.134-4.75 11.464-4.751h.004c8.022 0 14.686 5.864 15.972 13.527l-31.95.007c.548-3.31 2.092-6.363 4.51-8.783zm-4.744 23.783 32.428-.007.004 17.799-32.428.007zm.007 32.798 32.428-.007.004 17.799-32.428.007zm27.688 41.575c-3.062 3.063-7.133 4.75-11.464 4.751-.001 0-.001 0-.001 0-.001 0-.002 0-.003 0-8.023 0-14.686-5.864-15.972-13.527l31.95-.007c-.548 3.309-2.091 6.363-4.51 8.783z"/><path d="m434.607 96.481c-44.102-57.215-90.9-86.824-104.193-94.536-4.473-2.594-10.027-2.593-14.498.004-9.932 5.768-45.227 27.761-82.4 68.612-46.016 50.569-71.445 116.041-71.687 184.459-4.196-.414-8.449-.631-12.752-.631-48.937 0-95.15 29.192-116.315 73.462-8.243 17.242-12.52 36.264-12.52 55.373 0 7.307.617 14.635 1.835 21.781.695 4.083 4.571 6.828 8.653 6.134 4.083-.696 6.829-4.57 6.134-8.653-1.076-6.315-1.622-12.796-1.622-19.261 0-32.003 13.281-60.959 34.614-81.661 5.206 4.853 9.898 10.143 14.033 15.794l-1.724 1.2c-3.399 2.367-4.236 7.042-1.87 10.441 1.458 2.093 3.79 3.215 6.162 3.215 1.479 0 2.973-.437 4.278-1.345l1.181-.822c2.763 5.097 5.117 10.406 7.053 15.875l-2.834 1.038c-3.89 1.424-5.888 5.732-4.464 9.622 1.113 3.039 3.985 4.923 7.044 4.923.856 0 1.728-.148 2.578-.459l1.724-.631c1.043 5.019 1.744 10.133 2.089 15.312h-3.679c-4.143 0-7.5 3.358-7.5 7.5s3.357 7.5 7.5 7.5h3.679c-.345 5.179-1.046 10.292-2.089 15.311l-1.725-.632c-3.893-1.426-8.196.574-9.622 4.463-1.424 3.89.574 8.197 4.464 9.622l2.834 1.038c-1.936 5.47-4.29 10.778-7.053 15.875l-1.181-.822c-3.398-2.367-8.073-1.529-10.44 1.87-2.366 3.399-1.529 8.074 1.87 10.441l1.725 1.201c-4.162 5.688-8.886 11.01-14.133 15.889-9.082-8.847-16.786-19.306-22.67-31.135-1.844-3.708-6.345-5.221-10.055-3.375-3.709 1.845-5.22 6.346-3.376 10.055 3.875 7.795 8.548 15.192 13.917 22.045 9.234 11.789 20.036 21.588 32.731 29.616 20.558 13.001 44.339 19.873 68.773 19.873 13.675 0 27.333-2.172 40.319-6.464 16.385-5.416 31.69-14.239 44.592-25.57 6.668-5.856 12.734-12.382 18.079-19.482 28.692 27.706 53.431 43.458 63.958 49.566 2.236 1.297 4.742 1.946 7.248 1.946 2.507 0 5.015-.649 7.25-1.948 13.289-7.718 60.075-37.346 104.153-94.581 37.396-48.558 57.155-103.724 57.143-159.534-.012-55.815-19.795-110.973-57.211-159.514zm-111.439-81.398c10.823 6.309 43.15 26.837 77.877 64.774l-155.73.033c35.119-38.387 68.087-59.107 77.853-64.807zm-174.092 481.976c-25.058 0-48.634-8.044-67.838-22.301 5.528-5.283 10.532-11.002 14.964-17.093l4.112 2.863c1.306.909 2.8 1.345 4.278 1.345 2.371 0 4.704-1.122 6.162-3.215 2.366-3.399 1.529-8.074-1.87-10.441l-4.594-3.199c3.46-6.186 6.392-12.651 8.766-19.332l3.845 1.408c.852.312 1.722.459 2.578.459 3.059 0 5.931-1.884 7.044-4.923 1.424-3.89-.574-8.197-4.464-9.622l-4.814-1.763c1.514-6.703 2.487-13.563 2.895-20.522h3.393c4.143 0 7.5-3.358 7.5-7.5s-3.357-7.5-7.5-7.5h-3.393c-.409-6.959-1.381-13.819-2.896-20.522l4.815-1.763c3.89-1.424 5.888-5.732 4.464-9.622-1.425-3.889-5.732-5.887-9.622-4.463l-3.845 1.408c-2.374-6.682-5.306-13.146-8.766-19.332l4.595-3.199c3.399-2.367 4.236-7.042 1.87-10.441-2.367-3.398-7.041-4.237-10.44-1.87l-4.113 2.864c-4.404-6.052-9.373-11.738-14.859-16.993 18.941-14.068 42.381-22.402 67.734-22.402 25.351 0 48.791 8.333 67.731 22.4-5.486 5.256-10.454 10.942-14.857 16.994l-4.112-2.863c-3.399-2.367-8.072-1.528-10.44 1.87-2.366 3.399-1.529 8.074 1.87 10.441l4.595 3.199c-3.46 6.186-6.391 12.651-8.765 19.333l-3.847-1.409c-3.892-1.425-8.197.575-9.622 4.463-1.424 3.89.574 8.198 4.464 9.622l4.817 1.764c-1.514 6.702-2.486 13.562-2.895 20.521h-3.395c-4.143 0-7.5 3.358-7.5 7.5s3.357 7.5 7.5 7.5h3.395c.408 6.959 1.381 13.818 2.895 20.521l-4.817 1.764c-3.89 1.424-5.888 5.732-4.464 9.622 1.113 3.039 3.985 4.923 7.044 4.923.856 0 1.728-.147 2.578-.459l3.847-1.409c2.374 6.682 5.305 13.147 8.765 19.333l-4.594 3.199c-3.399 2.367-4.236 7.042-1.87 10.441 1.458 2.093 3.79 3.215 6.162 3.215 1.479 0 2.973-.437 4.278-1.345l4.111-2.862c4.403 6.052 9.371 11.739 14.857 16.994-18.942 14.066-42.381 22.399-67.732 22.399zm79.218-32.17c-5.206-4.854-9.897-10.145-14.031-15.797l1.726-1.201c3.399-2.367 4.236-7.042 1.87-10.441-2.367-3.398-7.041-4.237-10.44-1.87l-1.181.822c-2.762-5.098-5.116-10.406-7.052-15.876l2.833-1.037c3.89-1.424 5.888-5.732 4.464-9.622-1.425-3.89-5.732-5.887-9.622-4.463l-1.723.631c-1.042-5.019-1.743-10.132-2.089-15.311h3.677c4.143 0 7.5-3.358 7.5-7.5s-3.357-7.5-7.5-7.5h-3.677c.345-5.178 1.046-10.292 2.089-15.311l1.723.631c.852.312 1.722.459 2.578.459 3.059 0 5.931-1.885 7.044-4.923 1.424-3.89-.574-8.198-4.464-9.622l-2.833-1.037c1.936-5.47 4.289-10.778 7.052-15.875l1.181.822c1.306.909 2.8 1.345 4.278 1.345 2.371 0 4.704-1.122 6.162-3.215 2.366-3.399 1.529-8.074-1.87-10.441l-1.725-1.201c4.134-5.652 8.825-10.942 14.031-15.796 21.335 20.702 34.616 49.659 34.616 81.664 0 32.006-13.282 60.963-34.617 81.665zm94.977 32.081c-8.348-4.868-33.65-20.711-62.756-49.156 2.912-5.004 5.492-10.222 7.72-15.622l132.886-.028c-34.711 37.951-67.029 58.492-77.85 64.806zm99.519-90.598c-2.746 3.566-5.545 7.06-8.408 10.536-.07.085-.141.167-.211.252l-140.813.03c2.962-10.826 4.553-22.213 4.553-33.966 0-2.779-.099-5.536-.273-8.272l166.229-.036c-6.188 10.745-13.218 21.252-21.077 31.456zm-146.99-46.419c-5.319-29.035-20.875-55.708-43.328-74.823-15.751-13.41-34.749-23.115-55.645-27.721-.003-.45-.011-.9-.011-1.351-.008-36.151 7.434-71.444 21.544-103.921l55.822-.013c4.142-.001 7.499-3.359 7.498-7.501s-3.358-7.499-7.502-7.499h-.031c-16.153.004-32.608-.884-48.702.052 3.072-6.595 6.632-12.37 10.484-18.563 4.721-7.592 9.439-14.387 14.884-21.46.581-.754 1.155-1.55 1.745-2.299h181.545c.084.102.168.2.252.302 1.176 1.427 2.335 2.857 3.485 4.286 1.63 2.031 3.26 4.087 4.885 6.196 6.689 8.678 12.667 17.382 18.333 26.768.938 1.554 1.856 3.114 2.759 4.679l-154.215.033c-4.142.001-7.499 3.359-7.498 7.501s3.359 7.5 7.502 7.499l162.225-.035c16.435 33.267 24.979 68.479 24.987 103.911s-8.521 70.648-24.942 103.921z"/></g></g></svg>