<svg id="Capa_1" enable-background="new 0 0 512.044 512.044" height="512" viewBox="0 0 512.044 512.044" width="512" xmlns="http://www.w3.org/2000/svg"><g><g><g><path d="m497.629 351.984h-409.417c-3.819 0-6.915-3.096-6.915-6.915v-178.094c0-3.819 3.096-6.915 6.915-6.915h409.417c3.819 0 6.915 3.096 6.915 6.915v178.094c0 3.819-3.096 6.915-6.915 6.915z" fill="#f2fbff"/></g><g><path d="m504.542 166.972v178.1c0 3.82-3.09 6.91-6.91 6.91h-20c3.82 0 6.91-3.09 6.91-6.91v-178.1c0-3.82-3.09-6.91-6.91-6.91h20c3.82 0 6.91 3.09 6.91 6.91z" fill="#dff6fd"/></g><g><path d="m43.308 189.837h37.99v132.369h-37.99z" fill="#8d9ca8"/></g><g><path d="m62.303 189.837h18.995v132.369h-18.995z" fill="#7a8c98"/></g><g><path d="m39.607 447.109h-28.406c-2.044 0-3.701-1.657-3.701-3.701v-374.772c0-2.044 1.657-3.701 3.701-3.701h28.405c2.044 0 3.701 1.657 3.701 3.701v374.772c.001 2.044-1.656 3.701-3.7 3.701z" fill="#c5d3dd"/></g><g><path d="m43.312 68.632v374.78c0 2.04-1.66 3.7-3.71 3.7h-17.9c2.04 0 3.7-1.66 3.7-3.7v-374.78c0-2.04-1.66-3.7-3.7-3.7h17.9c2.05 0 3.71 1.66 3.71 3.7z" fill="#b6c4cf"/></g></g><g><path d="m497.629 152.561h-103.111c-4.142 0-7.5 3.358-7.5 7.5s3.358 7.5 7.5 7.5h102.526v176.923h-408.247v-176.923h270.892c4.142 0 7.5-3.358 7.5-7.5s-3.358-7.5-7.5-7.5h-271.477c-7.949 0-14.415 6.466-14.415 14.415v15.362h-22.989v-113.702c0-6.176-5.025-11.201-11.201-11.201h-28.406c-6.176 0-11.201 5.025-11.201 11.201v374.771c0 6.176 5.025 11.201 11.201 11.201h28.406c6.176 0 11.201-5.025 11.201-11.201v-36.296c0-4.142-3.358-7.5-7.5-7.5s-7.5 3.358-7.5 7.5v32.498h-20.808v-367.174h20.808v299.497c0 4.142 3.358 7.5 7.5 7.5s7.5-3.358 7.5-7.5v-42.226h22.989v15.362c0 7.948 6.466 14.415 14.415 14.415h409.417c7.948 0 14.415-6.466 14.415-14.415v-178.093c0-7.948-6.466-14.414-14.415-14.414zm-423.832 162.146h-22.989v-117.37h22.989z"/><circle cx="118.909" cy="193.554" r="10"/><circle cx="466.933" cy="193.554" r="10"/><circle cx="118.909" cy="318.49" r="10"/><circle cx="466.933" cy="318.49" r="10"/><path d="m289.895 208.789c-1.487-3.615-4.971-5.95-8.88-5.95-.003 0-.006 0-.009 0-3.912.004-7.397 2.346-8.878 5.967-.023.056-.045.113-.067.17l-34.823 91.432c-1.474 3.871.468 8.204 4.339 9.678.879.335 1.781.493 2.668.493 3.022 0 5.871-1.84 7.01-4.833l6.833-17.941h45.597l6.763 17.919c1.462 3.875 5.789 5.833 9.665 4.369 3.875-1.462 5.832-5.79 4.369-9.665l-34.506-91.436c-.027-.068-.054-.136-.081-.203zm-26.094 64.016 17.19-45.135 17.033 45.135z"/><path d="m165.612 201.467c-4.142 0-7.5 3.358-7.5 7.5v92.66c0 3.653 2.632 6.774 6.232 7.392.529.091 1.104.189 11.242.189 4.91 0 12.064-.023 22.541-.082 4.142-.023 7.481-3.4 7.458-7.542-.023-4.128-3.376-7.458-7.499-7.458-.014 0-.029 0-.043 0-7.412.042-17.993.077-24.932.078v-85.238c.001-4.141-3.357-7.499-7.499-7.499z"/><path d="m390.563 201.467h-26.938c-4.142 0-7.5 3.358-7.5 7.5v92.738c0 1.995.795 3.908 2.208 5.315 1.406 1.4 3.309 2.185 5.292 2.185h.033c.248-.001 24.867-.11 31.609-.11 17.899 0 32.462-14.563 32.462-32.462 0-11.606-6.126-21.803-15.31-27.543 4.347-5.05 6.983-11.613 6.983-18.783 0-15.902-12.937-28.84-28.839-28.84zm-19.438 15h19.438c7.631 0 13.839 6.208 13.839 13.839s-6.208 13.839-13.839 13.839c-1.977 0-5.696.011-9.754.025h-9.684zm41.604 60.166c0 9.628-7.833 17.462-17.462 17.462-4.382 0-16.243.046-24.143.078v-34.965c2.979-.012 6.467-.026 9.738-.037h14.404c9.63-.001 17.463 7.833 17.463 17.462z"/></g></g></svg>