<svg id="Capa_1" enable-background="new 0 0 512 512" height="512" viewBox="0 0 512 512" width="512" xmlns="http://www.w3.org/2000/svg"><g><g><path d="m135.19 126.197v191.789c0 48.175 39.054 87.229 87.229 87.229h48.33c48.175 0 87.229-39.054 87.229-87.229v-191.789z" fill="#dc8758"/></g><g><path d="m357.982 126.197v191.793c0 48.17-39.054 87.224-87.234 87.224h-19.662c48.17 0 87.224-39.053 87.224-87.224v-191.793z" fill="#d77f4a"/></g><g><path d="m359.952 504.511h-226.735v-71.858c0-62.611 50.756-113.368 113.368-113.368 62.611 0 113.368 50.756 113.368 113.368v71.858z" fill="#b0e7c9"/></g><g><path d="m359.95 432.654v71.856h-19.662v-71.856c0-31.305-12.692-59.644-33.202-80.164-18.343-18.334-42.948-30.426-70.328-32.773 3.235-.29 6.511-.429 9.826-.429 31.305 0 59.644 12.692 80.164 33.202 20.51 20.52 33.202 48.859 33.202 80.164z" fill="#91deb6"/></g><g><path d="m359.957 432.648v71.861h-226.745v-71.861c0-30.386 11.958-57.979 31.423-78.339l65.922 38.515c9.907 5.783 22.149 5.783 32.055 0l65.922-38.515c19.465 20.36 31.423 47.953 31.423 78.339z" fill="#8d9ca8"/></g><g><path d="m359.95 432.654v71.856h-19.662v-71.856c0-26.751-9.267-51.346-24.774-70.738l13.011-7.599c.609.629 1.208 1.268 1.807 1.917 4.33 4.692 8.334 9.935 11.754 15.319 2.772 4.364 6.25 9.835 7.979 14.739.27.599.539 1.198.789 1.808 4.454 9.246 6.904 19.975 8.188 30.115.598 4.733.908 9.546.908 14.439z" fill="#7a8c98"/></g><g><path d="m246.584 343.869c-10.862 0-19.667-8.805-19.667-19.667v-29.501h39.334v29.501c.001 10.862-8.805 19.667-19.667 19.667z" fill="#fed2a4"/></g><g><path d="m266.255 294.704v29.497c0 10.864-8.807 19.672-19.672 19.672-3.585 0-6.94-.959-9.826-2.636 5.872-3.405 9.826-9.756 9.826-17.035v-29.497h19.672z" fill="#ffbd86"/></g><g><path d="m157.614 144.405v67.869c0 49.137 39.833 88.97 88.97 88.97 49.137 0 88.97-39.833 88.97-88.97v-67.869l-88.97-26.87z" fill="#fed2a4"/></g><g><path d="m335.555 144.401v67.872c0 24.575-9.956 46.812-26.062 62.909-16.097 16.107-38.335 26.062-62.909 26.062-3.415 0-6.78-.19-10.096-.579 20.53-2.307 38.934-11.613 52.804-25.483 16.097-16.097 26.052-38.335 26.052-62.909v-73.973z" fill="#ffbd86"/></g><g><path d="m343.081 214.261h-7.526v-40.194h7.526c11.099 0 20.097 8.998 20.097 20.097 0 11.099-8.998 20.097-20.097 20.097z" fill="#fed2a4"/></g><g><path d="m150.088 214.261h7.526v-40.194h-7.526c-11.099 0-20.097 8.998-20.097 20.097 0 11.099 8.998 20.097 20.097 20.097z" fill="#fed2a4"/></g><g><path d="m246.584 59.926h-111.394v94.788l111.394-19.433 111.395 19.433v-94.788z" fill="#8d9ca8"/></g><g><path d="m357.982 59.923v94.793l-19.971-3.485v-91.308z" fill="#7a8c98"/></g><g><path d="m404.931 49.409-148.235-40.562c-6.62-1.811-13.604-1.811-20.224 0l-148.234 40.562c-3.717 1.017-3.721 6.287-.007 7.311l148.174 40.834c6.662 1.836 13.696 1.836 20.358 0l148.174-40.834c3.715-1.025 3.711-6.294-.006-7.311z" fill="#596c76"/></g><g><path d="m404.935 56.718-148.176 40.831c-6.66 1.837-13.69 1.837-20.351 0l-13.431-3.705 134.745-37.126c3.715-1.019 3.705-6.291-.01-7.309l-134.734-36.867 13.491-3.695c6.621-1.807 13.61-1.807 20.231 0l148.236 40.561c3.713 1.019 3.713 6.291-.001 7.31z" fill="#465a61"/></g><g><circle cx="407.721" cy="179.406" fill="#8d9ca8" r="18.831"/></g><g><path d="m426.553 179.41c0 10.395-8.428 18.823-18.833 18.823-7.09 0-13.271-3.924-16.476-9.716.679.08 1.378.12 2.077.12 10.395 0 18.833-8.428 18.833-18.833 0-3.295-.849-6.411-2.357-9.107 9.427 1.029 16.756 9.007 16.756 18.713z" fill="#7a8c98"/></g><g><path d="m211.039 178.309c-4.136 0-7.489 3.353-7.489 7.489v16.732c0 4.136 3.353 7.489 7.489 7.489s7.489-3.353 7.489-7.489v-16.732c0-4.136-3.353-7.489-7.489-7.489z"/><path d="m282.13 178.309c-4.136 0-7.489 3.353-7.489 7.489v16.732c0 4.136 3.353 7.489 7.489 7.489s7.489-3.353 7.489-7.489v-16.732c0-4.136-3.353-7.489-7.489-7.489z"/><path d="m267.209 230.815c-3.637-1.975-8.182-.629-10.156 3.004-2.081 3.83-6.078 6.209-10.429 6.209-4.395 0-8.409-2.413-10.477-6.297-1.943-3.651-6.479-5.035-10.13-3.091-3.651 1.943-5.035 6.479-3.091 10.13 4.675 8.782 13.756 14.237 23.698 14.237 9.847 0 18.886-5.378 23.59-14.036 1.974-3.634.629-8.182-3.005-10.156z"/><path d="m415.21 154.177v-102.294c0-1.696-.57-3.255-1.52-4.51-1.44-2.485-3.817-4.376-6.782-5.187l-148.235-40.563c-7.909-2.165-16.269-2.164-24.177 0l-148.235 40.562c-4.961 1.357-8.298 5.726-8.302 10.869-.005 5.144 3.324 9.518 8.283 10.885l41.459 11.425v102.71c-3.267 4.533-5.199 10.088-5.199 16.089s1.932 11.557 5.199 16.089v107.732c0 19.187 5.748 37.048 15.594 51.982-11.141 18.288-17.567 39.749-17.567 62.685v71.858c0 4.136 3.353 7.489 7.489 7.489h226.736c4.136 0 7.489-3.353 7.489-7.489v-22.899c0-4.136-3.353-7.489-7.489-7.489s-7.489 3.353-7.489 7.489v15.41h-36.029v-44.24c0-4.136-3.353-7.489-7.489-7.489s-7.489 3.353-7.489 7.489v44.24h-109.743v-44.24c0-4.136-3.353-7.489-7.489-7.489s-7.489 3.353-7.489 7.489v44.24h-36.029v-64.369c0-26.236 9.598-50.264 25.461-68.774l60.614 35.414c6.107 3.565 12.954 5.348 19.802 5.348 6.849 0 13.698-1.783 19.806-5.349l60.61-35.41c15.864 18.51 25.463 42.537 25.463 68.773v14.303c0 4.136 3.353 7.489 7.489 7.489s7.489-3.353 7.489-7.489v-14.303c0-22.937-6.426-44.399-17.569-62.687 9.845-14.934 15.595-32.794 15.595-51.98v-107.733c3.267-4.533 5.199-10.088 5.199-16.089s-1.932-11.557-5.199-16.089v-102.71l34.764-9.58v88.393c-10.875 3.234-18.831 13.317-18.831 25.229 0 14.513 11.807 26.32 26.32 26.32s26.32-11.807 26.32-26.32c.001-11.912-7.955-21.995-18.83-25.23zm-277.73 39.987c0-6.952 5.656-12.608 12.608-12.608l.037 25.215h-.037c-6.952.001-12.608-5.655-12.608-12.607zm5.199-26.567v-6.587l7.446-1.299v6.867h-.037c-2.567 0-5.05.36-7.409 1.019zm10.028 189.029c-6.377-11.455-10.028-24.625-10.028-38.64v-97.254c2.359.659 4.842 1.019 7.409 1.019h.503c3.876 39.563 31.753 72.19 68.837 83.088v10.04c-26.681 6.149-50.013 21.157-66.721 41.747zm93.877-62.871c-44.929 0-81.481-36.552-81.481-81.481v-55.176l81.481-14.215 81.481 14.215v55.176c.001 44.929-36.551 81.481-81.481 81.481zm12.179 14.188v16.259c0 6.715-5.463 12.178-12.178 12.178s-12.178-5.463-12.178-12.178v-16.259c3.992.505 8.051.79 12.178.79s8.186-.284 12.178-.79zm.074 78.414c-7.557 4.412-16.946 4.411-24.502.001l-57.265-33.456c12.212-10.651 26.87-18.567 43.024-22.745 2.723 12.118 13.563 21.202 26.491 21.202 12.927 0 23.766-9.082 26.49-21.199 16.153 4.178 30.811 12.093 43.023 22.743zm91.653-68.371c0 14.015-3.654 27.183-10.033 38.637-16.708-20.587-40.037-35.594-66.716-41.743v-10.041c37.084-10.898 64.961-43.525 68.837-83.088h.502c2.567 0 5.05-.36 7.409-1.019v97.254zm-7.409-111.214h-.037v-25.215h.037c6.952 0 12.608 5.656 12.608 12.608s-5.656 12.607-12.608 12.607zm-.037-40.194v-6.867l7.446 1.299v6.587c-2.359-.659-4.842-1.019-7.409-1.019zm-88.27-76.245c-5.357 1.476-11.021 1.477-16.379 0l-45.439-12.522c-3.987-1.098-8.111 1.243-9.21 5.23s1.243 8.111 5.23 9.21l45.439 12.522c3.981 1.097 8.075 1.645 12.169 1.645s8.188-.548 12.169-1.645l91.736-25.281v66.313l-102.618-17.902c-.793-.139-1.865-.124-2.575 0-.317.055-102.617 17.902-102.617 17.902v-66.312l12.945 3.568c3.987 1.099 8.111-1.243 9.21-5.23s-1.243-8.111-5.23-9.21l-56.398-15.542 135.243-37.009c5.323-1.455 10.949-1.455 16.271 0l103.507 28.323h-108.971c-4.136 0-7.489 3.353-7.489 7.489s3.353 7.489 7.489 7.489h117.868zm152.947 100.415c-6.254 0-11.342-5.088-11.342-11.342s5.088-11.342 11.342-11.342 11.342 5.088 11.342 11.342-5.088 11.342-11.342 11.342z"/></g></g></svg>