<svg id="Capa_1" enable-background="new 0 0 512.213 512.213" height="512" viewBox="0 0 512.213 512.213" width="512" xmlns="http://www.w3.org/2000/svg"><g><g><path d="m161.973 468.413h282.825c5.204 0 9.422-4.219 9.422-9.422v-442.069c0-5.204-4.219-9.422-9.422-9.422h-282.825z" fill="#e5e1e5"/></g><g><path d="m454.216 16.927v442.059c0 5.21-4.21 9.43-9.42 9.43h-20.46c5.2 0 9.42-4.22 9.42-9.43v-442.059c0-5.21-4.22-9.43-9.42-9.43h20.46c5.21 0 9.42 4.22 9.42 9.43z" fill="#d7d0d6"/></g><g><path d="m67.415 504.713h273.402c5.204 0 9.422-4.219 9.422-9.422v-451.491h-282.824c-5.204 0-9.422 4.219-9.422 9.422v442.068c0 5.204 4.218 9.423 9.422 9.423z" fill="#f9f7f8"/></g><g><path d="m350.236 43.797v451.489c0 5.21-4.22 9.43-9.42 9.43h-20.46c5.2 0 9.42-4.22 9.42-9.43v-451.489z" fill="#efedef"/></g><g><path d="m350.24 43.8-188.267-36.3v36.3z" fill="#c9bfc8"/></g><g><path d="m149.176 242.783h-48.601v-70.461c0-3.954 3.205-7.159 7.159-7.159h41.441v77.62z" fill="#e5e1e5"/></g><g><path d="m129.177 165.167h20v77.62h-20z" fill="#d7d0d6"/></g><g><path d="m199.257 93.699-46.704 34.129c-2.122 1.551-3.377 4.022-3.377 6.65v108.304h54.94 54.94v-108.303c0-2.629-1.255-5.099-3.377-6.65l-46.704-34.129c-2.894-2.116-6.824-2.116-9.718-.001z" fill="#e5e1e5"/></g><g><path d="m259.056 134.477v108.31h-20v-100.75c0-2.63-1.25-5.1-3.38-6.65l-46.7-34.13c-.01-.01-.02-.01-.03-.02l10.31-7.54c2.89-2.11 6.82-2.11 9.72 0l46.7 34.13c2.13 1.55 3.38 4.02 3.38 6.65z" fill="#d7d0d6"/></g><g><path d="m259.056 242.783h48.601v-70.461c0-3.954-3.205-7.159-7.159-7.159h-41.441v77.62z" fill="#e5e1e5"/></g><g><path d="m307.656 172.317v70.47h-19.2v-70.47c0-3.95-3.2-7.15-7.16-7.15h19.2c3.96 0 7.16 3.2 7.16 7.15z" fill="#d7d0d6"/></g><g><path d="m223.662 242.783h-39.092v-65.846c0-10.795 8.751-19.546 19.546-19.546 10.795 0 19.546 8.751 19.546 19.546z" fill="#f9f7f8"/></g><g><path d="m223.667 176.937v65.85h-19.55v-65.85c0-5.4-2.19-10.29-5.73-13.83-1.2-1.2-2.56-2.25-4.04-3.1 2.87-1.67 6.21-2.62 9.77-2.62 5.39 0 10.28 2.19 13.82 5.72 3.54 3.54 5.73 8.429 5.73 13.83z" fill="#efedef"/></g><g><path d="m340.817 504.713h-273.402c-5.204 0-9.422-4.219-9.422-9.422v-206.161h292.247v206.16c0 5.204-4.219 9.423-9.423 9.423z" fill="#e5caf3"/></g><g><path d="m350.236 289.126v206.16c0 5.21-4.22 9.43-9.42 9.43h-20.46c5.2 0 9.42-4.22 9.42-9.43v-206.16z" fill="#d9b1ee"/></g><g><path d="m340.817 504.713h-273.402c-5.204 0-9.422-4.219-9.422-9.422v-52.401h292.247v52.401c0 5.203-4.219 9.422-9.423 9.422z" fill="#fedba6"/></g><g><path d="m350.236 442.886v52.4c0 5.21-4.22 9.43-9.42 9.43h-20.46c5.2 0 9.42-4.22 9.42-9.43v-52.4z" fill="#fece85"/></g><g><path d="m395.935 420.752h-45.695v-186.987h45.695c2.864 0 5.185 2.321 5.185 5.185v176.617c-.001 2.864-2.322 5.185-5.185 5.185z" fill="#f2fbff"/></g><g><path d="m401.116 238.947v176.62c0 2.86-2.32 5.19-5.18 5.19h-20.98c2.86 0 5.18-2.33 5.18-5.19v-176.62c0-2.86-2.32-5.18-5.18-5.18h20.98c2.86-.001 5.18 2.319 5.18 5.18z" fill="#dff6fd"/></g><g><path d="m401.12 47.661h-21.98c-4.143 0-7.5 3.358-7.5 7.5s3.357 7.5 7.5 7.5h21.98c4.143 0 7.5-3.358 7.5-7.5s-3.358-7.5-7.5-7.5z"/><path d="m401.12 82.124h-21.98c-4.143 0-7.5 3.358-7.5 7.5s3.357 7.5 7.5 7.5h21.98c4.143 0 7.5-3.358 7.5-7.5s-3.358-7.5-7.5-7.5z"/><path d="m401.12 116.587h-21.98c-4.143 0-7.5 3.358-7.5 7.5s3.357 7.5 7.5 7.5h21.98c4.143 0 7.5-3.358 7.5-7.5s-3.358-7.5-7.5-7.5z"/><path d="m401.12 151.05h-21.98c-4.143 0-7.5 3.358-7.5 7.5s3.357 7.5 7.5 7.5h21.98c4.143 0 7.5-3.358 7.5-7.5s-3.358-7.5-7.5-7.5z"/><path d="m401.12 185.513h-21.98c-4.143 0-7.5 3.358-7.5 7.5s3.357 7.5 7.5 7.5h21.98c4.143 0 7.5-3.358 7.5-7.5s-3.358-7.5-7.5-7.5z"/><path d="m93.446 336.01h221.341c4.143 0 7.5-3.358 7.5-7.5s-3.357-7.5-7.5-7.5h-221.341c-4.142 0-7.5 3.358-7.5 7.5s3.358 7.5 7.5 7.5z"/><path d="m314.787 358.51h-60.169c-4.142 0-7.5 3.358-7.5 7.5s3.358 7.5 7.5 7.5h60.169c4.143 0 7.5-3.358 7.5-7.5s-3.357-7.5-7.5-7.5z"/><path d="m93.446 373.51h126.164c4.142 0 7.5-3.358 7.5-7.5s-3.358-7.5-7.5-7.5h-126.164c-4.142 0-7.5 3.358-7.5 7.5s3.358 7.5 7.5 7.5z"/><path d="m254.618 396.009h-101.004c-4.142 0-7.5 3.358-7.5 7.5s3.358 7.5 7.5 7.5h101.004c4.143 0 7.5-3.358 7.5-7.5s-3.357-7.5-7.5-7.5z"/><path d="m141.676 134.479v23.184h-33.941c-8.083 0-14.659 6.576-14.659 14.659v70.461c0 4.142 3.358 7.5 7.5 7.5h207.082c4.143 0 7.5-3.358 7.5-7.5v-70.461c0-8.083-6.576-14.659-14.659-14.659h-33.941v-23.184c0-5.003-2.412-9.753-6.452-12.706l-46.703-34.13c-5.554-4.058-13.017-4.058-18.57 0l-46.703 34.13c-4.042 2.953-6.454 7.702-6.454 12.706zm0 100.804h-33.601v-62.62h33.601zm124.881-62.621h33.601v62.62h-33.601zm-50.395 62.621h-24.092v-58.347c0-6.642 5.404-12.046 12.046-12.046s12.046 5.404 12.046 12.046zm-59.486-70.121v-30.684c0-.234.113-.456.302-.595l46.704-34.129c.26-.19.609-.19.869 0l46.703 34.13c.189.139.302.361.302.595v30.684 70.12h-20.394v-58.347c0-14.913-12.133-27.046-27.046-27.046s-27.046 12.133-27.046 27.046v58.347h-20.395v-70.121z"/><path d="m454.22 94.945c4.142 0 7.5-3.358 7.5-7.5v-70.523c0-9.331-7.591-16.922-16.923-16.922h-282.824c-.037 0-.073.005-.11.006-3.715.055-6.951 3.007-7.345 6.687-.028.266-.045.534-.045.808v28.8h-87.058c-9.331 0-16.923 7.591-16.923 16.922v442.068c0 9.331 7.592 16.922 16.923 16.922h273.402c9.331 0 16.923-7.591 16.923-16.922v-19.378h87.057c9.331 0 16.923-7.591 16.923-16.922v-336.57c0-4.142-3.357-7.5-7.5-7.5s-7.5 3.358-7.5 7.5v336.57c0 1.06-.862 1.922-1.923 1.922h-87.057v-32.661h38.194c6.995 0 12.686-5.69 12.686-12.685v-176.617c0-6.994-5.69-12.685-12.686-12.685h-38.194v-182.462c.002-.923-.207-1.965-.548-2.811-.937-2.319-3.057-4.059-5.503-4.549-.01-.002-.019-.005-.029-.007l-111.175-21.436h204.313c1.061 0 1.923.862 1.923 1.922v70.523c-.001 4.142 3.357 7.5 7.499 7.5zm-96.48 146.32h35.88v171.987h-35.88zm-15 179.487v14.637h-202.791c-4.142 0-7.5 3.358-7.5 7.5s3.358 7.5 7.5 7.5h202.791v44.901c0 1.06-.862 1.922-1.923 1.922h-273.402c-1.06 0-1.923-.862-1.923-1.922v-44.901h39.322c4.142 0 7.5-3.358 7.5-7.5s-3.358-7.5-7.5-7.5h-39.321v-138.759h277.247zm0-186.987v47.865h-277.247v-228.407c0-1.06.863-1.922 1.923-1.922h94.558 180.766zm-71.013-197.465h-102.254v-19.716z"/></g></g></svg>