<svg id="Capa_1" enable-background="new 0 0 512 512" height="512" viewBox="0 0 512 512" width="512" xmlns="http://www.w3.org/2000/svg"><g><g><circle cx="256" cy="256" fill="#b0e7c9" r="248.499"/></g><g><path d="m504.495 256c0 137.24-111.255 248.495-248.495 248.495-43.5 0-84.389-11.182-119.947-30.827 31.057 13.963 65.504 21.735 101.762 21.735 137.24 0 248.495-111.255 248.495-248.495 0-93.741-51.902-175.359-128.548-217.668 86.5 38.868 146.733 125.778 146.733 226.76z" fill="#91deb6"/></g><g><circle cx="256" cy="256" fill="#f9f7f8" r="203.865"/></g><g><path d="m459.865 256c0 112.595-91.27 203.865-203.865 203.865-27.026 0-52.832-5.261-76.427-14.813 17.524 4.911 36.008 7.542 55.112 7.542 112.595 0 203.865-91.28 203.865-203.865 0-85.559-52.692-158.805-127.398-189.042 85.799 24.045 148.713 102.832 148.713 196.313z" fill="#efedef"/></g><g><path d="m271.524 267.083c2.434-3.084 3.98-7.372 3.98-11.088 0-.101 0-112.343 0-112.343 0-9.667-7.837-17.504-17.504-17.504s-17.504 7.837-17.504 17.504v105.097l-48.684 48.684c-6.835 6.836-6.835 17.919 0 24.755 3.418 3.418 7.898 5.127 12.377 5.127s8.959-1.709 12.377-5.127l53.808-53.809c.402-.401.786-.835 1.15-1.296z" fill="#c5d3dd"/></g><g><path d="m275.504 143.655v112.335c0 3.721-1.55 8.012-3.981 11.092-.36.46-.75.9-1.15 1.3l-53.802 53.802c-3.421 3.421-7.902 5.131-12.383 5.131s-8.962-1.71-12.373-5.131c-.89-.89-1.66-1.85-2.311-2.861 4.161-.14 8.282-1.81 11.462-4.991l52.572-52.572c.39-.39.76-.81 1.12-1.26 2.381-3.021 3.891-7.212 3.891-10.832 0-.1 0-109.764 0-109.764 0-5.161-2.28-9.782-5.901-12.913 1.69-.55 3.481-.84 5.351-.84 9.674 0 17.505 7.832 17.505 17.504z" fill="#b6c4cf"/></g><g><g><circle cx="255.999" cy="255.999" fill="#8d9ca8" r="32.546"/></g><g><path d="m288.547 255.999c0 17.971-14.577 32.548-32.548 32.548-9.755 0-18.512-4.299-24.481-11.098 2.574.662 5.279 1.007 8.058 1.007 17.971 0 32.539-14.567 32.539-32.548 0-8.226-3.05-15.733-8.076-21.459 14.082 3.581 24.508 16.358 24.508 31.55z" fill="#7a8c98"/></g><g><path d="m437.02 74.98c-48.353-48.352-112.64-74.98-181.02-74.98-50.333 0-99.046 14.597-140.874 42.213-3.457 2.283-4.409 6.936-2.126 10.393 2.284 3.458 6.937 4.41 10.394 2.127 39.366-25.991 85.221-39.73 132.606-39.73 64.373 0 124.892 25.068 170.411 70.586 45.518 45.518 70.586 106.038 70.586 170.41s-25.068 124.892-70.586 170.41c-45.519 45.52-106.038 70.588-170.411 70.588s-124.892-25.068-170.411-70.587c-45.518-45.518-70.586-106.037-70.586-170.41 0-68.94 29.621-134.717 81.268-180.465 3.101-2.747 3.388-7.488.642-10.59-2.747-3.102-7.489-3.388-10.589-.641-54.86 48.594-86.324 118.464-86.324 191.696 0 68.38 26.629 132.668 74.98 181.02 48.353 48.352 112.64 74.98 181.02 74.98s132.667-26.628 181.02-74.98c48.351-48.352 74.98-112.64 74.98-181.02s-26.629-132.668-74.98-181.02z"/><path d="m369.345 416.369c-3.382 2.394-4.182 7.076-1.788 10.457s7.077 4.183 10.457 1.787c55.949-39.618 89.352-104.146 89.352-172.613 0-116.548-94.819-211.367-211.367-211.367s-211.366 94.819-211.366 211.367 94.819 211.367 211.367 211.367c31.778 0 62.329-6.879 90.807-20.447 3.74-1.782 5.328-6.259 3.546-9.999s-6.259-5.326-9.998-3.546c-26.446 12.6-54.828 18.989-84.355 18.989-108.275 0-196.364-88.088-196.364-196.364s88.089-196.364 196.364-196.364 196.364 88.089 196.364 196.364c0 63.608-31.035 123.559-83.019 160.369z"/><path d="m263.502 91.711v-11.41c0-4.143-3.358-7.502-7.502-7.502s-7.502 3.359-7.502 7.502v11.409c0 4.143 3.358 7.502 7.502 7.502s7.502-3.358 7.502-7.501z"/><path d="m248.498 420.289v11.409c0 4.143 3.358 7.502 7.502 7.502s7.502-3.359 7.502-7.502v-11.409c0-4.143-3.358-7.502-7.502-7.502s-7.502 3.359-7.502 7.502z"/><path d="m431.698 263.502c4.144 0 7.502-3.359 7.502-7.502s-3.358-7.502-7.502-7.502h-11.409c-4.144 0-7.502 3.359-7.502 7.502s3.358 7.502 7.502 7.502z"/><path d="m80.302 248.498c-4.144 0-7.502 3.359-7.502 7.502s3.358 7.502 7.502 7.502h11.409c4.144 0 7.502-3.359 7.502-7.502s-3.358-7.502-7.502-7.502z"/><path d="m296.047 255.999c0-11.685-5.032-22.215-13.041-29.542v-82.804c0-13.788-11.217-25.006-25.005-25.006s-25.006 11.217-25.006 25.006v79.595c-10.297 7.254-17.044 19.226-17.044 32.752 0 2.11.167 4.182.483 6.204l-29.927 29.926c-9.748 9.75-9.748 25.614 0 35.363 4.724 4.723 11.002 7.324 17.683 7.324 6.679 0 12.958-2.601 17.682-7.324l31.539-31.539c.857.055 1.719.093 2.589.093 22.081 0 40.047-17.965 40.047-40.048zm-48.049-112.347c0-5.515 4.487-10.002 10.002-10.002s10.002 4.487 10.002 10.002v74.139c-3.791-1.194-7.823-1.84-12.004-1.84-2.739 0-5.415.278-8.001.804v-73.103zm-36.736 173.232c-1.889 1.889-4.4 2.929-7.072 2.929s-5.184-1.04-7.073-2.929c-3.9-3.9-3.9-10.246 0-14.146l25.167-25.167c3.651 5.687 8.692 10.401 14.65 13.64zm44.737-35.84c-13.81 0-25.045-11.235-25.045-25.045s11.235-25.045 25.045-25.045 25.045 11.235 25.045 25.045-11.235 25.045-25.045 25.045z"/></g></g></g></svg>