<svg id="Capa_1" enable-background="new 0 0 512 512" height="512" viewBox="0 0 512 512" width="512" xmlns="http://www.w3.org/2000/svg"><g><g><path d="m374.213 484.477h-236.426c-2.01 0-3.639-1.629-3.639-3.639v-18.922c0-8.419 6.825-15.244 15.244-15.244h213.217c8.419 0 15.244 6.825 15.244 15.244v18.922c-.001 2.01-1.63 3.639-3.64 3.639z" fill="#c5d3dd"/></g><g><path d="m377.85 461.912v18.928c0 2.01-1.629 3.639-3.639 3.639h-16.376v-22.567c0-8.416-6.825-15.241-15.241-15.241h20.015c8.417 0 15.241 6.824 15.241 15.241z" fill="#b6c4cf"/></g><g><path d="m193.003 377.603h125.993v69.069h-125.993z" fill="#8d9ca8"/></g><g><path d="m298.982 377.603h20.015v69.069h-20.015z" fill="#7a8c98"/></g><g><path d="m482.457 377.603h-452.914c-12.171 0-22.037-9.866-22.037-22.037v-306.006c0-12.171 9.866-22.037 22.037-22.037h452.915c12.171 0 22.037 9.866 22.037 22.037v306.006c-.001 12.17-9.867 22.037-22.038 22.037z" fill="#596c76"/></g><g><path d="m504.494 49.557v306.006c0 12.169-9.867 22.036-22.036 22.036h-21.336c12.169 0 22.036-9.867 22.036-22.036v-306.006c0-12.169-9.867-22.036-22.036-22.036h21.336c12.169 0 22.036 9.867 22.036 22.036z" fill="#465a61"/></g><g><path d="m482.457 377.603h-452.914c-12.171 0-22.037-9.866-22.037-22.037v-27.089h496.989v27.089c-.001 12.17-9.867 22.037-22.038 22.037z" fill="#c5d3dd"/></g><g><path d="m504.494 328.474v27.09c0 12.169-9.867 22.036-22.036 22.036h-21.336c12.169 0 22.036-9.867 22.036-22.036v-27.09z" fill="#b6c4cf"/></g><g><path d="m470.048 328.476h-428.096v-262.403c0-3.655 2.963-6.618 6.618-6.618h414.86c3.655 0 6.618 2.963 6.618 6.618z" fill="#f2fbff"/></g><g><path d="m470.048 66.069v262.404h-20.015v-262.404c0-3.653-2.962-6.615-6.615-6.615h20.015c3.653.001 6.615 2.963 6.615 6.615z" fill="#dff6fd"/></g><g><path d="m293.392 191.994h-212.455c-2.827 0-5.119-2.292-5.119-5.119v-19.397c0-2.827 2.292-5.119 5.119-5.119h212.455c2.827 0 5.119 2.292 5.119 5.119v19.397c0 2.827-2.292 5.119-5.119 5.119z" fill="#d7d0d6"/></g><g><path d="m300.66 328.476h-226.991v-24.516c0-2.827 2.292-5.119 5.119-5.119h216.753c2.827 0 5.119 2.292 5.119 5.119z" fill="#d7d0d6"/></g><g><path d="m298.511 167.475v19.404c0 2.822-2.292 5.114-5.124 5.114h-19.564c2.832 0 5.124-2.292 5.124-5.114v-19.404c0-2.822-2.292-5.114-5.124-5.114h19.564c2.833 0 5.124 2.291 5.124 5.114z" fill="#c9bfc8"/></g><g><path d="m300.663 303.965v24.508h-19.564v-24.508c0-2.832-2.292-5.124-5.124-5.124h19.564c2.832.001 5.124 2.292 5.124 5.124z" fill="#c9bfc8"/></g><g><g><g><path d="m102.354 191.994h30.533v106.848h-30.533z" fill="#f9f7f8"/></g></g><g><g><path d="m171.898 191.994h30.533v106.848h-30.533z" fill="#f9f7f8"/></g></g><g><g><path d="m241.442 191.994h30.533v106.848h-30.533z" fill="#f9f7f8"/></g></g></g><g><g><g><path d="m117.618 191.993h15.271v106.849h-15.271z" fill="#efedef"/></g></g><g><g><path d="m187.169 191.993h15.261v106.849h-15.261z" fill="#efedef"/></g></g><g><g><path d="m256.711 191.993h15.261v106.849h-15.261z" fill="#efedef"/></g></g></g><g><path d="m182.718 91.567-89.485 70.792h93.931 93.931l-89.485-70.792c-2.605-2.061-6.286-2.061-8.892 0z" fill="#f9f7f8"/></g><g><path d="m281.099 162.361h-27.54l-79.359-62.786c-.28-.22-.56-.41-.861-.581l9.377-7.425c2.612-2.062 6.285-2.062 8.897 0z" fill="#efedef"/></g><g><g><path d="m435.519 181.342h-103.307c-1.553 0-2.812-1.259-2.812-2.812v-27.881c0-1.553 1.259-2.812 2.812-2.812h103.306c1.553 0 2.812 1.259 2.812 2.812v27.881c.001 1.553-1.258 2.812-2.811 2.812z" fill="#b0e7c9"/></g><g><path d="m435.519 240.096h-103.307c-1.553 0-2.812-1.259-2.812-2.812v-27.881c0-1.553 1.259-2.812 2.812-2.812h103.306c1.553 0 2.812 1.259 2.812 2.812v27.881c.001 1.553-1.258 2.812-2.811 2.812z" fill="#b0e7c9"/></g></g><g><g><path d="m438.335 150.652v27.881c0 1.551-1.261 2.812-2.812 2.812h-20.015c1.551 0 2.812-1.261 2.812-2.812v-27.881c0-1.561-1.261-2.812-2.812-2.812h20.015c1.551 0 2.812 1.251 2.812 2.812z" fill="#91deb6"/></g><g><path d="m438.335 209.405v27.881c0 1.551-1.261 2.812-2.812 2.812h-20.015c1.551 0 2.812-1.261 2.812-2.812v-27.881c0-1.561-1.261-2.812-2.812-2.812h20.015c1.551 0 2.812 1.251 2.812 2.812z" fill="#91deb6"/></g></g><g><path d="m482.458 20.018h-452.916c-16.289 0-29.542 13.252-29.542 29.542v306.006c0 16.29 13.253 29.542 29.542 29.542h155.955v54.059h-36.106c-12.544 0-22.749 10.205-22.749 22.749v18.922c0 6.145 4.999 11.144 11.144 11.144h236.427c6.145 0 11.144-4.999 11.144-11.144v-18.922c0-12.544-10.205-22.749-22.749-22.749h-36.106v-11.581c0-4.145-3.36-7.506-7.506-7.506s-7.506 3.36-7.506 7.506v11.581h-110.981v-54.059h110.982v7.396c0 4.145 3.36 7.506 7.506 7.506s7.506-3.36 7.506-7.506v-7.396h155.955c16.29 0 29.542-13.252 29.542-29.542v-306.006c0-16.29-13.253-29.542-29.542-29.542zm-119.85 434.16c4.267 0 7.738 3.471 7.738 7.738v15.055h-228.692v-15.055c0-4.267 3.471-7.738 7.738-7.738zm134.381-113.273v14.661c0 8.013-6.518 14.531-14.531 14.531h-452.916c-8.013 0-14.531-6.518-14.531-14.531v-12.16-7.424h481.978zm-205.984-171.04v14.624h-207.682v-14.624zm-176.187-15.012 72.345-57.233 72.347 57.233zm149.651 44.646v91.837h-15.521v-91.837zm-30.532 0v91.837h-24v-91.837zm-39.011 0v91.837h-15.522v-91.837zm-30.534 0v91.837h-23.999v-91.837zm-54.532 0h15.522v91.837h-15.522zm183.294 106.848v14.624h-211.98v-14.624zm203.835 14.624h-19.435v-254.898c0-7.788-6.336-14.124-14.124-14.124h-342.541c-4.146 0-7.505 3.36-7.505 7.506s3.36 7.506 7.505 7.506h341.653v254.01h-154.376v-17.01c0-6.961-5.663-12.625-12.624-12.625h-16.062v-91.837h13.912c6.961 0 12.625-5.663 12.625-12.625v-19.397c0-6.961-5.664-12.625-12.625-12.625h-9.686l-87.438-69.172c-5.359-4.241-12.845-4.24-18.205-.001-.001 0-.001 0-.001 0l-87.437 69.172h-9.688c-6.961 0-12.625 5.663-12.625 12.625v19.397c0 6.961 5.663 12.625 12.625 12.625h13.912v91.837h-16.061c-6.961 0-12.625 5.663-12.625 12.625v17.01h-16.705v-254.009h36.586c4.146 0 7.506-3.36 7.506-7.506s-3.36-7.506-7.506-7.506h-37.474c-7.788 0-14.124 6.336-14.124 14.124v254.898h-19.435v-271.411c0-8.013 6.518-14.531 14.531-14.531h452.915c8.013 0 14.531 6.518 14.531 14.531v271.411z"/><path d="m332.213 188.847h103.306c5.69 0 10.318-4.628 10.318-10.318v-27.881c0-5.689-4.628-10.318-10.318-10.318h-103.306c-5.69 0-10.318 4.629-10.318 10.318v27.881c0 5.69 4.628 10.318 10.318 10.318zm4.693-33.506h93.92v18.495h-93.92z"/><path d="m332.213 247.601h103.306c5.69 0 10.318-4.628 10.318-10.318v-27.881c0-5.689-4.628-10.318-10.318-10.318h-103.306c-5.69 0-10.318 4.629-10.318 10.318v27.881c0 5.69 4.628 10.318 10.318 10.318zm4.693-33.506h93.92v18.495h-93.92z"/></g></g></svg>