<svg id="Capa_1" enable-background="new 0 0 512 512" height="512" viewBox="0 0 512 512" width="512" xmlns="http://www.w3.org/2000/svg"><g><g><path d="m128.959 504.442h-94.56c-3.564 0-6.454-2.89-6.454-6.454v-205.311h101.014z" fill="#e5e1e5"/></g><g><path d="m108.514 292.678h20.448v211.759h-20.448z" fill="#d7d0d6"/></g><g><path d="m477.601 504.442h-94.56v-211.765h101.014v205.311c0 3.565-2.889 6.454-6.454 6.454z" fill="#e5e1e5"/></g><g><path d="m484.06 292.678v205.313c0 3.558-2.898 6.446-6.456 6.446h-19.989c3.558 0 6.456-2.888 6.456-6.446v-205.313z" fill="#d7d0d6"/></g><g><path d="m128.959 201.1h-65.786c-4.296 0-8.373 1.899-11.138 5.187l-41.126 48.916c-2.205 2.622-3.413 5.938-3.413 9.364v28.109h121.464v-91.576z" fill="#c5d3dd"/></g><g><path d="m108.514 201.101h20.448v91.578h-20.448z" fill="#b6c4cf"/></g><g><path d="m383.041 201.1h65.786c4.296 0 8.373 1.899 11.138 5.187l41.126 48.916c2.205 2.622 3.413 5.938 3.413 9.364v28.109h-121.463z" fill="#c5d3dd"/></g><g><path d="m504.508 264.564v28.114h-20.448v-26.425c0-3.428-1.209-6.746-3.418-9.365l-42.756-50.601c-2.768-3.288-6.846-5.187-11.134-5.187h22.077c4.298 0 8.375 1.899 11.134 5.187l41.127 48.913c2.209 2.628 3.418 5.946 3.418 9.364z" fill="#b6c4cf"/></g><g><path d="m256 17.132-127.041 111.342v375.968h254.082v-375.968z" fill="#f9f7f8"/></g><g><path d="m383.038 128.472v375.966h-19.989v-333.496c0-3.185-1.374-6.215-3.769-8.315l-134.642-118.007 31.362-27.484z" fill="#efedef"/></g><g><path d="m477.601 504.442h-94.56v-33.387h101.014v26.933c0 3.565-2.889 6.454-6.454 6.454z" fill="#b0e7c9"/></g><g><path d="m484.06 471.057v26.935c0 3.558-2.898 6.446-6.456 6.446h-19.989c3.558 0 6.456-2.888 6.456-6.446v-26.935z" fill="#91deb6"/></g><g><path d="m128.959 504.442h-94.56c-3.564 0-6.454-2.89-6.454-6.454v-26.933h101.014z" fill="#b0e7c9"/></g><g><path d="m108.514 471.057h20.448v33.381h-20.448z" fill="#91deb6"/></g><g><circle cx="256" cy="174.028" fill="#e5e1e5" r="34.23"/></g><g><path d="m290.23 174.026c0 18.909-15.321 34.23-34.23 34.23-12.063 0-22.667-6.236-28.764-15.661 4.028 1.669 8.445 2.589 13.083 2.589 18.899 0 34.23-15.321 34.23-34.23 0-6.846-2.009-13.223-5.477-18.569 12.423 5.136 21.158 17.369 21.158 31.641z" fill="#d7d0d6"/></g><g><path d="m318.434 471.055h-124.868v-161.732c0-34.481 27.953-62.434 62.434-62.434 34.481 0 62.434 27.953 62.434 62.434z" fill="#e8ad8c"/></g><g><path d="m318.434 309.319v161.738h-19.989v-161.738c0-17.24-6.986-32.851-18.29-44.145-9.065-9.075-20.908-15.361-34.151-17.49 3.248-.53 6.596-.8 9.994-.8 17.24 0 32.851 6.986 44.145 18.29 11.305 11.294 18.291 26.905 18.291 44.145z" fill="#e19974"/></g><g><path d="m343.537 504.442h-175.074v-18.887c0-8.008 6.492-14.5 14.5-14.5h146.074c8.008 0 14.5 6.492 14.5 14.5z" fill="#c5d3dd"/></g><g><g><path d="m55.678 292.677v125.01c0 2.226 1.805 4.031 4.031 4.031h37.487c2.226 0 4.031-1.805 4.031-4.031v-125.01z" fill="#f2fbff"/></g><g><path d="m101.228 292.678v125.009c0 2.229-1.809 4.028-4.038 4.028h-19.968c2.229 0 4.028-1.799 4.028-4.028v-125.009z" fill="#dff6fd"/></g></g><g><g><path d="m410.773 292.677v125.01c0 2.226 1.805 4.031 4.031 4.031h37.487c2.226 0 4.031-1.805 4.031-4.031v-125.01z" fill="#f2fbff"/></g><g><path d="m456.323 292.678v125.009c0 2.229-1.809 4.028-4.038 4.028h-19.969c2.229 0 4.028-1.799 4.028-4.028v-125.009z" fill="#dff6fd"/></g></g><g><g><path d="m403.126 165.934c-3.721 0-7.46-1.277-10.508-3.887l-136.618-117.002-136.618 117.002c-6.782 5.807-16.987 5.017-22.794-1.764s-5.018-16.986 1.763-22.793l147.134-126.006c6.052-5.183 14.979-5.183 21.03 0l147.133 126.006c6.781 5.808 7.57 16.012 1.764 22.793-3.198 3.734-7.729 5.651-12.286 5.651z" fill="#8d9ca8"/></g></g><g><path d="m214.274 174.028c0 23.008 18.718 41.726 41.726 41.726s41.726-18.718 41.726-41.726-18.719-41.726-41.726-41.726-41.726 18.719-41.726 41.726zm68.46 0c0 14.741-11.993 26.734-26.734 26.734s-26.734-11.993-26.734-26.734c0-14.742 11.993-26.735 26.734-26.735 14.741.001 26.734 11.994 26.734 26.735z"/><path d="m228.202 397.515c4.14 0 7.496-3.356 7.496-7.496v-28.708c0-4.14-3.356-7.496-7.496-7.496s-7.496 3.356-7.496 7.496v28.708c.001 4.14 3.357 7.496 7.496 7.496z"/><path d="m506.829 250.38-41.125-48.915c-4.199-4.995-10.35-7.86-16.876-7.86h-58.291v-23.832c3.755 2.364 8.112 3.657 12.589 3.657 6.925 0 13.479-3.015 17.979-8.271 8.485-9.909 7.327-24.875-2.582-33.362l-49.472-42.368c-3.144-2.694-7.877-2.326-10.569.817-2.693 3.144-2.327 7.876.817 10.569l49.471 42.368c3.631 3.11 4.056 8.594.946 12.225-1.649 1.926-4.052 3.03-6.592 3.03-1.459 0-3.62-.362-5.632-2.085l-136.616-117.001c-2.806-2.404-6.945-2.404-9.751 0l-136.618 117.001c-3.631 3.11-9.115 2.685-12.225-.946-3.109-3.631-2.685-9.114.946-12.224l147.133-126.006c3.268-2.799 8.011-2.799 11.279 0l70.98 60.788c3.144 2.693 7.876 2.327 10.569-.817s2.327-7.876-.817-10.569l-70.98-60.788c-8.919-7.64-21.864-7.639-30.783 0l-147.133 126.006c-9.909 8.487-11.066 23.453-2.581 33.361 7.724 9.019 20.805 10.761 30.568 4.606v23.84h-58.29c-6.526 0-12.677 2.865-16.876 7.859l-41.126 48.917c-3.335 3.967-5.171 9.006-5.171 14.188v28.109c0 4.14 3.356 7.496 7.496 7.496h12.953v197.815c0 7.692 6.258 13.95 13.95 13.95h443.202c7.692 0 13.95-6.258 13.95-13.95v-197.815h12.953c4.14 0 7.496-3.356 7.496-7.496v-28.109c0-5.182-1.836-10.221-5.171-14.188zm-385.366 246.567h-86.023v-18.396h86.023zm0-33.388h-86.023v-163.386h12.742v117.515c0 6.356 5.171 11.527 11.527 11.527h37.487c6.356 0 11.527-5.171 11.527-11.527v-117.515h12.741v163.386zm-27.732-120.372v28.022h-30.558v-28.022zm-30.558-14.992v-28.023h30.557v28.023zm30.558 58.005v28.023h-30.558v-28.023zm27.732-101.019h-106.472v-20.613c0-1.659.588-3.272 1.655-4.54l41.126-48.916c1.344-1.599 3.312-2.515 5.4-2.515h58.29v76.584zm214.578 211.766h-160.082v-11.392c0-3.862 3.142-7.004 7.004-7.004h146.074c3.862 0 7.004 3.142 7.004 7.004zm39.504 0h-24.512v-11.392c0-12.128-9.867-21.996-21.996-21.996h-3.108v-154.237c0-38.559-31.37-69.929-69.929-69.929s-69.929 31.37-69.929 69.929v92.476c0 4.14 3.356 7.496 7.496 7.496s7.496-3.356 7.496-7.496v-92.476c0-30.293 24.645-54.938 54.938-54.938s54.938 24.645 54.938 54.938v154.237h-109.877v-27.158c0-4.14-3.356-7.496-7.496-7.496s-7.496 3.356-7.496 7.496v27.158h-3.108c-12.128 0-21.996 9.867-21.996 21.996v11.392h-24.512v-339.653l119.546-102.38 119.545 102.38zm101.015 0h-86.023v-18.396h86.023zm0-33.388h-86.023v-163.386h12.74v117.515c0 6.356 5.171 11.527 11.527 11.527h37.487c6.356 0 11.527-5.171 11.527-11.527v-117.515h12.743v163.386zm-27.734-120.372v28.022h-30.557v-28.022zm-30.558-14.992v-28.023h30.557v28.023zm30.558 58.005v28.023h-30.557v-28.023zm48.183-101.019h-106.472v-76.585h58.291c2.089 0 4.057.916 5.401 2.516l41.126 48.915c1.067 1.269 1.655 2.882 1.655 4.541v20.613z"/></g></g></svg>