<svg id="Capa_1" enable-background="new 0 0 512 512" height="512" viewBox="0 0 512 512" width="512" xmlns="http://www.w3.org/2000/svg"><g><g><path d="m20.231 13.803h475.288v31.769h-475.288z" fill="#f4d7c8"/></g><g><g><g><circle cx="29.677" cy="29.688" fill="#e8ad8c" r="22.183"/></g></g><g><g><circle cx="482.323" cy="29.688" fill="#e8ad8c" r="22.183"/></g></g></g><g><g><g><path d="m51.861 29.688c0 12.25-9.932 22.181-22.181 22.181-8.922 0-16.616-5.265-20.133-12.859 1.279.24 2.608.36 3.957.36 12.25 0 22.181-9.932 22.181-22.181 0-3.327-.729-6.485-2.058-9.322 10.371 1.857 18.234 10.92 18.234 21.821z" fill="#e19974"/></g></g><g><g><path d="m504.511 29.688c0 12.25-9.942 22.181-22.191 22.181-8.922 0-16.616-5.265-20.123-12.859 1.279.24 2.608.36 3.957.36 12.25 0 22.181-9.932 22.181-22.181 0-3.327-.739-6.485-2.058-9.322 10.371 1.857 18.234 10.92 18.234 21.821z" fill="#e19974"/></g></g></g><g><path d="m256 13.803h-171.481v411.606c0 3.38 2.007 6.437 5.109 7.781l163.001 70.612c2.151.932 4.591.932 6.742 0l163.001-70.612c3.102-1.344 5.109-4.401 5.109-7.781v-411.606z" fill="#c8effe"/></g><g><path d="m427.476 13.801v411.604c0 3.387-1.998 6.445-5.106 7.784l-15.257 6.604c.25-.799.38-1.659.38-2.528v-423.464z" fill="#99e6fc"/></g><g><path d="m427.482 375.05v50.358c0 3.38-2.007 6.438-5.109 7.781l-163.003 70.611c-2.151.932-4.591.932-6.741 0l-163.002-70.611c-3.102-1.344-5.109-4.401-5.109-7.781v-50.358l171.482 74.284z" fill="#fedba6"/></g><g><path d="m427.486 375.048v50.358c0 1.909-.639 3.707-1.749 5.156-.24.32-.51.629-.809.909-.729.709-1.589 1.299-2.558 1.719l-15.257 6.604c.25-.799.38-1.659.38-2.528v-53.556l19.983-8.663h.01z" fill="#fece85"/></g><g><g><g><path d="m272.493 370.458c-76.328 0-138.425-62.097-138.425-138.425s62.097-138.424 138.425-138.424c27.738 0 54.506 8.179 77.41 23.654 10.192 6.885 12.871 20.728 5.986 30.919-6.884 10.191-20.727 12.871-30.919 5.986-15.513-10.481-33.659-16.021-52.477-16.021-51.769 0-93.887 42.118-93.887 93.887s42.118 93.886 93.887 93.886c19.492 0 35.958-5.862 48.937-17.424 2.53-2.253 4.943-4.743 7.174-7.405 7.902-9.425 21.947-10.659 31.372-2.758 9.425 7.902 10.659 21.948 2.758 31.372-3.615 4.312-7.546 8.367-11.683 12.05-21.079 18.778-48.246 28.703-78.558 28.703z" fill="#e5caf3"/></g></g></g><g><g><g><path d="m181.542 255.408c-6.924-13.069-10.841-27.956-10.841-43.753 0-51.777 42.115-93.891 93.891-93.891 10.798 0 21.455 1.952 31.745 5.149 5.24 1.628 10.38 3.562 15.458 5.634 11.381 4.644 27.31 12.414 36.186-.741 1.948-2.888 3.127-6.065 3.597-9.292 8.793 7.214 10.791 20.063 4.306 29.665-6.884 10.191-20.723 12.879-30.914 5.985-15.517-10.481-33.662-16.017-52.476-16.017-51.777 0-93.891 42.115-93.891 93.891.002 8.063 1.021 15.896 2.939 23.37z" fill="#d9b1ee"/></g><g><path d="m362.73 329.706c-3.607 4.316-7.544 8.363-11.68 12.05-21.082 18.774-48.249 28.706-78.554 28.706-62.587 0-115.593-41.745-132.659-98.847 22.391 46.381 69.891 78.464 124.755 78.464 30.305 0 57.472-9.932 78.554-28.706 4.137-3.677 8.073-7.733 11.68-12.05 2.768-3.297 4.416-7.164 4.976-11.131.06.05.11.09.17.14 9.432 7.903 10.661 21.952 2.758 31.374z" fill="#d9b1ee"/></g></g></g><g><path d="m272.493 145.64c17.316 0 34.011 5.096 48.282 14.737 13.599 9.187 32.136 5.598 41.324-8 4.45-6.587 6.069-14.514 4.558-22.319-1.51-7.805-5.97-14.555-12.558-19.005-24.147-16.315-52.365-24.939-81.605-24.939-80.46 0-145.918 65.459-145.918 145.918s65.459 145.918 145.918 145.918c32.179 0 61.068-10.581 83.542-30.599 4.404-3.921 8.59-8.238 12.442-12.832 5.108-6.092 7.538-13.808 6.841-21.728-.696-7.92-4.434-15.094-10.526-20.202-12.578-10.543-31.388-8.889-41.931 3.687-1.995 2.381-4.153 4.608-6.415 6.622-11.566 10.302-26.355 15.526-43.953 15.526-47.637 0-86.393-38.755-86.393-86.393-.001-47.635 38.755-86.391 86.392-86.391zm-101.38 86.394c0 55.901 45.479 101.38 101.381 101.38 21.385 0 39.527-6.501 53.921-19.321 2.803-2.496 5.473-5.251 7.933-8.186 5.235-6.243 14.573-7.064 20.817-1.83 3.024 2.535 4.88 6.097 5.225 10.028.345 3.932-.861 7.763-3.396 10.786-3.386 4.038-7.06 7.829-10.924 11.269-19.688 17.536-45.129 26.804-73.575 26.804-72.196 0-130.931-58.735-130.931-130.93 0-72.196 58.735-130.931 130.931-130.931 26.238 0 51.555 7.735 73.215 22.37 3.27 2.209 5.485 5.56 6.234 9.434.75 3.875-.054 7.809-2.263 11.08-4.561 6.751-13.765 8.532-20.515 3.971-16.756-11.321-36.353-17.305-56.671-17.305-55.903 0-101.382 45.479-101.382 101.381z"/><path d="m482.323.01c-6.877 0-13.21 2.358-18.248 6.299h-416.15c-5.038-3.941-11.371-6.299-18.248-6.299-16.364 0-29.677 13.313-29.677 29.677s13.313 29.677 29.677 29.677c6.877 0 13.21-2.358 18.248-6.299h29.1v68.578c0 4.139 3.355 7.494 7.494 7.494s7.494-3.355 7.494-7.494v-100.346h327.974v348.833l-163.987 71.038-163.987-71.038v-214.055c0-4.139-3.355-7.494-7.494-7.494s-7.494 3.355-7.494 7.494v269.334c0 6.371 3.778 12.125 9.624 14.657l163.001 70.612c2.018.874 4.184 1.311 6.35 1.311s4.332-.437 6.35-1.311l72.021-31.2c3.798-1.645 5.542-6.057 3.897-9.855s-6.056-5.544-9.855-3.897l-72.022 31.2c-.249.108-.534.107-.783 0l-163.001-70.612c-.361-.157-.594-.512-.594-.905v-38.946l161.008 69.747c.95.412 1.965.618 2.979.618s2.028-.206 2.978-.618l161.008-69.747v38.946c0 .393-.233.748-.594.905l-58.964 25.543c-3.797 1.645-5.542 6.057-3.897 9.855 1.225 2.827 3.983 4.517 6.88 4.517.994 0 2.004-.199 2.975-.62l58.964-25.542c5.846-2.533 9.624-8.286 9.624-14.658v-372.343h29.101c5.038 3.941 11.371 6.299 18.248 6.299 16.364 0 29.677-13.313 29.677-29.677 0-16.365-13.313-29.678-29.677-29.678zm-452.646 44.367c-8.1 0-14.689-6.59-14.689-14.69s6.59-14.69 14.689-14.69c8.1 0 14.69 6.59 14.69 14.69 0 8.101-6.59 14.69-14.69 14.69zm47.348-6.299h-18.887c.786-2.663 1.216-5.477 1.216-8.391s-.429-5.728-1.216-8.391h18.887zm376.836 0h-18.887v-16.781h18.887c-.786 2.663-1.216 5.477-1.216 8.391.001 2.914.43 5.728 1.216 8.39zm28.462 6.299c-8.1 0-14.69-6.59-14.69-14.69s6.59-14.69 14.69-14.69 14.69 6.59 14.69 14.69c0 8.101-6.591 14.69-14.69 14.69z"/></g></g></svg>