<svg id="Capa_1" enable-background="new 0 0 512 512" height="512" viewBox="0 0 512 512" width="512" xmlns="http://www.w3.org/2000/svg"><g><g><path d="m365.7 504.743h-283.629c-9.228 0-16.709-7.481-16.709-16.709v-463.586c0-9.228 7.481-16.709 16.709-16.709h348.34c9.228 0 16.709 7.481 16.709 16.709v399.349z" fill="#f2fbff"/></g><g><path d="m447.122 24.443v399.355l-19.994 19.874v-419.229c0-9.227-7.478-16.705-16.715-16.705h19.994c9.237 0 16.715 7.478 16.715 16.705z" fill="#dff6fd"/></g><g><path d="m365.7 504.743v-68.701c0-6.793 5.509-12.298 12.302-12.293l69.119.048z" fill="#c8effe"/></g><g><path d="m430.17 0h-348.34c-13.348 0-24.207 10.859-24.207 24.207v463.586c0 13.348 10.859 24.207 24.207 24.207h283.629c.04 0 .079-.005.119-.006 1.403-.022 2.841-.46 4.02-1.24.407-.27.801-.59 1.148-.935 0 0 81.382-80.909 81.42-80.947 1.433-1.424 2.211-3.305 2.211-5.317 0-.261 0-399.349 0-399.349 0-13.347-10.859-24.206-24.207-24.206zm-57.213 486.476v-50.675c0-1.282.499-2.486 1.406-3.392.906-.905 2.109-1.403 3.39-1.403h.004l50.96.035zm66.424-70.423-61.615-.043c-.006 0-.01 0-.015 0-5.283 0-10.252 2.057-13.989 5.792-3.742 3.739-5.802 8.71-5.802 13.999v61.204h-276.13c-5.079 0-9.211-4.133-9.211-9.211v-463.587c0-5.079 4.132-9.211 9.211-9.211h348.34c5.079 0 9.211 4.132 9.211 9.211z"/><path d="m304.83 158.001c3.869 1.472 8.202-.468 9.676-4.338l5.152-13.527h34.752l5.096 13.505c1.133 3.002 3.986 4.853 7.015 4.852.88 0 1.775-.156 2.647-.485 3.874-1.462 5.829-5.788 4.367-9.662l-27.815-73.705c-.025-.068-.053-.136-.08-.204-1.423-3.461-4.759-5.696-8.501-5.696-.003 0-.007 0-.01 0-3.746.004-7.082 2.247-8.498 5.714-.023.056-.045.111-.066.167l-28.071 73.703c-1.475 3.87.468 8.202 4.336 9.676zm32.284-63.695 11.637 30.836h-23.381z"/><path d="m300.387 185.942c10.598 4.189 21.994 6.204 33.276 6.203 22.27 0 44.093-7.851 58.449-22.318 27.945-28.164 22.592-76.6.059-104.168-18.51-22.648-51.729-33.027-96.06-30.014-4.13.281-7.252 3.858-6.971 7.989.28 4.132 3.868 7.259 7.989 6.972 27.389-1.863 64.097.887 83.433 24.543 18.024 22.052 22.83 62.021.906 84.115-17.309 17.444-49.796 22.918-75.567 12.731-11.493-4.543-30.887-16.096-31.643-42.429-.647-22.516 12.208-41.687 33.549-50.032 3.856-1.508 5.76-5.857 4.253-9.713-1.508-3.856-5.854-5.761-9.714-4.252-27.405 10.716-43.911 35.403-43.077 64.428.73 25.514 15.718 45.905 41.118 55.945z"/><path d="m107.648 231.566h296.704c4.141 0 7.498-3.357 7.498-7.498s-3.356-7.498-7.498-7.498h-296.704c-4.141 0-7.498 3.357-7.498 7.498s3.356 7.498 7.498 7.498z"/><path d="m404.352 253.378h-92.985c-4.141 0-7.498 3.357-7.498 7.498s3.356 7.498 7.498 7.498h92.985c4.141 0 7.498-3.357 7.498-7.498s-3.357-7.498-7.498-7.498z"/><path d="m107.648 268.373h168.938c4.141 0 7.498-3.357 7.498-7.498s-3.356-7.498-7.498-7.498h-168.938c-4.141 0-7.498 3.357-7.498 7.498s3.356 7.498 7.498 7.498z"/><path d="m107.648 305.18h296.704c4.141 0 7.498-3.357 7.498-7.498s-3.356-7.498-7.498-7.498h-296.704c-4.141 0-7.498 3.357-7.498 7.498s3.356 7.498 7.498 7.498z"/><path d="m107.648 341.987h296.704c4.141 0 7.498-3.357 7.498-7.498s-3.356-7.498-7.498-7.498h-296.704c-4.141 0-7.498 3.357-7.498 7.498s3.356 7.498 7.498 7.498z"/><path d="m404.593 364.039h-215.977c-4.141 0-7.498 3.357-7.498 7.498s3.356 7.498 7.498 7.498h215.978c4.141 0 7.498-3.357 7.498-7.498s-3.358-7.498-7.499-7.498z"/><path d="m107.648 378.793h46.544c4.141 0 7.498-3.357 7.498-7.498s-3.356-7.498-7.498-7.498h-46.544c-4.141 0-7.498 3.357-7.498 7.498 0 4.142 3.356 7.498 7.498 7.498z"/><path d="m317.267 400.846h-61.026c-4.141 0-7.498 3.357-7.498 7.498s3.356 7.498 7.498 7.498h61.026c4.141 0 7.498-3.357 7.498-7.498s-3.357-7.498-7.498-7.498z"/><path d="m221.422 400.846h-113.533c-4.141 0-7.498 3.357-7.498 7.498s3.356 7.498 7.498 7.498h113.533c4.141 0 7.498-3.357 7.498-7.498-.001-4.141-3.357-7.498-7.498-7.498z"/></g></g></svg>