<svg id="Capa_1" enable-background="new 0 0 512 512" height="512" viewBox="0 0 512 512" width="512" xmlns="http://www.w3.org/2000/svg"><g><g><path d="m337.099 504.515h-228.892c-2.972 0-5.381-2.409-5.381-5.381v-15.375c0-10.104 8.191-18.295 18.295-18.295h203.065c10.104 0 18.295 8.191 18.295 18.295v15.375c-.001 2.972-2.41 5.381-5.382 5.381z" fill="#e8ad8c"/></g><g><path d="m301.987 465.463h-158.669v-14.512c0-17.26 13.992-31.253 31.253-31.253h96.163c17.26 0 31.253 13.992 31.253 31.253z" fill="#f4d7c8"/></g><g><path d="m342.478 483.756v15.38c0 2.974-2.405 5.379-5.379 5.379h-19.96c2.974 0 5.379-2.405 5.379-5.379v-15.38c0-10.1-8.184-18.294-18.294-18.294h19.96c10.11 0 18.294 8.194 18.294 18.294z" fill="#e19974"/></g><g><path d="m301.988 450.951v14.511h-19.96v-14.511c0-17.255-13.992-31.248-31.258-31.248h19.96c17.266.001 31.258 13.993 31.258 31.248z" fill="#ecbba3"/></g><g><path d="m421.174 192.999c0-43.398-14.199-84.291-41.064-118.259-26.051-32.941-62.713-56.67-103.232-66.818-7.772-1.943-15.654 2.777-17.601 10.55-1.947 7.774 2.777 15.655 10.55 17.601 34.339 8.6 65.421 28.726 87.52 56.669 22.77 28.792 34.806 63.46 34.806 100.257 0 89.198-72.568 161.766-161.765 161.766-31.889 0-62.733-9.264-89.197-26.791-6.681-4.425-15.685-2.597-20.11 4.085-4.425 6.681-2.596 15.685 4.085 20.11 21.352 14.141 45.115 23.721 70.029 28.368 5.768 1.076 9.976 6.063 9.976 11.93v27.232h34.965v-24.949c0-6.164 4.619-11.398 10.749-12.048 43.212-4.586 83.251-23.637 114.41-54.796 36.034-36.035 55.879-83.946 55.879-134.907z" fill="#c5d3dd"/></g><g><path d="m351.809 317.956c36.038-36.038 55.879-83.943 55.879-134.911 0-43.394-14.202-84.282-41.068-118.254-8.822-11.158-18.852-21.258-29.851-30.12 16.347 10.988 31.018 24.501 43.344 40.07 26.134 33.036 40.275 72.635 41.027 114.71.914 51.131-18.529 100.297-54.276 136.867-31.377 32.099-72.039 51.721-115.983 56.379-6.128.659-10.749 5.888-10.749 12.056v24.94h-13.483v-26.633c0-11.057 7.924-20.541 18.815-22.456 13.236-2.327 31.764-6.54 49.928-13.876 22.592-9.124 43.922-26.276 56.417-38.772z" fill="#b6c4cf"/></g><g><circle cx="224.639" cy="191.373" fill="#c8effe" r="133.813"/></g><g><path d="m358.456 191.368c0 73.903-59.911 133.814-133.813 133.814-25.759 0-49.811-7.276-70.23-19.89 15.499 6.277 32.445 9.731 50.19 9.731 73.903 0 133.813-59.911 133.813-133.813 0-48.144-25.429-90.35-63.583-113.923 49.032 19.859 83.623 67.933 83.623 124.081z" fill="#99e6fc"/></g><g><path d="m209.003 324.28c-65.648-7.636-116.793-62.782-118.148-130.161 13.587-1.172 26.763.641 38.116 8.158 11.967 7.902 19.997 22.084 33.437 27.77 13.89 5.86 31.817-.174 39.288 17.506 2.957 7.014.238 14.402.476 21.562.357 11.07 4.322 16.133 8.689 25.856 4.816 10.722 3.626 21.334-1.858 29.309z" fill="#b0e7c9"/></g><g><path d="m213.175 314.753c-.778 3.433-2.196 6.647-4.172 9.531-.19-.02-.379-.04-.569-.07-1.32-.207-2.654-.328-3.972-.549-5.491-.924-11.221-1.814-16.467-3.563-3.063-1.021-6.183-1.843-9.182-2.974-7.681-2.898-15.345-6.434-22.475-10.669-.639-.379-1.277-.768-1.906-1.158 15.489 6.268 32.435 9.721 50.17 9.721 2.885 0 5.739-.09 8.573-.269z" fill="#91deb6"/></g><g><path d="m358.455 191.372c0 29.537-9.577 56.849-25.783 78.988-7.105-.751-13.99-2.445-19.768-6.51-9.165-6.455-16.664-18.971-27.66-16.801-7.865 1.556-14.75 9.614-23.476 7.828-15.181-3.095-13.908-21.26-4.193-28.594 19.054-14.393 31.945-35.186 53.562-45.422 5.594-2.646 11.546-4.532 17.112-7.252 9.586-4.679 17.662-11.61 24.95-19.475 3.425 11.822 5.256 24.31 5.256 37.238z" fill="#b0e7c9"/></g><g><path d="m358.456 191.369c0 17.882-3.68 35.629-10.519 52.086-1.987 4.782-4.547 9.605-7.066 14.282-1.828 3.393-3.968 6.626-6.178 9.77-.609.888-1.228 1.757-1.866 2.625-.05.08-.1.15-.17.23-7.096-.749-13.972-2.445-19.751-6.507-.649-.459-1.287-.948-1.926-1.457 17.206-22.525 27.435-50.659 27.435-81.188 0-4.481-.22-8.912-.649-13.274 5.609-3.962 10.689-8.683 15.429-13.803.848 2.964 1.607 5.958 2.265 8.992.919 4.366 1.628 8.762 2.156 13.194.596 4.991.84 10.019.84 15.05z" fill="#91deb6"/></g><g><g><path d="m312.208 90.19c-9.322 10.818-19.95 20.868-33.693 23.693-16.727 3.443-24.102.619-34.002 15.11-7.236 10.599-11.407 17.286-8.134 30.829 1.477 6.148 5.309 12.894-.639 18.104-7.745 6.787-18.174-2.794-24.95-5.758-10.389-4.541-20.928-8.713-31.607-12.515-3.493-1.238-7.126-2.525-9.721-5.18-4.112-4.212-4.551-10.938-2.874-16.577 1.687-5.639 5.13-10.559 8.084-15.649 1.265-2.181 2.449-4.448 3.533-6.736 4.91-10.369 7.924-21.637 8.982-33.074.291-3.141.439-6.144.439-9.341 0-3.403-.17-6.816-.519-10.2 11.906-3.473 24.501-5.339 37.535-5.339 33.484-.002 64.093 12.304 87.566 32.633z" fill="#b0e7c9"/></g><g><path d="m312.208 90.19c-1.567 1.816-3.164 3.613-4.82 5.349-9.222-11.068-20.21-20.619-32.515-28.224.938.369 1.866.758 2.784 1.158.798.349 1.607.699 2.395 1.068 1.818.852 3.752 1.776 5.589 2.705 3.618 1.829 7.146 3.863 10.579 6.048 4.805 3.058 9.388 6.335 13.763 10.01.748.629 1.487 1.247 2.225 1.886z" fill="#91deb6"/></g></g><g><path d="m385.981 70.097c-27.071-34.23-65.172-58.889-107.287-69.437-11.763-2.942-23.733 4.232-26.677 15.993-1.428 5.699-.551 11.613 2.471 16.653 3.021 5.039 7.822 8.601 13.522 10.028 32.744 8.2 62.386 27.397 83.467 54.051 21.715 27.456 33.192 60.52 33.192 95.614 0 85.071-69.21 154.281-154.28 154.281-30.415 0-59.83-8.834-85.064-25.546-4.898-3.245-10.77-4.388-16.524-3.218-5.758 1.17-10.716 4.512-13.96 9.41-3.245 4.898-4.387 10.767-3.217 16.524 1.169 5.758 4.512 10.716 9.41 13.959 22.187 14.695 46.677 24.615 72.79 29.486 2.239.418 3.864 2.341 3.864 4.572v19.747h-23.114c-21.361 0-38.738 17.378-38.738 38.738v7.027h-14.716c-14.215 0-25.78 11.565-25.78 25.78v15.375c0 7.095 5.772 12.866 12.866 12.866h228.893c7.094 0 12.866-5.772 12.866-12.866v-15.375c0-14.215-11.565-25.78-25.78-25.78h-14.713v-7.027c0-21.36-17.377-38.738-38.738-38.738h-23.114v-17.464c0-2.38 1.743-4.359 4.053-4.605 35.454-3.763 69.225-17.066 97.663-38.473 3.303-2.486 3.965-7.179 1.479-10.482-2.487-3.302-7.179-3.966-10.482-1.479-26.274 19.778-57.478 32.07-90.24 35.547-9.944 1.055-17.443 9.435-17.443 19.491v17.464h-19.994v-19.747c0-9.438-6.767-17.55-16.089-19.289-24.13-4.5-46.762-13.669-67.268-27.25-1.564-1.036-2.632-2.619-3.005-4.457-.374-1.839-.009-3.713 1.027-5.278s2.62-2.632 4.459-3.006c1.843-.373 3.714-.008 5.277 1.028 27.694 18.341 59.967 28.035 93.331 28.035 93.325 0 169.25-75.925 169.25-169.251 0-38.5-12.594-74.773-36.42-104.9-23.119-29.232-55.639-50.288-91.572-59.287-1.821-.456-3.354-1.593-4.319-3.203s-1.245-3.498-.789-5.32c.94-3.756 4.762-6.05 8.521-5.107 38.925 9.749 74.147 32.549 99.179 64.201 25.808 32.633 39.45 71.921 39.45 113.616 0 46.084-17.128 90.094-48.229 123.921-2.797 3.043-2.598 7.778.444 10.576 3.042 2.797 7.777 2.599 10.577-.444 33.648-36.597 52.178-84.205 52.178-134.053.001-45.099-14.757-87.598-42.677-122.901zm-61.795 402.851c5.961 0 10.81 4.849 10.81 10.81v13.271h-224.685v-13.271c0-5.961 4.849-10.81 10.809-10.81zm-53.452-45.764c13.106 0 23.768 10.662 23.768 23.768v7.027h-143.699v-7.027c0-13.106 10.663-23.768 23.768-23.768z"/><path d="m224.64 332.671c77.912 0 141.298-63.386 141.298-141.298 0-32.35-11.33-64.11-31.779-89.174-5.015-6.146-10.478-11.811-16.325-16.96-25.555-22.505-58.436-35.164-93.194-35.164-24.385 0-49.18 6.598-70.351 18.801-10.023 5.778-19.331 12.789-27.66 20.818-27.457 26.471-43.288 63.527-43.288 101.679 0 77.912 63.387 141.298 141.299 141.298zm124.289-163.962c.125.688.237 1.381.351 2.073.186 1.126.354 2.24.509 3.369.78 5.702 1.178 11.461 1.178 17.221 0 26.273-8.065 50.696-21.845 70.93-4.953-.902-8.802-2.387-11.908-4.571-2.279-1.605-4.587-3.805-7.033-6.136-5.822-5.549-12.895-12.29-22.356-12.29-1.298 0-2.642.127-4.033.402-4.233.837-7.91 2.86-11.155 4.644-4.213 2.317-6.943 3.689-9.375 3.193-3.035-.619-4.712-2.069-5.277-4.564-.828-3.652.973-8.362 4.1-10.723 7.961-6.013 14.805-12.979 21.422-19.716 9.745-9.919 18.949-19.288 30.829-24.913 2.453-1.161 5.02-2.177 7.738-3.253 3.864-1.531 27.675-11.155 26.855-15.666zm-168.788-95.564c-.001 2.719-.138 5.619-.409 8.62-.37 4.117 2.667 7.755 6.784 8.125.228.021.454.031.679.031 3.83 0 7.096-2.926 7.446-6.815.312-3.464.47-6.833.47-10.012 0-1.513-.04-3.025-.103-4.531 9.508-2.294 19.428-3.518 29.631-3.518 28.819 0 55.409 9.707 76.688 26.014-6.821 7.109-14.831 13.543-24.322 15.493-3.551.731-6.621 1.156-9.588 1.567-10.495 1.454-19.559 2.708-29.087 16.655-7.182 10.521-13.385 19.607-9.229 36.797.333 1.389.739 2.709 1.131 3.986 1.685 5.489 1.413 6.005.574 6.74-1.73 1.517-6.002-.79-10.991-3.734-2.078-1.227-4.041-2.384-6.028-3.254-10.49-4.585-21.288-8.86-32.106-12.712-2.821-.999-5.486-1.943-6.864-3.353-1.74-1.782-2.164-5.486-1.058-9.204.808-2.7 2.26-5.382 3.574-7.65.605-1.045 1.216-2.076 1.824-3.103 1.975-3.336 4.017-6.785 5.812-10.572 1.769-3.736.175-8.199-3.56-9.969-3.735-1.769-8.199-.176-9.969 3.56-1.498 3.163-3.279 6.169-5.164 9.353-.632 1.067-1.266 2.139-1.896 3.225-1.751 3.023-3.711 6.678-4.968 10.88-2.689 9.046-.891 18.219 4.696 23.941 3.811 3.899 8.67 5.621 12.564 7 10.479 3.731 20.949 7.877 31.118 12.322 1.157.506 2.741 1.44 4.419 2.43 4.441 2.621 10.809 6.378 17.456 6.378 3.676 0 7.439-1.15 11.007-4.277 8.47-7.419 5.592-16.794 3.871-22.395-.34-1.107-.662-2.152-.889-3.099-2.496-10.324.186-14.809 7.039-24.847 5.786-8.47 9.06-8.923 18.778-10.269 3.057-.423 6.522-.903 10.55-1.732 13.559-2.787 24.05-11.272 32.648-20.354 14.494 14.101 25.619 31.643 32.054 51.29-6.664 6.708-13.017 11.443-19.76 14.733-2.647 1.293-5.442 2.401-8.401 3.573-2.82 1.116-5.735 2.271-8.629 3.64-14.289 6.766-24.87 17.537-35.104 27.953-6.524 6.642-12.688 12.915-19.764 18.26-7.825 5.907-11.807 16.589-9.68 25.977 1.884 8.316 8.039 14.121 16.881 15.924 7.992 1.635 14.419-1.901 19.585-4.742 2.515-1.383 4.889-2.689 6.842-3.075 3.655-.718 7.408 2.557 13.159 8.04 2.732 2.603 5.557 5.295 8.744 7.54 3.114 2.191 6.579 3.892 10.498 5.186-23.158 26.079-56.918 42.542-94.456 42.542-1.495 0-2.981-.036-4.463-.087 2.175-8.166 1.384-17.091-2.487-25.708-1.032-2.298-2.051-4.365-2.95-6.189-2.927-5.941-4.861-9.866-5.086-16.85-.064-1.927.166-4.082.41-6.364.574-5.373 1.226-11.463-1.474-17.862-6.675-15.796-19.962-17.471-30.638-18.816-4.62-.582-8.983-1.133-12.628-2.67-6.359-2.69-11.625-8.09-17.199-13.807-4.567-4.684-9.29-9.526-15.022-13.311-9.817-6.5-21.234-9.69-34.692-9.71 2.048-51.822 35.461-95.711 81.732-113.184zm-81.433 128.24c-.003-.035-.007-.071-.01-.106 10.327.074 18.929 2.464 26.148 7.244 4.396 2.902 8.361 6.97 12.561 11.275 6.365 6.527 12.947 13.276 22.092 17.145 5.551 2.343 11.411 3.081 16.581 3.733 10.403 1.311 15.545 2.275 18.72 9.786 1.194 2.831.816 6.361.379 10.448-.288 2.694-.587 5.479-.487 8.446.33 10.209 3.385 16.41 6.62 22.976.885 1.795 1.799 3.652 2.722 5.706 2.805 6.245 3.08 12.638.883 18.119.05-.123-3.767-.377-3.836-.669-52.405-9.926-93.461-52.318-101.38-105.396.008.005.016.011.024.016-.433-2.889-.786-5.796-1.017-8.723z"/></g></g></svg>