<svg id="Capa_1" enable-background="new 0 0 512.013 512.013" height="512" viewBox="0 0 512.013 512.013" width="512" xmlns="http://www.w3.org/2000/svg"><g><g><path d="m387.157 504.513h-316.14c-7.245 0-13.119-5.874-13.119-13.119v-447.389c0-7.245 5.874-13.119 13.119-13.119h316.14c7.245 0 13.119 5.874 13.119 13.119v447.389c.001 7.245-5.873 13.119-13.119 13.119z" fill="#b6c4cf"/></g><g><path d="m400.277 44.006v447.39c0 7.24-5.87 13.12-13.12 13.12h-20c7.25 0 13.12-5.88 13.12-13.12v-447.39c0-7.25-5.87-13.12-13.12-13.12h20c7.25 0 13.12 5.87 13.12 13.12z" fill="#9facba"/></g><g><path d="m322.128 467.381h-186.081c-1.865 0-3.376-1.512-3.375-3.377 0-17.096-13.859-30.946-30.955-30.946-.538 0-1.073.014-1.604.041-1.945.099-3.586-1.416-3.586-3.364v-324.073c0-1.947 1.641-3.463 3.586-3.364.532.027 1.067.041 1.605.041 17.097 0 30.955-13.849 30.955-30.946-.001-1.865 1.51-3.377 3.375-3.377h186.081c1.865 0 3.376 1.512 3.375 3.377 0 17.097 13.859 30.946 30.955 30.946.538 0 1.073-.014 1.605-.041 1.945-.099 3.586 1.416 3.586 3.364v324.073c0 1.947-1.641 3.463-3.586 3.364-.532-.027-1.067-.041-1.604-.041-17.097 0-30.955 13.849-30.955 30.946-.001 1.865-1.512 3.377-3.377 3.377z" fill="#f9f7f8"/></g><g><path d="m361.647 105.666v324.07c0 1.95-1.64 3.46-3.58 3.36-.54-.02-1.07-.04-1.61-.04-17.1 0-30.95 13.85-30.95 30.95 0 .93-.38 1.77-.99 2.38s-1.45.99-2.39.99h-20c.94 0 1.78-.38 2.39-.99s.99-1.45.99-2.38c-4.8-20.63 13.85-45.92 30.95-45.92.54 0 1.07.02 1.61.04 1.94.1 3.58-1.41 3.58-3.36v-296.02c0-1.94-1.64-3.46-3.58-3.36-.54.03-1.07.04-1.61.04-15.24 0-31.72-22.16-31.72-38.4 0-1.98.25-3.88.77-5.63 0-1.87-1.51-3.38-3.38-3.38h20c1.87 0 3.38 1.51 3.38 3.38 0 8.55 3.46 16.28 9.06 21.88s13.34 9.06 21.89 9.06c.54 0 1.07-.01 1.61-.04 1.94-.1 3.58 1.42 3.58 3.37z" fill="#efedef"/></g><g><path d="m342.268 177.02h-198.438c-2.213 0-4.007-1.794-4.007-4.007v-42.541c0-2.213 1.794-4.007 4.007-4.007h198.438c2.213 0 4.007 1.794 4.007 4.007v42.541c0 2.213-1.794 4.007-4.007 4.007z" fill="#e5e1e5"/></g><g><path d="m346.277 130.476v42.54c0 2.21-1.8 4-4.01 4h-43.29c2.21 0 4-1.79 4-4v-42.54c0-2.22-1.79-4.01-4-4.01h43.29c2.21 0 4.01 1.79 4.01 4.01z" fill="#d7d0d6"/></g><g><g><path d="m370.685 151.417h-44.965v87.903c0 4.613 4.629 7.79 8.933 6.132l33.67-12.97c1.52-.586 3.204-.586 4.724 0l33.67 12.97c4.305 1.658 8.933-1.519 8.933-6.132v-87.903z" fill="#c8effe"/></g><g><path d="m415.647 151.416v87.9c0 4.62-4.62 7.79-8.93 6.14l-11.32-4.36c.17-.56.25-1.16.25-1.78v-87.9z" fill="#99e6fc"/></g></g><g><path d="m454.115 87.541c0 8.626-8.128 15.863-10.655 23.647-2.619 8.067-.388 18.682-5.275 25.396-4.936 6.782-15.753 7.916-22.535 12.852-6.715 4.887-11.11 14.852-19.177 17.471-7.784 2.527-17.161-2.869-25.787-2.869s-18.004 5.396-25.788 2.869c-8.067-2.619-12.462-12.585-19.177-17.472-6.782-4.936-17.599-6.07-22.535-12.852-4.887-6.715-2.655-17.329-5.275-25.396-2.527-7.784-10.655-15.021-10.655-23.647s8.128-15.863 10.655-23.647c2.619-8.067.388-18.682 5.275-25.396 4.936-6.782 15.753-7.916 22.535-12.852 6.715-4.887 11.11-14.852 19.177-17.471 7.784-2.527 17.161 2.869 25.787 2.869s18.004-5.396 25.788-2.869c8.067 2.619 12.462 12.585 19.177 17.472 6.782 4.936 17.599 6.07 22.535 12.852 4.887 6.715 2.655 17.329 5.275 25.396 2.527 7.784 10.655 15.02 10.655 23.647z" fill="#fedba6"/></g><g><path d="m454.117 87.536c0 8.63-8.13 15.87-10.66 23.65-2.62 8.07-.38 18.68-5.27 25.4-4.94 6.78-15.76 7.91-22.54 12.85-6.71 4.89-11.11 14.85-19.17 17.47-7.79 2.53-17.17-2.87-25.79-2.87-8.63 0-18.01 5.4-25.79 2.87-4.87-1.58-8.4-5.84-11.909-10.04 6.272-.473 12.283-2.513 17.901-5.266 8.339-4.086 16.062-4.558 25.027-2.876 4.148.779 8.102 1.767 12.332 1.278 2.579-.298 4.926-1.715 6.793-3.52 2.676-2.586 4.347-5.89 6.126-9.105 2.792-5.045 7.893-8.949 13.513-10.23 5.609-1.278 10.246-3.42 10.699-9.776.442-6.202-1.441-11.777.987-17.789 1.931-4.782 5.822-8.543 7.106-13.629 1.252-4.958-2.871-11.033-5.349-15.073-1.878-3.062-4.159-5.895-5.964-8.993-2.835-4.867-2.004-12.061-2.832-17.471-.893-5.839-.99-12.149-2.42-17.931 6.8 4.25 16.63 5.63 21.28 12.01 4.89 6.72 2.65 17.33 5.27 25.4 2.53 7.781 10.66 15.021 10.66 23.641z" fill="#fece85"/></g><g><circle cx="370.685" cy="87.541" fill="#fec165" r="49.854"/></g><g><path d="m420.537 87.536c0 27.54-22.32 49.86-49.85 49.86-14.41 0-27.4-6.12-36.5-15.9 6.42 3.02 13.59 4.7 21.15 4.7 27.54 0 49.86-22.32 49.86-49.86 0-13.12-5.06-25.05-13.34-33.94 16.95 7.96 28.68 25.18 28.68 45.14z" fill="#fdb441"/></g><g><g><path d="m139.822 228.115h147.433c4.143 0 7.5-3.357 7.5-7.5s-3.357-7.5-7.5-7.5h-147.433c-4.142 0-7.5 3.357-7.5 7.5s3.358 7.5 7.5 7.5z"/><path d="m139.822 265.376h147.433c4.143 0 7.5-3.357 7.5-7.5s-3.357-7.5-7.5-7.5h-147.433c-4.142 0-7.5 3.357-7.5 7.5s3.358 7.5 7.5 7.5z"/><path d="m139.822 302.638h89.265c4.142 0 7.5-3.357 7.5-7.5s-3.358-7.5-7.5-7.5h-89.265c-4.142 0-7.5 3.357-7.5 7.5s3.358 7.5 7.5 7.5z"/><path d="m281.919 381.032c-1.894-.399-3.864-1.812-4.901-3.514-.424-.694-.872-1.726-.604-2.701 1.034-3.765-.994-7.693-4.661-9.032-3.667-1.336-7.748.361-9.383 3.907-1.242 2.695-2.732 5.703-4.718 7.292-1.134.907-2.44 1.052-2.741.917-.344-.214-1.375-2.544.289-9.322.655-2.667-.201-5.479-2.23-7.33-1.948-1.777-4.679-2.395-7.192-1.646-2.44.462-11.701.643-21.872.664 1.239-6.377 2.261-12.791 3.062-19.218.512-4.11-2.405-7.857-6.515-8.369-4.116-.511-7.858 2.405-8.37 6.516-.875 7.027-2.031 14.041-3.458 21.001-6.848-.075-12.643-.198-15.23-.325-9.432-.463-18.633-.606-27.466 2.662-6.503 2.406-11.677 7.296-14.194 13.414-2.632 6.396-2.328 13.237.879 19.787 5.008 10.227 15.825 17.176 24.322 19.524 2.867.793 5.797 1.178 8.692 1.178 8.066 0 15.864-2.984 21.275-8.439 5.454-5.5 7.953-12.681 9.867-18.978 1.38-4.541 2.649-9.125 3.804-13.741 6.616.01 13.312-.049 18.75-.265.029 6.073 1.878 12.031 7.678 15.632 5.872 3.646 13.826 2.908 19.858-1.817 3.182 3.446 7.432 5.926 11.967 6.882 7.854 1.656 16.524-.35 25.77-5.959 3.541-2.149 4.67-6.762 2.521-10.303s-6.762-4.669-10.303-2.521c-5.882 3.567-10.892 4.946-14.896 4.104zm-79.501 3.625c-1.455 4.785-3.129 9.715-6.166 12.777-3.54 3.568-9.698 4.921-15.318 3.367-6.024-1.666-12.407-6.681-14.848-11.664-1.301-2.657-1.458-5.104-.479-7.482.928-2.255 2.943-4.098 5.528-5.054 4.166-1.542 8.947-1.974 14.017-1.974 2.448 0 4.964.101 7.51.226.152.007 5.291.152 12.463.271-.845 3.197-1.748 6.377-2.707 9.533z"/><path d="m454.62 69.053c-1.702-2.707-3.31-5.265-4.026-7.476-.779-2.398-1.005-5.53-1.243-8.847-.437-6.054-.931-12.916-5.102-18.646-4.205-5.779-10.606-8.367-16.253-10.651-3.056-1.235-5.94-2.402-7.933-3.852-1.943-1.414-3.914-3.772-6-6.27-3.931-4.703-8.386-10.035-15.273-12.271-6.636-2.152-13.258-.52-19.103.925-3.284.811-6.387 1.577-9.002 1.577s-5.718-.767-9.002-1.577c-5.843-1.444-12.464-3.079-19.102-.925-6.888 2.236-11.343 7.567-15.273 12.271-2.086 2.496-4.057 4.854-6 6.269-1.966 1.431-4.806 2.587-7.818 3.806h-242.473c-11.37 0-20.619 9.25-20.619 20.619v447.389c0 11.369 9.25 20.619 20.619 20.619h316.141c11.369 0 20.619-9.25 20.619-20.619v-238.064c.434.04.868.061 1.302.061 2.805 0 5.587-.839 7.965-2.472 3.823-2.625 6.106-6.962 6.106-11.6v-85.594c1.479-.711 3.132-1.384 4.845-2.076 5.647-2.284 12.049-4.873 16.255-10.652 4.17-5.73 4.664-12.593 5.101-18.647.238-3.315.464-6.447 1.243-8.846.717-2.21 2.324-4.768 4.026-7.475 3.278-5.218 6.995-11.132 6.995-18.488s-3.717-13.27-6.995-18.488zm-61.843 422.341c0 3.099-2.521 5.619-5.619 5.619h-316.141c-3.098 0-5.619-2.521-5.619-5.619v-447.389c0-3.099 2.521-5.619 5.619-5.619h223.689c-1.985 4.682-2.354 9.746-2.686 14.346-.205 2.848-.402 5.557-.947 7.786h-155.026c-2.906 0-5.638 1.132-7.692 3.188s-3.184 4.788-3.183 7.689c0 12.928-10.522 23.445-23.455 23.445-.413 0-.824-.011-1.221-.03-2.981-.16-5.935.937-8.093 2.987-2.146 2.038-3.376 4.905-3.376 7.866v240.443c0 4.143 3.358 7.5 7.5 7.5s7.5-3.357 7.5-7.5v-236.334c18.76-1.116 33.941-15.738 35.925-34.254h143.014c-1.824 3.585-3.21 7.535-3.21 12.023 0 7.356 3.716 13.27 6.995 18.486 1.702 2.708 3.31 5.266 4.026 7.477.507 1.559.778 3.432.972 5.46h-147.919c-6.345 0-11.507 5.162-11.507 11.507v42.542c0 6.345 5.162 11.507 11.507 11.507h174.39v54.801c0 4.638 2.283 8.975 6.107 11.6 3.823 2.625 8.689 3.197 13.021 1.531l16.799-6.472v179.648c-18.76 1.116-33.941 15.738-35.926 34.254h-178.27c-1.982-18.514-17.165-33.138-35.925-34.254v-44.546c0-4.143-3.358-7.5-7.5-7.5s-7.5 3.357-7.5 7.5v48.654c0 2.961 1.23 5.828 3.376 7.866 2.16 2.052 5.107 3.134 8.081 2.988.409-.021.82-.031 1.233-.031 12.933 0 23.455 10.518 23.455 23.441-.001 2.905 1.129 5.638 3.183 7.693 2.055 2.056 4.786 3.188 7.692 3.188h186.081c2.906 0 5.639-1.132 7.692-3.188 2.054-2.055 3.185-4.787 3.183-7.688 0-12.928 10.521-23.445 23.455-23.445.413 0 .824.011 1.221.03 2.993.162 5.935-.936 8.094-2.987 2.146-2.039 3.376-4.905 3.376-7.866v-189.536l1.537-.592 22.092 8.51zm-95.655-350.397c4.205 5.779 10.606 8.367 16.253 10.651 1.714.693 3.367 1.366 4.846 2.077v15.794h-170.899v-35.556h146.408c.723 2.439 1.781 4.822 3.392 7.034zm111.028 96.97-32.405-12.483c-1.632-.629-3.346-.943-5.06-.943s-3.428.314-5.059.942l-32.406 12.484v-69.705c2.609 2.44 5.625 4.566 9.36 5.779 2.309.749 4.614 1.04 6.888 1.04 4.262 0 8.404-1.023 12.215-1.965 3.285-.811 6.387-1.577 9.002-1.577s5.717.767 9.002 1.577c5.842 1.442 12.464 3.078 19.103.925 3.735-1.213 6.751-3.339 9.36-5.779zm33.768-139.919c-2.113 3.363-4.3 6.842-5.593 10.823-1.342 4.135-1.645 8.337-1.938 12.401-.319 4.441-.621 8.637-2.268 10.898-1.68 2.31-5.6 3.895-9.749 5.572-3.762 1.521-7.651 3.094-11.135 5.629-3.44 2.504-6.106 5.694-8.685 8.779-2.889 3.456-5.616 6.72-8.396 7.622-2.561.832-6.601-.163-10.873-1.22-3.824-.944-8.158-2.015-12.599-2.015s-8.774 1.07-12.599 2.015c-4.271 1.057-8.311 2.054-10.873 1.22-2.779-.902-5.507-4.166-8.396-7.622-2.578-3.086-5.244-6.276-8.685-8.78-3.484-2.535-7.374-4.108-11.136-5.629-4.149-1.678-8.068-3.263-9.748-5.571-1.646-2.262-1.948-6.457-2.268-10.898-.293-4.064-.596-8.267-1.938-12.401-1.293-3.981-3.479-7.461-5.594-10.825-2.415-3.842-4.695-7.471-4.695-10.505 0-3.035 2.281-6.665 4.696-10.508 2.113-3.364 4.3-6.842 5.593-10.823 1.342-4.134 1.645-8.337 1.938-12.4.319-4.442.622-8.638 2.269-10.899 1.681-2.31 5.6-3.895 9.749-5.572 3.762-1.521 7.651-3.094 11.135-5.629 3.44-2.504 6.106-5.694 8.685-8.779 2.888-3.456 5.615-6.72 8.396-7.622.667-.217 1.435-.31 2.28-.31 2.4 0 5.432.748 8.592 1.529 3.824.944 8.158 2.015 12.599 2.015s8.775-1.07 12.6-2.016c4.273-1.055 8.313-2.05 10.872-1.219 2.779.902 5.508 4.166 8.396 7.622 2.578 3.086 5.244 6.276 8.685 8.78 3.484 2.535 7.374 4.108 11.136 5.629 4.149 1.678 8.068 3.263 9.748 5.571 1.646 2.262 1.948 6.457 2.268 10.898.293 4.064.596 8.267 1.938 12.401 1.293 3.981 3.479 7.46 5.594 10.824 2.414 3.843 4.695 7.472 4.695 10.507.001 3.035-2.28 6.665-4.696 10.508z"/></g><path d="m370.685 30.187c-31.625 0-57.354 25.729-57.354 57.354s25.729 57.354 57.354 57.354c16.781 0 32.669-7.317 43.591-20.077 2.693-3.146 2.325-7.881-.821-10.575-3.146-2.692-7.881-2.326-10.575.821-8.067 9.426-19.802 14.831-32.194 14.831-23.354 0-42.354-19-42.354-42.354s19-42.354 42.354-42.354 42.354 19 42.354 42.354c0 4.143 3.357 7.5 7.5 7.5s7.5-3.357 7.5-7.5c0-31.625-25.73-57.354-57.355-57.354z"/></g></g></svg>