<svg id="Capa_1" enable-background="new 0 0 512.006 512.006" height="512" viewBox="0 0 512.006 512.006" width="512" xmlns="http://www.w3.org/2000/svg"><g><g><path d="m7.566 26.845v164.965c0 10.684 8.661 19.346 19.346 19.346h15.947c8.162 0 14.547 6.995 13.84 15.127-.58 6.679-1.766 14.637-4.144 21.855-1.85 5.614 3.984 10.625 9.194 7.832 13.09-7.018 29.315-18.715 35.528-35.655 2.013-5.489 7.207-9.159 13.054-9.159h185.637c10.684 0 19.346-8.661 19.346-19.346v-164.965c0-10.684-8.661-19.346-19.346-19.346h-269.056c-10.685.001-19.346 8.662-19.346 19.346z" fill="#b0e7c9"/></g><g><path d="m315.318 26.845v164.96c0 10.69-8.67 19.35-19.35 19.35h-20.09c10.68 0 19.34-8.66 19.34-19.35v-164.96c0-10.68-8.66-19.35-19.34-19.35h20.09c10.68 0 19.35 8.67 19.35 19.35z" fill="#91deb6"/></g><g><path d="m295.968 0h-56.15c-4.143 0-7.5 3.357-7.5 7.5s3.357 7.5 7.5 7.5h56.15c6.532 0 11.846 5.314 11.846 11.846v164.964c0 6.531-5.313 11.846-11.846 11.846h-185.637c-8.932 0-17.008 5.657-20.095 14.076-5.115 13.947-18.604 24.08-29.831 30.417 1.813-6.176 3.078-13.299 3.766-21.217.52-5.973-1.504-11.931-5.551-16.345-4.039-4.405-9.783-6.932-15.761-6.932h-15.947c-6.531 0-11.846-5.314-11.846-11.846v-164.963c0-6.532 5.315-11.846 11.846-11.846h178.523c4.143 0 7.5-3.357 7.5-7.5s-3.357-7.5-7.5-7.5h-178.523c-14.803 0-26.846 12.043-26.846 26.846v164.964c0 14.803 12.043 26.846 26.846 26.846h15.947c1.811 0 3.481.734 4.704 2.068 1.231 1.343 1.822 3.087 1.664 4.909-.676 7.784-1.953 14.565-3.795 20.157-1.817 5.516-.132 11.48 4.295 15.197 2.572 2.159 5.736 3.268 8.936 3.268 2.258 0 4.533-.552 6.63-1.676 13.896-7.45 31.947-20.382 39.025-39.683.931-2.537 3.347-4.241 6.013-4.241h185.637c14.803 0 26.846-12.043 26.846-26.846v-164.963c-.001-14.803-12.043-26.846-26.846-26.846z"/><path d="m79.303 37.079c-23.943 0-43.422 19.479-43.422 43.423s19.479 43.422 43.422 43.422c9.414 0 18.13-3.021 25.251-8.131l5.644 5.644c1.465 1.464 3.385 2.196 5.304 2.196s3.839-.732 5.304-2.196c2.929-2.93 2.929-7.678 0-10.607l-5.74-5.74c4.825-6.996 7.659-15.466 7.659-24.588 0-23.943-19.479-43.423-43.422-43.423zm24.886 57.134-6.366-6.366c-2.93-2.928-7.678-2.928-10.607 0-2.929 2.93-2.929 7.678 0 10.607l6.519 6.519c-4.233 2.506-9.166 3.951-14.431 3.951-15.672 0-28.422-12.75-28.422-28.422 0-15.673 12.75-28.423 28.422-28.423s28.422 12.75 28.422 28.423c-.001 4.969-1.287 9.643-3.537 13.711z"/><path d="m279.499 80.964h-67.252c-4.143 0-7.5 3.357-7.5 7.5s3.357 7.5 7.5 7.5h67.252c4.143 0 7.5-3.357 7.5-7.5s-3.357-7.5-7.5-7.5z"/><path d="m150.895 95.964h26.083c4.143 0 7.5-3.357 7.5-7.5s-3.357-7.5-7.5-7.5h-26.083c-4.143 0-7.5 3.357-7.5 7.5s3.357 7.5 7.5 7.5z"/><path d="m279.499 109.501h-128.604c-4.143 0-7.5 3.357-7.5 7.5s3.357 7.5 7.5 7.5h128.604c4.143 0 7.5-3.357 7.5-7.5s-3.357-7.5-7.5-7.5z"/><path d="m279.499 138.038h-35.189c-4.143 0-7.5 3.357-7.5 7.5s3.357 7.5 7.5 7.5h35.189c4.143 0 7.5-3.357 7.5-7.5s-3.357-7.5-7.5-7.5z"/><path d="m216.829 145.538c0-4.143-3.357-7.5-7.5-7.5h-165.948c-4.143 0-7.5 3.357-7.5 7.5s3.357 7.5 7.5 7.5h165.948c4.143 0 7.5-3.357 7.5-7.5z"/><path d="m43.381 166.575c-4.143 0-7.5 3.357-7.5 7.5s3.357 7.5 7.5 7.5h121.108c4.143 0 7.5-3.357 7.5-7.5s-3.357-7.5-7.5-7.5z"/></g><g><g><path d="m504.44 439.56v-164.964c0-10.684-8.661-19.346-19.346-19.346h-269.056c-10.684 0-19.346 8.661-19.346 19.346v164.964c0 10.684 8.661 19.346 19.346 19.346h185.637c5.846 0 11.04 3.67 13.054 9.159 6.213 16.94 22.438 28.636 35.528 35.655 5.209 2.793 11.043-2.218 9.194-7.832-2.378-7.218-3.563-15.176-4.144-21.855-.707-8.131 5.678-15.127 13.84-15.127h15.948c10.683 0 19.345-8.662 19.345-19.346z" fill="#e5caf3"/></g><g><path d="m504.438 274.595v164.96c0 10.69-8.66 19.35-19.34 19.35h-11.68c6.48-3.27 10.93-9.99 10.93-17.74v-169.4c0-6.89-3.5-12.95-8.82-16.52h9.57c10.68 0 19.34 8.67 19.34 19.35z" fill="#d9b1ee"/></g><g><path d="m247.215 366.843 4.879-12.81h32.992l4.827 12.789c1.133 3.003 3.987 4.854 7.018 4.854.88 0 1.775-.156 2.647-.485 3.875-1.462 5.831-5.789 4.368-9.665l-26.732-70.835c-.025-.068-.053-.136-.08-.204-1.413-3.437-4.727-5.656-8.442-5.656-.003 0-.007 0-.01 0-3.72.004-7.032 2.231-8.439 5.675-.022.056-.045.111-.066.168l-26.978 70.832c-1.475 3.87.469 8.203 4.339 9.678 3.867 1.474 8.202-.469 9.677-4.341zm21.45-56.32 10.76 28.51h-21.618z"/><path d="m504.439 309.879c4.143 0 7.5-3.357 7.5-7.5v-27.783c0-14.803-12.043-26.846-26.846-26.846h-269.055c-14.803 0-26.846 12.043-26.846 26.846v164.965c0 14.803 12.043 26.845 26.846 26.845h185.637c2.666 0 5.082 1.704 6.013 4.242 7.078 19.298 25.129 32.231 39.025 39.682 2.097 1.125 4.372 1.677 6.63 1.677 3.198 0 6.363-1.108 8.936-3.268 4.427-3.717 6.112-9.683 4.295-15.198-1.842-5.592-3.119-12.373-3.795-20.157-.158-1.823.433-3.566 1.664-4.909 1.223-1.334 2.894-2.068 4.704-2.068h15.947c14.803 0 26.846-12.042 26.846-26.845v-102.031c0-4.143-3.357-7.5-7.5-7.5s-7.5 3.357-7.5 7.5v102.029c0 6.531-5.314 11.845-11.846 11.845h-15.947c-5.978 0-11.722 2.526-15.761 6.932-4.047 4.414-6.07 10.372-5.551 16.345.688 7.919 1.952 15.042 3.766 21.218-11.228-6.338-24.716-16.472-29.831-30.417-3.087-8.42-11.163-14.077-20.095-14.077h-185.637c-6.532 0-11.846-5.313-11.846-11.845v-164.965c0-6.531 5.313-11.846 11.846-11.846h269.056c6.531 0 11.846 5.314 11.846 11.846v27.783c-.001 4.142 3.357 7.5 7.499 7.5z"/><path d="m468.625 328.715h-128.604c-4.143 0-7.5 3.357-7.5 7.5s3.357 7.5 7.5 7.5h128.604c4.143 0 7.5-3.357 7.5-7.5s-3.357-7.5-7.5-7.5z"/><path d="m468.625 357.252h-35.364c-4.143 0-7.5 3.357-7.5 7.5s3.357 7.5 7.5 7.5h35.364c4.143 0 7.5-3.357 7.5-7.5s-3.357-7.5-7.5-7.5z"/><path d="m398.52 372.252c4.143 0 7.5-3.357 7.5-7.5s-3.357-7.5-7.5-7.5h-58.499c-4.143 0-7.5 3.357-7.5 7.5s3.357 7.5 7.5 7.5z"/><path d="m476.125 393.289c0-4.143-3.357-7.5-7.5-7.5h-168.066c-4.143 0-7.5 3.357-7.5 7.5s3.357 7.5 7.5 7.5h168.066c4.143 0 7.5-3.357 7.5-7.5z"/><path d="m225.007 393.289c0 4.143 3.357 7.5 7.5 7.5h33.213c4.143 0 7.5-3.357 7.5-7.5s-3.357-7.5-7.5-7.5h-33.213c-4.143 0-7.5 3.357-7.5 7.5z"/><path d="m232.507 429.326h121.108c4.143 0 7.5-3.357 7.5-7.5s-3.357-7.5-7.5-7.5h-121.108c-4.143 0-7.5 3.357-7.5 7.5s3.357 7.5 7.5 7.5z"/></g></g></g></svg>