<svg id="Capa_1" enable-background="new 0 0 512 512" height="512" viewBox="0 0 512 512" width="512" xmlns="http://www.w3.org/2000/svg"><g><g><path d="m428.439 480.372-52.533-188.42c-2.822-10.12-13.319-16.036-23.434-13.216-10.12 2.822-16.037 13.313-13.216 23.435l29.919 107.31h-226.349l29.919-107.31c2.822-10.121-3.096-20.613-13.216-23.435-10.116-2.821-20.613 3.096-23.434 13.216l-52.533 188.42c-2.822 10.121 3.096 20.613 13.216 23.434 1.709.477 3.428.704 5.12.704 8.325 0 15.969-5.509 18.314-13.919l12.006-43.062h247.565l12.006 43.062c2.345 8.411 9.99 13.919 18.314 13.919 1.692 0 3.411-.227 5.12-.704 10.12-2.822 16.037-13.313 13.216-23.434z" fill="#e8ad8c"/></g><g><path d="m117.459 447.529h14.762l-12.004 43.064c-2.347 8.409-9.997 13.912-18.316 13.912-1.698 0-3.415-.22-5.123-.699-1.658-.459-3.206-1.128-4.614-1.967 4.065-2.407 7.251-6.332 8.619-11.245l10.75-38.563c.74-2.661 3.163-4.502 5.926-4.502z" fill="#e19974"/></g><g><path d="m172.748 302.168-29.921 107.311h-11.322c-4.072 0-7.021-3.883-5.927-7.806l27.735-99.505c2.367-8.459-1.388-17.188-8.609-21.462 4.304-2.557 9.617-3.426 14.821-1.967 10.127 2.816 16.039 13.312 13.223 23.429z" fill="#e19974"/></g><g><path d="m415.223 503.806c-1.708.479-3.425.699-5.123.699-3.455 0-6.791-.949-9.687-2.677 7.211-4.274 10.956-12.993 8.599-21.462l-52.532-188.415c-1.368-4.914-4.554-8.839-8.619-11.245 1.408-.839 2.956-1.508 4.614-1.967 10.117-2.826 20.613 3.096 23.43 13.213l52.532 188.416c2.826 10.126-3.097 20.612-13.214 23.438z" fill="#e19974"/></g><g><path d="m496.967 46.244h-481.934c-3.952 0-7.156-3.204-7.156-7.156v-24.441c0-3.952 3.204-7.156 7.156-7.156h481.934c3.952 0 7.156 3.204 7.156 7.156v24.441c0 3.952-3.204 7.156-7.156 7.156z" fill="#8d9ca8"/></g><g><path d="m496.967 363.856h-481.934c-3.952 0-7.156-3.204-7.156-7.156v-24.441c0-3.952 3.204-7.156 7.156-7.156h481.934c3.952 0 7.156 3.204 7.156 7.156v24.441c0 3.952-3.204 7.156-7.156 7.156z" fill="#8d9ca8"/></g><g><path d="m504.118 14.651v24.438c0 3.955-3.196 7.151-7.151 7.151h-20.513c3.955 0 7.151-3.196 7.151-7.151v-24.438c0-3.955-3.196-7.161-7.151-7.161h20.513c3.955 0 7.151 3.206 7.151 7.161z" fill="#7a8c98"/></g><g><path d="m504.118 332.259v24.438c0 3.955-3.196 7.161-7.151 7.161h-20.513c3.955 0 7.151-3.206 7.151-7.161v-24.438c0-3.955-3.196-7.161-7.151-7.161h20.513c3.955 0 7.151 3.206 7.151 7.161z" fill="#7a8c98"/></g><g><path d="m28.392 46.244h455.216v278.86h-455.216z" fill="#f2fbff"/></g><g><path d="m463.631 46.24h19.974v278.858h-19.974z" fill="#dff6fd"/></g><g><path d="m165.328 293.666h-93.798c-2.307 0-4.178-1.87-4.178-4.178v-207.629c0-2.307 1.87-4.178 4.178-4.178h93.797c2.307 0 4.178 1.87 4.178 4.178v207.629c0 2.307-1.87 4.178-4.177 4.178z" fill="#e5caf3"/></g><g><path d="m169.502 81.854v207.631c0 2.307-1.868 4.185-4.175 4.185h-19.974c2.307 0 4.175-1.878 4.175-4.185v-207.631c0-2.307-1.868-4.175-4.175-4.175h19.974c2.308 0 4.175 1.868 4.175 4.175z" fill="#d9b1ee"/></g><g><path d="m483.608 92.265c4.137 0 7.49-3.353 7.49-7.49v-31.041h5.868c8.076 0 14.646-6.571 14.646-14.646v-24.441c.001-8.076-6.569-14.647-14.645-14.647h-481.934c-8.076 0-14.646 6.571-14.646 14.647v24.441c0 8.076 6.571 14.646 14.647 14.646h5.868v263.878h-5.868c-8.076 0-14.647 6.571-14.647 14.647v24.441c0 8.075 6.571 14.646 14.647 14.646h91.149l-6.79 24.355c-1.111 3.985 1.219 8.116 5.204 9.227 3.985 1.108 8.115-1.22 9.227-5.203l7.912-28.379h23.947l-10.071 36.122c-.629 2.256-.166 4.677 1.25 6.541 1.416 1.866 3.624 2.961 5.965 2.961h226.349c2.342 0 4.549-1.095 5.965-2.961 1.416-1.865 1.879-4.286 1.25-6.541l-10.071-36.122h23.947l30.958 111.036c1.708 6.127-1.886 12.5-8.013 14.209-1.019.284-2.065.428-3.107.428-5.15 0-9.714-3.471-11.099-8.441l-12.006-43.062c-.903-3.238-3.853-5.478-7.215-5.478h-247.567c-3.362 0-6.312 2.24-7.215 5.478l-12.006 43.062c-1.385 4.97-5.95 8.441-11.099 8.441-1.042 0-2.088-.144-3.108-.429-6.126-1.708-9.72-8.081-8.012-14.207l13.728-49.237c1.111-3.985-1.219-8.116-5.204-9.227-3.987-1.111-8.116 1.22-9.227 5.203l-13.729 49.238c-3.926 14.083 4.337 28.734 18.418 32.66 2.33.651 4.73.98 7.133.98 11.847 0 22.346-7.977 25.53-19.398l10.478-37.584h236.19l10.478 37.584c3.184 11.421 13.683 19.398 25.53 19.398 2.403 0 4.803-.33 7.131-.979 14.082-3.927 22.345-18.577 18.419-32.662l-29.836-107.013h91.149c8.076 0 14.646-6.571 14.646-14.646v-24.44c0-8.076-6.571-14.647-14.646-14.647h-5.868v-198.135c0-4.137-3.354-7.49-7.49-7.49-4.137 0-7.49 3.353-7.49 7.49v198.135h-440.236v-263.879h440.236v31.041c0 4.137 3.353 7.49 7.49 7.49zm-330.918 309.725 8.544-30.644h189.533l8.544 30.644zm343.943-69.397v23.773h-481.266v-23.773zm-481.266-293.84v-23.773h481.265v23.773z"/><path d="m71.53 70.191c-6.434 0-11.668 5.234-11.668 11.667v207.629c0 6.434 5.234 11.668 11.668 11.668h93.797c6.434 0 11.668-5.234 11.668-11.668v-207.628c0-6.433-5.234-11.667-11.668-11.667h-93.797zm90.485 215.985h-87.172v-201.004h87.172z"/><path d="m244.71 70.191c-23.912 0-43.366 19.453-43.366 43.366s19.454 43.365 43.366 43.365c9.402 0 18.107-3.017 25.219-8.12l5.637 5.637c1.462 1.462 3.379 2.193 5.296 2.193s3.834-.731 5.296-2.193c2.925-2.926 2.925-7.668 0-10.594l-5.732-5.732c4.819-6.987 7.649-15.446 7.649-24.557.002-23.911-19.452-43.365-43.365-43.365zm24.854 57.06-6.359-6.359c-2.925-2.924-7.668-2.924-10.593 0-2.925 2.926-2.925 7.668 0 10.594l6.511 6.511c-4.228 2.503-9.154 3.946-14.413 3.946-15.652 0-28.386-12.734-28.386-28.385 0-15.652 12.734-28.385 28.386-28.385s28.386 12.734 28.386 28.385c0 4.962-1.284 9.629-3.532 13.693z"/><path d="m444.647 114.019h-128.437c-4.137 0-7.49 3.353-7.49 7.49s3.354 7.49 7.49 7.49h128.438c4.137 0 7.49-3.353 7.49-7.49s-3.354-7.49-7.491-7.49z"/><path d="m444.647 149.798h-128.437c-4.137 0-7.49 3.353-7.49 7.49s3.354 7.49 7.49 7.49h128.438c4.137 0 7.49-3.353 7.49-7.49s-3.354-7.49-7.491-7.49z"/><path d="m452.138 193.067c0-4.137-3.354-7.49-7.49-7.49h-235.813c-4.137 0-7.49 3.353-7.49 7.49s3.354 7.49 7.49 7.49h235.813c4.136 0 7.49-3.353 7.49-7.49z"/><path d="m208.835 221.355c-4.137 0-7.49 3.353-7.49 7.49s3.354 7.49 7.49 7.49h120.952c4.137 0 7.49-3.353 7.49-7.49s-3.354-7.49-7.49-7.49z"/></g></g></svg>