<svg id="Capa_1" enable-background="new 0 0 512.033 512.033" height="512" viewBox="0 0 512.033 512.033" width="512" xmlns="http://www.w3.org/2000/svg"><g><g><g><path d="m374.142 504.533h-236.251c-2.008 0-3.636-1.628-3.636-3.636v-18.908c0-8.413 6.82-15.233 15.233-15.233h213.059c8.413 0 15.233 6.82 15.233 15.233v18.908c-.001 2.008-1.629 3.636-3.638 3.636z" fill="#c5d3dd"/></g><g><path d="m377.777 481.985v18.914c0 2.008-1.628 3.636-3.636 3.636h-16.364v-22.55c0-8.41-6.82-15.23-15.23-15.23h20c8.411 0 15.23 6.819 15.23 15.23z" fill="#b6c4cf"/></g><g><path d="m193.067 397.738h125.9v69.018h-125.9z" fill="#8d9ca8"/></g><g><path d="m298.967 397.738h20v69.018h-20z" fill="#7a8c98"/></g><g><path d="m482.306 397.738h-452.579c-12.162 0-22.021-9.859-22.021-22.021v-305.779c0-12.162 9.859-22.021 22.021-22.021h452.579c12.162 0 22.021 9.859 22.021 22.021v305.779c0 12.162-9.859 22.021-22.021 22.021z" fill="#596c76"/></g><g><path d="m504.327 69.935v305.78c0 12.16-9.86 22.02-22.02 22.02h-21.32c12.16 0 22.02-9.86 22.02-22.02v-305.78c0-12.16-9.86-22.02-22.02-22.02h21.32c12.16 0 22.02 9.86 22.02 22.02z" fill="#465a61"/></g><g><path d="m482.306 397.738h-452.579c-12.162 0-22.021-9.859-22.021-22.021v-27.069h496.621v27.069c0 12.162-9.859 22.021-22.021 22.021z" fill="#c5d3dd"/></g><g><path d="m504.327 348.645v27.07c0 12.16-9.86 22.02-22.02 22.02h-21.32c12.16 0 22.02-9.86 22.02-22.02v-27.07z" fill="#b6c4cf"/></g><g><path d="m469.906 348.648h-427.779v-262.209c0-3.652 2.961-6.613 6.613-6.613h414.553c3.652 0 6.613 2.961 6.613 6.613z" fill="#f2fbff"/></g><g><path d="m469.907 86.435v262.21h-20v-262.21c0-3.65-2.96-6.61-6.61-6.61h20c3.65 0 6.61 2.96 6.61 6.61z" fill="#dff6fd"/></g></g><g><path d="m420.317 12.905v335.74h-20.08v-335.74c0-2.99-2.42-5.4-5.4-5.4h20.08c2.98 0 5.4 2.41 5.4 5.4z" fill="#efedef"/></g><g><path d="m420.317 12.905v44.49h-20.08v-44.49c0-2.99-2.42-5.4-5.4-5.4h20.08c2.98 0 5.4 2.41 5.4 5.4z" fill="#d9b1ee"/></g><g><path d="m420.32 348.648h-328.607v-335.747c0-2.983 2.418-5.401 5.401-5.401h317.804c2.983 0 5.401 2.418 5.401 5.401v335.747z" fill="#f9f7f8"/></g><g><path d="m420.317 12.905v335.74h-20v-335.74c0-2.99-2.42-5.4-5.4-5.4h20c2.98 0 5.4 2.41 5.4 5.4z" fill="#efedef"/></g><g><path d="m420.32 57.4h-328.607v-44.499c0-2.983 2.418-5.401 5.401-5.401h317.804c2.983 0 5.401 2.418 5.401 5.401v44.499z" fill="#e5caf3"/></g><g><path d="m420.317 12.905v44.49h-20v-44.49c0-2.99-2.42-5.4-5.4-5.4h20c2.98 0 5.4 2.41 5.4 5.4z" fill="#d9b1ee"/></g><g><g><g><path d="m355.6 312.986h-199.167c-3.541 0-6.412-2.871-6.412-6.412v-35.041c0-3.541 2.871-6.412 6.412-6.412h199.167c3.541 0 6.412 2.871 6.412 6.412v35.041c0 3.541-2.871 6.412-6.412 6.412z" fill="#e5e1e5"/></g></g><g><g><path d="m362.012 271.535v35.04c0 3.54-2.88 6.41-6.42 6.41h-20c3.54 0 6.42-2.87 6.42-6.41v-35.04c0-3.54-2.88-6.41-6.42-6.41h20c3.54 0 6.42 2.87 6.42 6.41z" fill="#d7d0d6"/></g></g></g><g><g><path d="m212.739 143.2v51.175c0 23.901 19.376 43.277 43.277 43.277 23.901 0 43.277-19.376 43.277-43.277v-51.175z" fill="#596c76"/></g><g><path d="m299.295 143.2v51.18c0 11.95-4.85 22.77-12.68 30.6s-18.65 12.67-30.6 12.67c-3.44 0-6.79-.4-10-1.16 7.94-1.88 15.03-5.94 20.6-11.51 7.83-7.83 12.68-18.65 12.68-30.6v-51.18z" fill="#465a61"/></g><g><path d="m301.05 265.118h-90.067v-12.174c0-24.871 20.162-45.034 45.034-45.034 24.871 0 45.034 20.162 45.034 45.034v12.174z" fill="#e5caf3"/></g><g><path d="m301.045 252.94v12.18h-20v-12.18c0-12.43-5.04-23.69-13.19-31.84-5.9-5.9-13.42-10.17-21.84-12.08 3.22-.72 6.56-1.11 10-1.11 12.43 0 23.69 5.04 31.84 13.19s13.19 19.41 13.19 31.84z" fill="#d9b1ee"/></g><g><path d="m256.017 223.416c-7.633 0-13.82-6.188-13.82-13.82v-31.856h27.641v31.855c-.001 7.633-6.189 13.821-13.821 13.821z" fill="#fed2a4"/></g><g><path d="m269.835 177.74v31.86c0 7.63-6.19 13.82-13.82 13.82-2.51 0-4.88-.67-6.91-1.86 4.13-2.38 6.91-6.85 6.91-11.96v-31.86z" fill="#ffbd86"/></g><g><path d="m256.017 193.691c-21.566 0-39.049-17.483-39.049-39.049v-15.513l39.049-16.329 39.049 16.329v15.513c0 21.566-17.483 39.049-39.049 39.049z" fill="#fed2a4"/></g><g><path d="m295.065 139.13v15.51c0 21.57-17.48 39.05-39.05 39.05-2.7 0-5.34-.27-7.88-.79 17.79-3.66 31.16-19.39 31.16-38.26v-22.1z" fill="#ffbd86"/></g><g><path d="m295.002 117.668c-3.091-6.498-7.33-11.393-11.878-15.078-15.69-12.712-38.526-12.712-54.215 0-4.548 3.685-8.787 8.58-11.878 15.078-2.966 6.235-4.292 13.124-4.292 20.028v21.287s27.593-.696 43.277-26.861c15.684 26.166 43.277 26.861 43.277 26.861v-21.287c.001-6.904-1.325-13.793-4.291-20.028z" fill="#596c76"/></g><g><path d="m299.295 137.7v21.28s-9.2-.23-20-5.47v-15.81c0-6.91-1.33-13.8-4.29-20.03-3.09-6.5-7.33-11.4-11.88-15.08-5.11-4.14-10.98-6.93-17.11-8.36 12.7-3 26.53-.21 37.11 8.36 4.55 3.68 8.79 8.58 11.88 15.08 2.96 6.23 4.29 13.12 4.29 20.03z" fill="#465a61"/></g></g><g><path d="m482.306 40.417h-54.486v-27.516c0-7.114-5.788-12.901-12.902-12.901h-317.803c-7.114 0-12.901 5.787-12.901 12.901v27.516h-54.487c-16.278 0-29.521 13.243-29.521 29.521v305.778c0 16.278 13.243 29.521 29.521 29.521h47.647c4.142 0 7.5-3.357 7.5-7.5s-3.358-7.5-7.5-7.5h-47.647c-8.007 0-14.521-6.515-14.521-14.521v-19.569h481.621v19.569c0 8.007-6.514 14.521-14.521 14.521h-369.663c-4.142 0-7.5 3.357-7.5 7.5s3.358 7.5 7.5 7.5h72.924v54.018h-36.079c-12.535 0-22.733 10.198-22.733 22.733v18.907c0 6.141 4.996 11.137 11.137 11.137h236.251c6.141 0 11.137-4.996 11.137-11.137v-18.907c0-12.535-10.198-22.733-22.733-22.733h-36.079v-54.018h155.839c16.278 0 29.521-13.243 29.521-29.521v-305.778c-.001-16.278-13.244-29.521-29.522-29.521zm-398.093 300.73h-34.587v-253.822h34.587zm0-283.748v14.926h-35.473c-7.782 0-14.114 6.332-14.114 14.114v254.708h-19.42v-271.209c0-8.007 6.514-14.521 14.521-14.521h54.486zm116.353 347.839h110.9v54.018h-110.9zm161.98 69.018c4.264 0 7.733 3.469 7.733 7.733v15.044h-228.525v-15.044c0-4.265 3.469-7.733 7.733-7.733zm-263.333-459.256h313.607v34.899h-313.607zm363.194 326.147h-34.587v-189.501c0-4.143-3.358-7.5-7.5-7.5s-7.5 3.357-7.5 7.5v189.501h-313.607v-276.248h313.607v52.617c0 4.143 3.358 7.5 7.5 7.5s7.5-3.357 7.5-7.5v-30.191h34.587zm34.42 0h-19.42v-254.708c0-7.782-6.332-14.114-14.114-14.114h-35.473v-14.926-1.982h54.486c8.007 0 14.521 6.515 14.521 14.521z"/><path d="m355.6 257.62h-47.05v-4.676c0-11.518-3.733-22.174-10.044-30.838 5.229-7.978 8.288-17.499 8.288-27.73v-56.68c0-8.426-1.688-16.249-5.019-23.25-3.286-6.907-7.972-12.856-13.93-17.684-18.442-14.943-45.214-14.942-63.658.001-5.957 4.825-10.643 10.775-13.929 17.684-3.331 7-5.019 14.822-5.019 23.249v56.68c0 10.233 3.056 19.758 8.286 27.738-6.31 8.662-10.042 19.315-10.042 30.83v4.676h-47.049c-7.671 0-13.913 6.241-13.913 13.912v35.042c0 7.671 6.241 13.912 13.913 13.912h199.166c7.671 0 13.913-6.241 13.913-13.912v-35.042c-.001-7.671-6.242-13.912-13.913-13.912zm-135.361-119.924c0-6.18 1.199-11.834 3.564-16.806 2.317-4.87 5.624-9.067 9.827-12.473 6.487-5.255 14.437-7.883 22.388-7.883 7.949 0 15.9 2.628 22.385 7.882 4.204 3.406 7.511 7.604 9.827 12.473 2.365 4.973 3.564 10.627 3.564 16.807v12.497c-8.071-2.102-20.755-7.599-29.345-21.928-1.355-2.26-3.797-3.644-6.433-3.644s-5.078 1.384-6.433 3.645c-8.615 14.372-21.276 19.856-29.344 21.943zm35.778 48.495c-14.081 0-26.034-9.274-30.08-22.034 8.74-2.559 20.373-7.932 30.08-19.235 9.707 11.303 21.34 16.676 30.08 19.235-4.046 12.76-15.999 22.034-30.08 22.034zm6.32 14.555v8.85c0 3.485-2.835 6.32-6.32 6.32s-6.32-2.835-6.32-6.32v-8.85c2.069.282 4.175.446 6.32.446s4.251-.164 6.32-.446zm15-4.756c5.563-2.883 10.482-6.843 14.457-11.621v10.007c0 6.022-1.504 11.695-4.146 16.679-3.178-2.404-6.631-4.462-10.311-6.103zm-57.098-11.619c3.975 4.778 8.894 8.737 14.457 11.62v8.968c-3.677 1.64-7.129 3.696-10.304 6.097-2.642-4.985-4.153-10.656-4.153-16.68zm-1.756 68.573c0-14.001 7.712-26.226 19.107-32.675 3.695 6.354 10.562 10.646 18.427 10.646 7.86 0 14.723-4.287 18.42-10.635 11.393 6.45 19.114 18.662 19.114 32.663v4.674h-75.067v-4.673zm136.029 52.542h-196.991v-32.866h196.991z"/><circle cx="189.123" cy="289.089" r="7.5"/><circle cx="222.57" cy="289.089" r="7.5"/><circle cx="256.017" cy="289.089" r="7.5"/><circle cx="289.463" cy="289.089" r="7.5"/><circle cx="322.91" cy="289.089" r="7.5"/></g></g></svg>