<svg id="Capa_1" enable-background="new 0 0 512 512" height="512" viewBox="0 0 512 512" width="512" xmlns="http://www.w3.org/2000/svg"><g><g><path d="m192.05 106.757h-51.084v-23.255c0-4.265 3.458-7.723 7.723-7.723h35.638c4.265 0 7.723 3.458 7.723 7.723z" fill="#c5d3dd"/></g><g><path d="m192.052 83.505v23.252h-19.959v-23.252c0-4.271-3.463-7.724-7.724-7.724h19.959c4.261 0 7.724 3.453 7.724 7.724z" fill="#b6c4cf"/></g><g><path d="m147.4 158.117 19.533 306.643h178.135l19.532-306.643z" fill="#e8ad8c"/></g><g><path d="m384.823 158.117h-257.645c-1.712 0-3.1-1.388-3.1-3.1v-45.16c0-1.712 1.388-3.1 3.1-3.1h257.645c1.712 0 3.1 1.388 3.1 3.1v45.16c0 1.712-1.388 3.1-3.1 3.1z" fill="#f4d7c8"/></g><g><g><path d="m377.578 504.515h-243.156c-3.026 0-5.478-2.453-5.478-5.478v-15.652c0-10.286 8.339-18.625 18.625-18.625h216.863c10.286 0 18.625 8.339 18.625 18.625v15.652c0 3.025-2.453 5.478-5.479 5.478z" fill="#f4d7c8"/></g></g><g><path d="m364.597 158.121-19.53 306.639h-19.68l19.53-306.639z" fill="#e19974"/></g><g><path d="m387.919 109.861v45.157c0 1.706-1.387 3.103-3.094 3.103h-19.69c1.716 0 3.104-1.397 3.104-3.103v-45.157c0-1.717-1.387-3.104-3.104-3.104h19.69c1.707 0 3.094 1.387 3.094 3.104z" fill="#ecbba3"/></g><g><g><path d="m383.059 483.382v15.658c0 3.024-2.455 5.479-5.479 5.479h-19.68c3.024 0 5.469-2.455 5.469-5.479v-15.658c0-10.279-8.333-18.622-18.622-18.622h19.68c10.289 0 18.632 8.343 18.632 18.622z" fill="#ecbba3"/></g></g><g><path d="m256 106.757h-50.454v165.519c0 3.224 1.778 6.185 4.623 7.7l41.729 22.23c2.564 1.366 5.64 1.366 8.204 0l41.729-22.23c2.845-1.516 4.623-4.477 4.623-7.7v-165.519z" fill="#b0e7c9"/></g><g><path d="m306.456 106.757v165.519c0 3.223-1.776 6.187-4.62 7.704l-41.734 22.224c-2.565 1.367-5.638 1.367-8.203 0l-14.4-7.674c1.387-.06 2.754-.399 4.012-1.028l45.706-22.773c3.114-1.557 5.07-4.591 5.07-7.894v-156.078z" fill="#91deb6"/></g><g><circle cx="201.744" cy="22.302" fill="#8d9ca8" r="14.817"/></g><g><path d="m216.561 22.301c0 8.183-6.636 14.819-14.82 14.819-7.036 0-12.933-4.91-14.44-11.496 1.487.519 3.084.788 4.75.788 8.183 0 14.819-6.626 14.819-14.809 0-1.148-.13-2.265-.379-3.333 5.859 1.966 10.07 7.514 10.07 14.031z" fill="#7a8c98"/></g><g><g><path d="m320.98 271.673-56.92 56.92c-4.452 4.452-11.671 4.452-16.123 0l-56.92-56.92c-4.452-4.452-4.452-11.671 0-16.123l56.92-56.92c4.452-4.452 11.671-4.452 16.123 0l56.92 56.92c4.453 4.452 4.453 11.671 0 16.123z" fill="#fedba6"/></g><g><path d="m320.985 271.67-56.923 56.923c-4.451 4.451-11.676 4.451-16.127 0l-3.533-3.533c1.367-.489 2.655-1.297 3.753-2.395l51.723-51.724c4.052-4.052 4.052-10.608 0-14.66l-51.723-51.724c-1.098-1.098-2.385-1.896-3.753-2.395l3.533-3.533c4.451-4.451 11.676-4.451 16.127 0l56.923 56.923c4.451 4.452 4.451 11.667 0 16.118z" fill="#fece85"/></g><g><path d="m384.823 99.273h-28.036c-4.134 0-7.485 3.351-7.485 7.485s3.35 7.485 7.485 7.485h23.651v36.39h-15.838-50.661v-36.39h8.437c4.134 0 7.485-3.351 7.485-7.485s-3.35-7.485-7.485-7.485h-122.842v-15.771c0-8.386-6.822-15.208-15.207-15.208h-9.648l19.417-25.042c2.387.874 4.963 1.352 7.649 1.352 12.297 0 22.302-10.005 22.302-22.302-.001-12.297-10.005-22.302-22.302-22.302s-22.302 10.005-22.302 22.302c0 4.155 1.145 8.045 3.132 11.379l-21.981 28.35c-1.017 1.313-1.57 2.926-1.57 4.586v1.677h-10.335c-8.386 0-15.207 6.822-15.207 15.208v15.771h-6.304c-5.836 0-10.584 4.748-10.584 10.584v45.16c0 5.837 4.748 10.585 10.584 10.585h13.2l12.014 188.597c.262 4.124 3.819 7.266 7.945 6.993 4.125-.262 7.257-3.819 6.994-7.945l-11.953-187.646h42.685v72.319l-12.337 12.337c-3.567 3.567-5.532 8.309-5.532 13.354 0 5.044 1.964 9.786 5.532 13.354l56.919 56.919c3.567 3.568 8.31 5.533 13.354 5.533 5.045 0 9.787-1.965 13.354-5.532l56.921-56.92c0-.001 0-.001 0-.001 7.363-7.364 7.362-19.345 0-26.708l-12.335-12.335v-72.321h42.685l-18.578 291.673h-164.09l-4.396-69.01c-.263-4.125-3.818-7.263-7.945-6.993-4.125.262-7.257 3.819-6.994 7.945l4.336 68.059h-11.388c-14.397 0-26.109 11.712-26.109 26.109v15.652c0 7.148 5.815 12.964 12.963 12.964h243.156c7.148 0 12.964-5.815 12.964-12.964v-15.652c0-14.397-11.712-26.109-26.109-26.109h-11.388l18.579-291.673h13.2c5.836 0 10.584-4.748 10.584-10.585v-45.16c-.002-5.835-4.75-10.583-10.586-10.583zm-183.078-84.304c4.043 0 7.333 3.289 7.333 7.333s-3.289 7.333-7.333 7.333c-4.043 0-7.333-3.289-7.333-7.333s3.289-7.333 7.333-7.333zm11.286 99.273h85.939v108.711l-29.617-29.617c-7.363-7.363-19.345-7.363-26.708 0l-29.614 29.614zm-64.58-30.74c0-.132.107-.239.238-.239h35.638c.132 0 .238.107.238.239v15.771h-36.115v-15.771zm-1.051 67.13h-15.838v-36.39h66.499v36.39zm168.288 110.211c1.527 1.526 1.527 4.011 0 5.538v-.001l-56.921 56.921c-1.479 1.479-4.058 1.48-5.538-.001l-56.919-56.919c-.74-.741-1.148-1.724-1.148-2.77 0-1.047.407-2.029 1.147-2.769l56.92-56.921c.764-.764 1.766-1.145 2.769-1.145s2.006.381 2.769 1.145zm48.744 211.401c6.143 0 11.14 4.998 11.14 11.14v13.647h-239.144v-13.647c0-6.143 4.997-11.14 11.14-11.14z"/><path d="m230.751 263.612c0 16.145 13.135 29.279 29.28 29.279 6.511 0 12.369-2.152 16.938-6.222.899-.8 1.75-1.679 2.53-2.611 2.654-3.169 2.236-7.889-.934-10.543-3.168-2.653-7.89-2.237-10.543.934-.314.373-.653.724-1.009 1.041-1.812 1.614-4.16 2.431-6.983 2.431-7.891 0-14.31-6.419-14.31-14.309 0-7.891 6.419-14.31 14.31-14.31 2.868 0 5.633.844 7.994 2.439 3.424 2.314 8.077 1.414 10.392-2.01s1.415-8.077-2.01-10.392c-4.846-3.276-10.509-5.006-16.375-5.006-16.145-.001-29.28 13.134-29.28 29.279z"/></g></g></g></svg>