<svg id="Capa_1" enable-background="new 0 0 512 512" height="512" viewBox="0 0 512 512" width="512" xmlns="http://www.w3.org/2000/svg"><g><g><path d="m359.979 504.511h-226.735v-71.858c0-62.611 50.756-113.367 113.367-113.367 62.611 0 113.367 50.756 113.367 113.367v71.858z" fill="#b0e7c9"/></g><g><path d="m359.976 432.654v71.856h-19.662v-71.856c0-31.305-12.692-59.644-33.202-80.164-18.343-18.334-42.948-30.426-70.328-32.773 3.235-.29 6.511-.429 9.826-.429 31.305 0 59.644 12.692 80.164 33.202 20.511 20.52 33.202 48.859 33.202 80.164z" fill="#91deb6"/></g><g><path d="m359.984 432.648v71.861h-226.745v-71.861c0-30.386 11.958-57.979 31.423-78.338l65.922 38.515c9.907 5.783 22.149 5.783 32.055 0l65.922-38.515c19.465 20.359 31.423 47.952 31.423 78.338z" fill="#8d9ca8"/></g><g><path d="m359.976 432.654v71.856h-19.662v-71.856c0-26.751-9.267-51.346-24.774-70.738l13.011-7.599c.609.629 1.208 1.268 1.807 1.917 4.33 4.692 8.334 9.935 11.754 15.318 2.772 4.364 6.25 9.835 7.978 14.739.27.599.539 1.198.789 1.808 4.454 9.246 6.904 19.975 8.188 30.115.6 4.734.909 9.547.909 14.44z" fill="#7a8c98"/></g><g><path d="m246.611 343.869c-10.862 0-19.667-8.805-19.667-19.667v-29.501h39.334v29.501c.001 10.862-8.805 19.667-19.667 19.667z" fill="#fed2a4"/></g><g><path d="m266.282 294.704v29.497c0 10.864-8.807 19.672-19.671 19.672-3.585 0-6.94-.959-9.826-2.636 5.871-3.405 9.826-9.756 9.826-17.035v-29.497h19.671z" fill="#ffbd86"/></g><g><path d="m152.192 138.771v72.025c0 52.146 42.273 94.419 94.419 94.419 52.146 0 94.419-42.273 94.419-94.419v-72.025l-94.419-28.516z" fill="#fed2a4"/></g><g><path d="m341.03 138.767v72.028c0 26.079-10.565 49.679-27.658 66.762-17.083 17.093-40.682 27.658-66.762 27.658-3.624 0-7.195-.201-10.714-.615 21.788-2.448 41.318-12.324 56.038-27.044 17.082-17.082 27.648-40.682 27.648-66.762v-78.503z" fill="#ffbd86"/></g><g><path d="m349.017 212.906h-7.987v-42.656h7.987c11.779 0 21.328 9.549 21.328 21.328 0 11.779-9.549 21.328-21.328 21.328z" fill="#fed2a4"/></g><g><path d="m144.205 212.906h7.987v-42.656h-7.987c-11.779 0-21.328 9.549-21.328 21.328.001 11.779 9.549 21.328 21.328 21.328z" fill="#fed2a4"/></g><g><g><path d="m246.61 70.411h-94.418v90.634l94.418-16.472 94.417 16.472v-90.634z" fill="#8d9ca8"/></g><g><path d="m341.03 70.409v90.637l-16.927-2.953v-87.684z" fill="#7a8c98"/></g></g><g><path d="m413.87 51.768-156.577-42.844c-6.992-1.913-14.37-1.913-21.362 0l-156.578 42.844c-3.926 1.074-3.931 6.641-.007 7.722l156.514 43.132c7.037 1.939 14.467 1.939 21.504 0l156.513-43.132c3.924-1.081 3.919-6.647-.007-7.722z" fill="#596c76"/></g><g><path d="m413.874 59.489-156.515 43.129c-7.035 1.941-14.461 1.941-21.496 0l-14.187-3.913 142.329-39.216c3.924-1.076 3.913-6.645-.011-7.721l-142.318-38.942 14.25-3.903c6.993-1.909 14.376-1.909 21.369 0l156.579 42.844c3.923 1.077 3.923 6.646 0 7.722z" fill="#465a61"/></g><g><circle cx="416.764" cy="182.402" fill="#8d9ca8" r="18.831"/></g><g><path d="m435.596 182.406c0 10.395-8.428 18.823-18.833 18.823-7.09 0-13.271-3.924-16.476-9.716.679.08 1.378.12 2.077.12 10.395 0 18.833-8.428 18.833-18.833 0-3.295-.849-6.411-2.357-9.107 9.427 1.029 16.756 9.007 16.756 18.713z" fill="#7a8c98"/></g><g><path d="m208.888 207.945c4.137 0 7.489-3.353 7.489-7.489v-17.756c0-4.137-3.353-7.489-7.489-7.489s-7.489 3.353-7.489 7.489v17.756c0 4.137 3.353 7.489 7.489 7.489z"/><path d="m284.334 207.945c4.137 0 7.489-3.353 7.489-7.489v-17.756c0-4.137-3.353-7.489-7.489-7.489s-7.489 3.353-7.489 7.489v17.756c0 4.137 3.352 7.489 7.489 7.489z"/><path d="m246.652 255.688c10.281 0 19.719-5.616 24.632-14.656 1.975-3.635.63-8.182-3.005-10.156-3.634-1.976-8.181-.631-10.156 3.004-2.289 4.213-6.685 6.829-11.472 6.829-4.833 0-9.248-2.654-11.523-6.926-1.944-3.65-6.479-5.036-10.131-3.09-3.651 1.944-5.034 6.48-3.09 10.131 4.883 9.168 14.365 14.864 24.745 14.864z"/><path d="m424.256 157.174c.003-34.661.005-102.539-.031-102.858-.035-.465-.113-.917-.229-1.355-.939-4.041-3.978-7.274-8.151-8.416h.001l-156.577-42.845c-8.281-2.266-17.034-2.266-25.315 0l-156.576 42.845c-5.055 1.383-8.456 5.833-8.461 11.075-.005 5.24 3.387 9.698 8.44 11.09l67.347 18.56v77.491h-.497c-15.89 0-28.818 12.927-28.818 28.818 0 15.889 12.927 28.817 28.818 28.817h.953c3.992 42.528 34.226 77.537 74.297 88.63v5.862c-53.606 12.356-93.7 60.462-93.7 117.767v71.858c0 4.137 3.353 7.489 7.489 7.489h226.734c4.137 0 7.489-3.353 7.489-7.489v-71.858c0-57.305-40.094-105.411-93.7-117.767v-5.861c40.07-11.093 70.305-46.102 74.297-88.63h.954c15.889 0 28.817-12.927 28.817-28.817s-12.928-28.818-28.817-28.818h-.498l-.003-24.775c0-4.137-3.353-7.489-7.489-7.489-4.137 0-7.489 3.353-7.489 7.489v14.15l-85.641-14.941c-.852-.148-1.722-.148-2.574 0l-85.642 14.941v-.462-62.277l74.188 20.445c4.168 1.149 8.455 1.722 12.741 1.722 4.287 0 8.573-.573 12.741-1.722l74.186-20.444v13.537c0 4.137 3.353 7.489 7.489 7.489s7.489-3.353 7.489-7.489v-17.665l60.759-16.744v88.647c-10.875 3.234-18.831 13.317-18.831 25.229 0 14.513 11.807 26.32 26.32 26.32 14.512 0 26.319-11.807 26.319-26.32-.001-11.911-7.956-21.994-18.829-25.229zm-279.553 48.243h-.497c-7.632 0-13.839-6.208-13.839-13.838 0-7.632 6.208-13.839 13.839-13.839h.497zm203.816-27.678h.498c7.63 0 13.838 6.208 13.838 13.839s-6.208 13.838-13.838 13.838h-.498zm-32.391 175.161-57.265 33.456c-7.556 4.412-16.947 4.413-24.502.002l-7.966-4.653c-3.571-2.087-8.159-.882-10.244 2.688-2.087 3.572-.882 8.158 2.688 10.244l7.968 4.655c6.107 3.565 12.955 5.347 19.802 5.347 6.848 0 13.698-1.783 19.806-5.349l60.613-35.413c15.863 18.511 25.459 42.54 25.459 68.776v64.369h-36.027v-44.241c0-4.137-3.353-7.489-7.489-7.489s-7.489 3.353-7.489 7.489v44.241h-109.741v-44.241c0-4.137-3.353-7.489-7.489-7.489s-7.489 3.353-7.489 7.489v44.241h-36.029v-64.369c0-26.236 9.598-50.264 25.461-68.775l22.813 13.328c1.188.694 2.488 1.024 3.771 1.024 2.574 0 5.081-1.329 6.473-3.712 2.087-3.571.883-8.157-2.688-10.244l-19.465-11.373c12.212-10.652 26.87-18.568 43.024-22.745 2.723 12.119 13.563 21.202 26.49 21.202 12.929 0 23.77-9.086 26.491-21.206 16.153 4.178 30.811 12.095 43.024 22.748zm-81.694-28.698v-12.221c3.994.478 8.057.724 12.178.724 4.12 0 8.184-.246 12.178-.724v12.221c0 6.715-5.463 12.179-12.178 12.179-6.716-.001-12.178-5.464-12.178-12.179zm12.176-172.027 86.931 15.166v43.455c0 47.934-38.996 86.93-86.93 86.93-47.932 0-86.927-38.994-86.93-86.925v-43.46zm8.764-56.772c-5.734 1.58-11.793 1.58-17.525 0l-144.276-39.761 144.334-39.495c5.695-1.558 11.714-1.558 17.408 0l114.175 31.242h-111.191c-4.137 0-7.489 3.353-7.489 7.489s3.353 7.489 7.489 7.489h116.946zm161.39 98.341c-6.254 0-11.342-5.088-11.342-11.342s5.088-11.342 11.342-11.342 11.341 5.088 11.341 11.342-5.087 11.342-11.341 11.342z"/></g></g></svg>