<svg id="Capa_1" enable-background="new 0 0 512.444 512.444" height="512" viewBox="0 0 512.444 512.444" width="512" xmlns="http://www.w3.org/2000/svg"><g><g><g><path d="m127.218 314.978h-75.125v-296.976c0-5.802 4.703-10.505 10.505-10.505h54.115c5.802 0 10.505 4.703 10.505 10.505z" fill="#c5d3dd"/></g><g><path d="m460.516 314.978h-75.125v-296.976c0-5.802 4.703-10.505 10.505-10.505h54.115c5.802 0 10.505 4.703 10.505 10.505z" fill="#c5d3dd"/></g></g><g><g><path d="m127.216 17.998v296.982h-20.332v-296.982c0-5.798-4.698-10.496-10.506-10.496h20.333c5.806-.001 10.505 4.698 10.505 10.496z" fill="#b6c4cf"/></g><g><path d="m460.515 17.998v296.982h-20.333v-296.982c0-5.798-4.698-10.496-10.506-10.496h20.333c5.808-.001 10.506 4.698 10.506 10.496z" fill="#b6c4cf"/></g></g><g><path d="m433.817 445.891h28.935c9.351 0 16.931-7.58 16.931-16.931v-97.052c0-9.351-7.58-16.931-16.931-16.931h-28.935z" fill="#8d9ca8"/></g><g><path d="m479.678 331.904v97.055c0 9.356-7.577 16.934-16.924 16.934h-19.993c9.347 0 16.924-7.577 16.924-16.934v-97.055c0-9.347-7.577-16.924-16.924-16.924h19.993c9.347 0 16.924 7.577 16.924 16.924z" fill="#7a8c98"/></g><g><path d="m78.627 445.891h-28.935c-9.351 0-16.931-7.58-16.931-16.931v-97.052c0-9.351 7.58-16.931 16.931-16.931h28.935z" fill="#8d9ca8"/></g><g><path d="m58.63 314.98h19.993v130.913h-19.993z" fill="#7a8c98"/></g><g><path d="m377.238 504.942h-241.867c-31.339 0-56.744-25.405-56.744-56.744v-256.378c0-98.129 79.549-177.678 177.678-177.678 98.129 0 177.678 79.549 177.678 177.678v256.378c0 31.339-25.406 56.744-56.745 56.744z" fill="#c8effe"/></g><g><path d="m433.985 191.815v256.387c0 31.339-25.411 56.74-56.75 56.74h-19.993c31.339 0 56.75-25.401 56.75-56.74v-256.387c0-49.062-19.893-93.486-52.041-125.635-29.949-29.949-70.554-49.262-115.638-51.762 3.309-.19 6.638-.28 9.996-.28 49.062 0 93.486 19.893 125.635 52.041 32.148 32.15 52.041 76.574 52.041 125.636z" fill="#99e6fc"/></g><g><path d="m433.982 387.45v60.75c0 31.334-25.403 56.746-56.746 56.746h-241.863c-31.343 0-56.746-25.412-56.746-56.746v-60.75z" fill="#c5d3dd"/></g><g><path d="m433.985 387.454v60.748c0 5.697-.871 11.502-2.549 16.874-1.65 5.28-4.041 10.24-7.137 14.845-5.1 7.584-10.949 12.974-18.814 17.504-4.378 2.522-8.921 4.387-13.785 5.648-4.618 1.22-9.467 1.869-14.465 1.869h-19.993c31.339 0 56.75-25.401 56.75-56.74v-60.748z" fill="#b6c4cf"/></g><g><path d="m315.929 160.076-52.227 52.227c-4.085 4.085-10.709 4.085-14.794 0l-52.227-52.227c-4.085-4.085-4.085-10.709 0-14.794l52.227-52.227c4.085-4.085 10.709-4.085 14.794 0l52.227 52.227c4.085 4.085 4.085 10.708 0 14.794z" fill="#fedba6"/></g><g><path d="m315.928 160.076-52.221 52.231c-4.088 4.078-10.716 4.078-14.794 0l-4.239-4.238 48.233-48.233c3.949-3.949 3.949-10.366 0-14.315l-48.233-48.233 4.239-4.238c4.078-4.079 10.706-4.079 14.794 0l52.221 52.231c4.088 4.089 4.088 10.707 0 14.795z" fill="#fece85"/></g><g><path d="m342.491 439.496h-172.373c-10.612 0-19.214-8.603-19.214-19.214v-87.737h210.802v87.737c-.001 10.611-8.603 19.214-19.215 19.214z" fill="#f9f7f8"/></g><g><path d="m361.701 332.544v87.738c0 10.616-8.597 19.213-19.213 19.213h-19.993c10.616 0 19.213-8.597 19.213-19.213v-87.738z" fill="#efedef"/></g><g><path d="m342.491 281.632h-172.373c-10.612 0-19.214 8.603-19.214 19.214v31.698h210.802v-31.698c-.001-10.612-8.603-19.214-19.215-19.214z" fill="#8d9ca8"/></g><g><path d="m361.701 300.846v31.699h-19.993v-31.699c0-10.616-8.597-19.213-19.213-19.213h19.993c10.616-.001 19.213 8.596 19.213 19.213z" fill="#7a8c98"/></g><g><path d="m237.948 411.898h-47.085c-2.793 0-5.057-2.264-5.057-5.057v-27.455c0-2.793 2.264-5.057 5.057-5.057h47.085c2.793 0 5.057 2.264 5.057 5.057v27.455c.001 2.793-2.264 5.057-5.057 5.057z" fill="#fedba6"/></g><g><path d="m243.004 379.387v27.45c0 2.799-2.259 5.058-5.058 5.058h-19.993c2.799 0 5.058-2.259 5.058-5.058v-27.45c0-2.789-2.259-5.058-5.058-5.058h19.993c2.799 0 5.058 2.269 5.058 5.058z" fill="#fece85"/></g><g><path d="m269.003 87.752c-7.004-7.002-18.396-7-25.398 0l-52.227 52.228c-7 7.001-7 18.395 0 25.397l52.228 52.227c3.501 3.501 8.1 5.25 12.698 5.25 4.599 0 9.198-1.75 12.699-5.25l52.227-52.227c7.001-7.002 7.001-18.396 0-25.398zm41.624 67.022-52.226 52.227c-1.154 1.156-3.036 1.157-4.192 0l-52.227-52.226c-1.156-1.156-1.156-3.037 0-4.192l52.227-52.227c.577-.578 1.336-.867 2.095-.867.76 0 1.519.289 2.096.867l52.227 52.227c1.156 1.155 1.156 3.036 0 4.191z"/><path d="m190.864 419.395h47.084c6.923 0 12.555-5.632 12.555-12.554v-27.455c0-6.923-5.632-12.555-12.555-12.555h-47.084c-6.922 0-12.554 5.632-12.554 12.555v27.455c0 6.923 5.631 12.554 12.554 12.554zm2.44-37.569h42.205v22.575h-42.205z"/><path d="m468.013 308.058v-230.007c0-4.141-3.356-7.497-7.497-7.497s-7.497 3.356-7.497 7.497v229.43h-11.539v-115.662c0-48.088-18.43-91.949-48.592-124.903v-48.914c0-1.659 1.349-3.008 3.008-3.008h54.115c1.659 0 3.008 1.349 3.008 3.008v25.351c0 4.141 3.356 7.497 7.497 7.497s7.497-3.356 7.497-7.497v-25.351c0-9.926-8.076-18.002-18.002-18.002h-54.115c-9.926 0-18.002 8.076-18.002 18.002v34.272c-32.554-28.401-75.096-45.629-121.589-45.629s-89.035 17.228-121.589 45.629v-34.272c0-9.926-8.076-18.002-18.002-18.002h-54.116c-9.926 0-18.002 8.076-18.002 18.002v290.018c-11.031 2.351-19.332 12.167-19.332 23.889v97.052c0 13.47 10.959 24.429 24.429 24.429h21.665c2.653 33.004 30.34 59.055 64.016 59.055h241.864c33.675 0 61.363-26.051 64.016-59.055h21.499c13.47 0 24.429-10.959 24.429-24.429v-97.052c-.002-11.664-8.22-21.438-19.169-23.851zm-396.883 130.336h-21.438c-5.202 0-9.434-4.232-9.434-9.434v-97.052c0-5.201 4.232-9.433 9.434-9.433h2.4 19.038zm0-246.575v115.661h-11.54v-289.478c0-1.659 1.349-3.008 3.008-3.008h54.116c1.659 0 3.008 1.349 3.008 3.008v48.914c-30.162 32.954-48.592 76.815-48.592 124.903zm355.356 256.379c0 27.155-22.093 49.248-49.248 49.248h-241.867c-27.155 0-49.247-22.093-49.247-49.248v-53.25h57.282v25.335c0 14.729 11.983 26.712 26.712 26.712h172.373c14.728 0 26.711-11.983 26.711-26.712v-25.335h57.117v50.944c0 .537.059 1.06.166 1.564v.742zm-268.085-27.916v-80.24h195.807v80.24c0 6.461-5.256 11.718-11.717 11.718h-172.373c-6.46-.001-11.717-5.258-11.717-11.718zm267.919-40.329h-19.654v-3.929c0-4.141-3.356-7.497-7.497-7.497s-7.497 3.356-7.497 7.497v3.929h-22.469v-47.409-31.698c0-14.729-11.983-26.712-26.711-26.712h-116.516c-4.141 0-7.497 3.356-7.497 7.497s3.356 7.497 7.497 7.497h116.515c6.461 0 11.717 5.257 11.717 11.718v24.2h-195.807v-24.2c0-6.461 5.257-11.718 11.718-11.718h20.533c4.141 0 7.497-3.356 7.497-7.497s-3.356-7.497-7.497-7.497h-20.533c-14.729 0-26.712 11.983-26.712 26.712v31.698 47.409h-22.468v-3.929c0-4.141-3.356-7.497-7.497-7.497s-7.497 3.356-7.497 7.497v3.929h-19.82v-188.134c0-93.837 76.343-170.18 170.181-170.18s170.181 76.343 170.181 170.18zm45.866 49.007c0 5.202-4.232 9.434-9.434 9.434h-21.272v-115.919h19.036 2.235c5.202 0 9.434 4.232 9.434 9.433v97.052z"/><path d="m120.092 144.414c-3.994-1.063-8.109 1.307-9.179 5.308-1.845 6.904-3.194 14.015-4.009 21.135-.471 4.114 2.481 7.83 6.595 8.302.29.033.578.05.863.05 3.758 0 7-2.821 7.439-6.645.732-6.392 1.943-12.775 3.599-18.97 1.068-4.001-1.308-8.11-5.308-9.18z"/><path d="m113.441 199.934c-4.141 0-7.497 3.356-7.497 7.497v20.435c0 4.141 3.356 7.497 7.497 7.497s7.497-3.356 7.497-7.497v-20.435c.001-4.141-3.355-7.497-7.497-7.497z"/><path d="m113.441 312.329c-4.141 0-7.497 3.356-7.497 7.497v20.436c0 4.141 3.356 7.497 7.497 7.497s7.497-3.356 7.497-7.497v-20.436c.001-4.141-3.355-7.497-7.497-7.497z"/><path d="m147.699 95.808c-3.262-2.55-7.975-1.972-10.524 1.292-4.409 5.643-8.439 11.652-11.977 17.858-2.051 3.597-.798 8.176 2.8 10.227 1.172.668 2.448.985 3.707.985 2.605 0 5.137-1.36 6.52-3.785 3.179-5.578 6.802-10.979 10.767-16.054 2.548-3.262 1.97-7.974-1.293-10.523z"/><path d="m113.441 256.131c-4.141 0-7.497 3.356-7.497 7.497v20.436c0 4.141 3.356 7.497 7.497 7.497s7.497-3.356 7.497-7.497v-20.436c.001-4.141-3.355-7.497-7.497-7.497z"/><path d="m399.168 255.975c-4.141 0-7.497 3.356-7.497 7.497v20.435c0 4.141 3.356 7.497 7.497 7.497s7.497-3.356 7.497-7.497v-20.435c.001-4.141-3.356-7.497-7.497-7.497z"/><path d="m399.168 312.172c-4.141 0-7.497 3.356-7.497 7.497v20.436c0 4.141 3.356 7.497 7.497 7.497s7.497-3.356 7.497-7.497v-20.435c.001-4.141-3.356-7.498-7.497-7.498z"/><path d="m399.168 199.776c-4.141 0-7.497 3.356-7.497 7.497v20.436c0 4.141 3.356 7.497 7.497 7.497s7.497-3.356 7.497-7.497v-20.436c.001-4.14-3.356-7.497-7.497-7.497z"/><path d="m364.821 95.701c-3.26 2.552-3.835 7.264-1.284 10.526 3.969 5.072 7.596 10.469 10.778 16.037 1.384 2.422 3.914 3.778 6.516 3.778 1.261 0 2.54-.318 3.713-.989 3.595-2.055 4.843-6.635 2.789-10.23-3.541-6.195-7.574-12.196-11.989-17.837-2.549-3.262-7.261-3.837-10.523-1.285z"/><path d="m387.174 153.449c1.663 6.197 2.881 12.578 3.619 18.966.441 3.821 3.682 6.637 7.438 6.637.288 0 .578-.017.871-.051 4.113-.475 7.062-4.195 6.587-8.308-.822-7.116-2.179-14.225-4.033-21.131-1.073-4-5.181-6.37-9.184-5.297-4 1.073-6.372 5.185-5.298 9.184z"/><path d="m273.141 55.234c6.395.782 12.785 2.028 18.992 3.702.654.177 1.311.261 1.957.261 3.305 0 6.332-2.203 7.234-5.547 1.079-3.998-1.289-8.113-5.286-9.191-6.889-1.858-13.98-3.24-21.077-4.108-4.102-.514-7.85 2.421-8.352 6.532-.503 4.109 2.421 7.848 6.532 8.351z"/><path d="m218.355 59.242c.65 0 1.311-.085 1.968-.264 6.202-1.682 12.589-2.936 18.984-3.724 4.11-.507 7.03-4.248 6.523-8.358-.507-4.111-4.259-7.038-8.358-6.523-7.099.876-14.189 2.266-21.075 4.134-3.996 1.084-6.357 5.202-5.272 9.199.905 3.339 3.929 5.536 7.23 5.536z"/><path d="m348.696 70.551c-5.666-4.364-11.694-8.355-17.916-11.865-3.604-2.034-8.179-.759-10.213 2.847s-.76 8.179 2.846 10.213c5.603 3.161 11.031 6.755 16.134 10.686 1.363 1.05 2.972 1.557 4.569 1.557 2.247 0 4.469-1.005 5.946-2.923 2.526-3.282 1.914-7.989-1.366-10.515z"/><path d="m191.898 61.603c-2.039-3.604-6.612-4.871-10.217-2.835-6.214 3.515-12.234 7.511-17.889 11.876-3.277 2.53-3.884 7.239-1.354 10.517 1.478 1.913 3.697 2.916 5.94 2.916 1.6 0 3.212-.51 4.576-1.562 5.092-3.931 10.512-7.53 16.109-10.694 3.605-2.04 4.874-6.614 2.835-10.218z"/><path d="m277.42 161.286c-3.171-2.661-7.9-2.246-10.562.926-.272.324-.563.625-.867.895-1.564 1.393-3.522 2.071-5.987 2.071-6.893 0-12.5-5.607-12.5-12.5 0-6.892 5.607-12.499 12.5-12.499 2.506 0 4.921.737 6.984 2.13 3.431 2.317 8.092 1.417 10.409-2.016 2.317-3.431 1.415-8.092-2.016-10.409-4.551-3.074-9.869-4.699-15.377-4.699-15.16 0-27.495 12.333-27.495 27.494s12.334 27.495 27.495 27.495c6.132 0 11.651-2.03 15.961-5.869.843-.751 1.644-1.577 2.381-2.456 2.662-3.173 2.247-7.901-.926-10.563z"/></g></g></svg>