<svg id="Capa_1" enable-background="new 0 0 512.043 512.043" height="512" viewBox="0 0 512.043 512.043" width="512" xmlns="http://www.w3.org/2000/svg"><g><g><ellipse cx="256.022" cy="469.078" fill="#b0e7c9" rx="151.169" ry="35.479"/></g><g><path d="m407.186 469.074c0 19.594-67.677 35.485-151.165 35.485-81.991 0-148.739-15.332-151.095-34.437 23.487 12.438 76.551 21.121 138.258 21.121 83.488 0 151.175-15.891 151.175-35.485 0-.349-.02-.689-.07-1.038 8.296 4.382 12.897 9.243 12.897 14.354z" fill="#91deb6"/></g><g><path d="m436.915 289.015c11.579-25.294 18.018-53.432 17.959-83.084-.221-109.988-88.864-198.445-198.853-198.445-109.823.001-198.851 89.03-198.851 198.853 0 49.101 17.806 94.037 47.301 128.727 26.722 35.756 73.243 86.446 145.79 130.229 3.542 2.138 7.981 2.138 11.523 0 72.548-43.783 119.068-94.473 145.791-130.229 11.772-13.846 21.683-29.321 29.34-46.047-.001-.001 0-.004 0-.004z" fill="#fe99a0"/></g><g><path d="m454.87 205.933c.06 29.646-6.378 57.785-17.957 83.079v.01c-7.656 16.72-17.568 32.201-29.337 46.046-26.721 35.755-73.247 86.443-145.795 130.223-3.544 2.136-7.975 2.136-11.519 0-4.003-2.416-7.926-4.851-11.769-7.307 1.707-.14 3.384-.659 4.891-1.567 72.548-43.79 119.073-94.478 145.795-130.233 11.769-13.845 21.68-29.317 29.337-46.046 11.589-25.294 18.027-53.433 17.967-83.089-.16-75.243-41.684-140.404-103.122-174.063 71.4 30.006 121.339 100.417 121.509 182.947z" fill="#fd8087"/></g><g><circle cx="256.022" cy="203.305" fill="#f9f7f8" r="145.198"/></g><g><path d="m401.217 203.308c0 80.184-65.002 145.196-145.196 145.196-31.612 0-60.859-10.101-84.696-27.25 20.083 10.491 42.932 16.43 67.168 16.43 80.194 0 145.196-65.002 145.196-145.196 0-48.582-23.857-91.583-60.49-117.945 46.366 24.245 78.018 72.807 78.018 128.765z" fill="#efedef"/></g><g><g><g><path d="m260.513 302.126c-54.49 0-98.822-44.331-98.822-98.822s44.331-98.82 98.822-98.82c19.801 0 38.911 5.84 55.266 16.889 9.422 6.366 11.9 19.164 5.535 28.587-6.366 9.422-19.164 11.901-28.587 5.535-9.521-6.433-20.661-9.833-32.214-9.833-31.785 0-57.644 25.859-57.644 57.643 0 31.785 25.859 57.644 57.644 57.644 11.715 0 21.554-3.472 29.242-10.32 1.499-1.334 2.936-2.819 4.272-4.411 7.311-8.71 20.298-9.844 29.006-2.536 8.71 7.311 9.845 20.296 2.536 29.006-2.614 3.114-5.449 6.037-8.427 8.69-15.24 13.574-34.822 20.748-56.629 20.748z" fill="#c5d3dd"/></g></g></g><g><g><g><path d="m203.348 210.704c-5.101-8.594-8.025-18.616-8.025-29.307 0-31.782 25.863-57.645 57.645-57.645 11.549 0 22.689 3.404 32.211 9.832 9.423 6.368 22.22 3.893 28.588-5.53 1.298-1.916 2.226-3.983 2.805-6.099 8.764 6.508 10.93 18.846 4.741 27.999-6.368 9.423-19.165 11.908-28.588 5.54-9.523-6.428-20.662-9.832-32.211-9.832-31.782 0-57.645 25.853-57.645 57.645-.001 2.506.159 4.982.479 7.397z" fill="#b6c4cf"/></g><g><path d="m325.575 272.692c-2.615 3.114-5.45 6.029-8.435 8.684-15.242 13.575-34.817 20.752-56.627 20.752-47.314 0-86.962-33.419-96.584-77.888 15.981 33.1 49.889 55.978 89.038 55.978 21.81 0 41.385-7.167 56.627-20.742 2.985-2.655 5.819-5.58 8.435-8.694 1.976-2.356 3.334-5.031 4.093-7.816.309.23.609.469.908.719 8.714 7.306 9.852 20.292 2.545 29.007z" fill="#b6c4cf"/></g></g></g><g><path d="m401.899 60.164c-38.878-38.798-90.685-60.164-145.878-60.164-46.793 0-90.913 15.272-127.589 44.166-3.248 2.559-3.807 7.266-1.248 10.514s7.267 3.807 10.514 1.248c34.01-26.793 74.926-40.955 118.324-40.955 51.199 0 99.25 19.813 135.301 55.789 36.051 35.977 55.962 83.987 56.065 135.185.056 27.855-5.745 54.728-17.244 79.875-.012.026-.025.053-.037.08-7.308 15.963-16.808 30.873-28.236 44.314-.102.12-.199.243-.293.368-25.837 34.571-71.734 84.892-143.662 128.302-1.167.704-2.618.704-3.787 0-71.93-43.41-117.826-93.731-143.661-128.302-.094-.125-.192-.248-.293-.368-29.353-34.523-45.518-78.516-45.518-123.877 0-46.983 17.19-92.161 48.403-127.214 2.75-3.087 2.475-7.82-.612-10.57-3.088-2.748-7.819-2.475-10.57.613-33.658 37.796-52.194 86.511-52.194 137.17 0 48.833 17.374 96.195 48.931 133.396 18.614 24.878 47.278 57.614 88.014 90.28-14.285 1.708-27.522 3.945-39.21 6.688-33.212 7.795-50.052 18.688-50.052 32.376s16.84 24.581 50.052 32.377c29.096 6.828 67.665 10.589 108.604 10.589 28.226 0 55.836-1.822 79.843-5.269 4.093-.588 6.934-4.382 6.346-8.474-.587-4.093-4.375-6.93-8.474-6.347-23.314 3.348-50.188 5.117-77.715 5.117-39.82 0-77.174-3.62-105.182-10.193-36.846-8.647-38.501-17.712-38.501-17.8s1.655-9.151 38.501-17.799c15.268-3.583 33.329-6.278 53.041-7.996 13.07 9.643 27.211 19.186 42.512 28.42 2.97 1.792 6.299 2.689 9.629 2.688 3.329 0 6.66-.896 9.63-2.688 15.302-9.235 29.445-18.78 42.516-28.423 19.712 1.718 37.768 4.416 53.036 8 36.846 8.647 38.501 17.711 38.501 17.799 0 2.004-5.984 9.304-32.572 16.324-3.998 1.056-6.383 5.153-5.327 9.15 1.055 3.998 5.152 6.375 9.149 5.327 29.421-7.768 43.722-17.844 43.722-30.801 0-13.688-16.84-24.58-50.052-32.376-11.687-2.743-24.929-4.977-39.217-6.683 40.739-32.667 69.406-65.406 88.021-90.285 12.233-14.42 22.411-30.407 30.254-47.52.013-.027.025-.055.038-.082 12.428-27.149 18.698-56.155 18.638-86.215-.111-55.193-21.583-106.956-60.461-145.754z"/><path d="m256.022 355.989c84.19 0 152.684-68.493 152.684-152.684s-68.494-152.684-152.684-152.684-152.684 68.493-152.684 152.684 68.493 152.684 152.684 152.684zm0-290.395c75.934 0 137.712 61.777 137.712 137.711s-61.777 137.711-137.712 137.711-137.712-61.777-137.712-137.711 61.777-137.711 137.712-137.711z"/><path d="m260.513 309.612c23.672 0 44.976-7.83 61.608-22.644 3.248-2.892 6.338-6.078 9.183-9.468 9.951-11.858 8.399-29.602-3.459-39.553-11.857-9.95-29.6-8.401-39.554 3.458-1.109 1.321-2.291 2.543-3.516 3.633-6.275 5.589-14.439 8.423-24.263 8.423-27.657 0-50.158-22.501-50.158-50.158s22.501-50.157 50.158-50.157c10.053 0 19.743 2.957 28.022 8.55 6.215 4.2 13.693 5.726 21.055 4.301s13.729-5.633 17.927-11.847c8.665-12.828 5.279-30.315-7.548-38.981-17.597-11.889-38.157-18.172-59.457-18.172-58.619 0-106.308 47.688-106.308 106.306.002 58.62 47.692 106.309 106.31 106.309zm0-197.642c18.301 0 35.962 5.396 51.075 15.606 5.987 4.044 7.567 12.205 3.523 18.192-1.96 2.9-4.931 4.864-8.368 5.529-3.435.668-6.926-.047-9.825-2.007-10.764-7.272-23.353-11.116-36.405-11.116-35.913 0-65.131 29.217-65.131 65.129 0 35.913 29.218 65.13 65.131 65.13 13.607 0 25.121-4.11 34.218-12.212 1.763-1.569 3.456-3.316 5.03-5.193 4.645-5.533 12.925-6.257 18.46-1.613 5.534 4.644 6.258 12.925 1.615 18.459-2.381 2.836-4.963 5.499-7.673 7.912-13.847 12.333-31.708 18.853-51.65 18.853-50.363 0-91.336-40.973-91.336-91.336.001-50.361 40.974-91.333 91.336-91.333z"/></g></g></svg>