<svg id="Capa_1" enable-background="new 0 0 512 512" height="512" viewBox="0 0 512 512" width="512" xmlns="http://www.w3.org/2000/svg"><g><g><path d="m183.423 7.483 72.577 53.728v40.833s-80.099 4.298-97.292-77.369z" fill="#c8effe"/></g><g><path d="m328.578 7.483-72.578 53.728v40.833s80.099 4.298 97.292-77.369z" fill="#c8effe"/></g><g><path d="m183.423 7.483h145.155l-72.578 53.728z" fill="#f9f7f8"/></g><g><path d="m328.579 7.483-72.579 53.73-16.004-11.843 56.574-41.887z" fill="#efedef"/></g><g><path d="m353.293 24.676-97.293 77.369-97.292-77.369-41.908 20.417v415.656c0 3.994 3.238 7.232 7.232 7.232h131.968 131.968c3.994 0 7.232-3.238 7.232-7.232v-415.656z" fill="#e5e1e5"/></g><g><path d="m395.201 45.089v415.656c0 4.001-3.243 7.234-7.234 7.234h-20.155c3.991 0 7.234-3.352 7.234-7.503v-425.205z" fill="#d7d0d6"/></g><g><path d="m116.8 45.093-8.351 4.727c-30.706 17.38-51.801 47.822-57.293 82.676l-42.666 270.799c-.746 4.735 2.066 9.308 6.628 10.78l49.081 15.833c5.253 1.694 10.862-1.313 12.359-6.625l40.242-142.86z" fill="#c8effe"/></g><g><path d="m116.8 45.089v235.337l-40.241 142.852c-1.497 5.318-7.104 8.322-12.362 6.625l-14.937-4.819c3.412-.718 6.326-3.263 7.344-6.865l40.241-142.862v-218.005c3.692-2.734 7.563-5.248 11.604-7.533z" fill="#99e6fc"/></g><g><path d="m395.201 45.093 8.351 4.727c30.705 17.38 51.801 47.823 57.293 82.676l42.666 270.799c.746 4.735-2.066 9.308-6.628 10.78l-49.081 15.833c-5.253 1.694-10.862-1.313-12.359-6.625l-40.242-142.86z" fill="#c8effe"/></g><g><path d="m496.885 414.079-15.286 4.929c1.746-2.115 2.594-4.929 2.135-7.812l-43.224-274.35c-4.759-30.263-21.143-57.243-45.309-75.402v-16.355l8.351 4.73c30.702 17.381 51.805 47.824 57.293 82.676l42.665 270.798c.748 4.739-2.065 9.309-6.625 10.786z" fill="#99e6fc"/></g><g><g><g><path d="m332.178 235.029c-27.334 0-49.572-22.238-49.572-49.572s22.238-49.572 49.572-49.572c9.932 0 19.52 2.931 27.726 8.475 6.415 4.333 8.102 13.047 3.768 19.462-4.334 6.414-13.047 8.104-19.462 3.767-3.554-2.401-7.715-3.67-12.032-3.67-11.875 0-21.537 9.661-21.537 21.537s9.661 21.537 21.537 21.537c4.206 0 7.539-1.148 10.19-3.509.514-.459 1.008-.969 1.466-1.515 4.973-5.934 13.815-6.71 19.747-1.739 5.933 4.973 6.712 13.814 1.739 19.747-1.328 1.585-2.776 3.078-4.304 4.44-7.794 6.943-17.765 10.612-28.838 10.612z" fill="#e5caf3"/></g></g></g><g><g><g><path d="m302.776 171.977c0-11.874 9.659-21.542 21.542-21.542 4.31 0 8.471 1.277 12.023 3.672 6.416 4.34 15.136 2.644 19.467-3.762 1.477-2.185 2.255-4.64 2.375-7.094.579.359 1.147.728 1.716 1.108 6.416 4.33 8.112 13.051 3.772 19.467-4.33 6.416-13.041 8.102-19.457 3.762-3.562-2.395-7.723-3.662-12.033-3.662-11.874 0-21.542 9.658-21.542 21.532 0 1.137.09 2.255.259 3.342-4.949-3.942-8.122-10.018-8.122-16.823z" fill="#d9b1ee"/></g><g><path d="m365.317 219.98c-1.327 1.587-2.774 3.073-4.3 4.44-7.793 6.935-17.771 10.607-28.836 10.607-21.043 0-39.053-13.171-46.237-31.7 9.1 11.115 22.919 18.22 38.375 18.22 11.065 0 21.043-3.672 28.836-10.606 1.527-1.367 2.973-2.864 4.3-4.44 2.006-2.385 3.073-5.238 3.243-8.132 1.018.489 1.986 1.107 2.884 1.866 5.936 4.968 6.714 13.809 1.735 19.745z" fill="#d9b1ee"/></g></g></g><g><path d="m372 504.517h-232c-3.576 0-6.475-2.899-6.475-6.475v-30.06h244.95v30.06c0 3.575-2.899 6.475-6.475 6.475z" fill="#c8effe"/></g><g><path d="m378.478 467.979v30.063c0 3.572-2.904 6.476-6.476 6.476h-20.644c3.572 0 6.476-2.904 6.476-6.476v-30.063z" fill="#99e6fc"/></g><g><path d="m308.702 308.078c-1.232-5.422-5.996-9.305-11.556-9.305h-41.146-41.145c-5.56 0-10.324 3.883-11.556 9.305-2.558 11.252-9.935 30.111-31.176 41.636-3.871 2.101-6.318 6.117-6.318 10.522v44.475c0 6.588 5.341 11.929 11.929 11.929h78.266 78.265c6.588 0 11.929-5.341 11.929-11.929v-44.475c0-4.405-2.446-8.421-6.318-10.522-21.239-11.525-28.617-30.385-31.174-41.636z" fill="#f9f7f8"/></g><g><path d="m346.2 360.239v44.471c0 6.585-5.348 11.933-11.934 11.933h-19.956c6.585 0 11.934-5.348 11.934-11.933v-38.175c0-4.4-2.455-8.421-6.326-10.517-21.233-11.534-28.616-36.688-31.171-47.944-1.237-5.418-5.997-9.299-11.554-9.299h19.956c5.558 0 10.317 3.882 11.554 9.299 2.554 11.255 9.938 30.113 31.171 41.637 3.871 2.106 6.326 6.118 6.326 10.528z" fill="#efedef"/></g><g><path d="m275.123 185.457c0 31.46 25.594 57.055 57.055 57.055 12.936 0 24.63-4.324 33.815-12.505 1.797-1.6 3.5-3.357 5.063-5.222 3.689-4.402 5.444-9.977 4.94-15.698s-3.206-10.904-7.609-14.594c-9.086-7.614-22.674-6.417-30.285 2.665-.229.273-.468.52-.711.737-.843.751-2.197 1.614-5.212 1.614-7.748 0-14.053-6.304-14.053-14.053s6.304-14.054 14.053-14.054c2.818 0 5.53.825 7.842 2.387 4.76 3.218 10.487 4.388 16.125 3.294 5.637-1.092 10.513-4.315 13.728-9.073 3.215-4.759 4.385-10.486 3.293-16.123-1.092-5.639-4.314-10.515-9.073-13.73-9.448-6.382-20.484-9.757-31.915-9.757-31.462.002-57.056 25.597-57.056 57.057zm83.349-30.724c.332 1.714-.023 3.453-1.001 4.899-.977 1.447-2.459 2.426-4.172 2.759-1.715.332-3.452-.022-4.9-1.002-4.796-3.24-10.405-4.953-16.221-4.953-16.002 0-29.019 13.019-29.019 29.021s13.018 29.02 29.019 29.02c6.039 0 11.142-1.818 15.166-5.402.78-.695 1.528-1.467 2.225-2.298 2.313-2.76 6.442-3.125 9.205-.811 1.338 1.122 2.159 2.696 2.312 4.435.153 1.738-.38 3.433-1.502 4.772-1.097 1.31-2.29 2.54-3.545 3.658-6.402 5.701-14.653 8.715-23.861 8.715-23.207 0-42.088-18.881-42.088-42.088s18.881-42.088 42.088-42.088c8.434 0 16.573 2.487 23.537 7.192 1.446.976 2.426 2.457 2.757 4.171z"/><path d="m510.902 402.131-36.664-232.703c-.642-4.082-4.469-6.868-8.556-6.227-4.083.643-6.871 4.474-6.227 8.556l36.664 232.703c.174 1.102-.471 2.149-1.533 2.493l-49.081 15.832c-.792.256-1.439.011-1.755-.159-.316-.169-.878-.572-1.104-1.373l-39.961-141.865v-221.405c27.339 16.56 45.771 43.965 50.768 75.677l.552 3.497c.644 4.083 4.473 6.873 8.557 6.226 4.083-.644 6.87-4.475 6.226-8.557l-.552-3.496c-5.88-37.326-28.113-69.409-60.998-88.024-5.637-3.191-11.341-6.199-17.154-9.031-4.641-2.261-9.282-4.522-13.924-6.783-6.38-3.108-12.726-6.201-19.066-9.289l-24.243-16.863c-1.073-.747-2.56-1.233-3.861-1.307-.138-.008-145.568-.033-145.568-.033-.153 0-.301.027-.452.036-.613.037-1.202.129-1.791.314-.701.22-1.426.569-2.03.99-.004.003-24.242 16.864-24.242 16.864l-41.385 20.162c-.064.031-.12.073-.183.106-.074.039-.152.067-.226.109l-8.351 4.727c-32.884 18.614-55.118 50.697-60.999 88.024l-42.666 270.8c-1.328 8.429 3.602 16.447 11.723 19.066l49.081 15.832c1.747.563 3.535.843 5.312.843 2.796 0 5.565-.691 8.109-2.054 4.161-2.231 7.158-5.962 8.438-10.507l25.556-90.723v126.162c0 8.114 6.601 14.715 14.715 14.715h2.01v22.577c0 7.697 6.262 13.958 13.959 13.958h232c7.697 0 13.958-6.262 13.958-13.958v-22.577h2.01c8.114 0 14.715-6.602 14.715-14.715v-126.164l25.555 90.724c1.28 4.544 4.277 8.276 8.438 10.506 2.543 1.363 5.313 2.054 8.108 2.054 1.778 0 3.566-.28 5.313-.843l49.081-15.832c8.123-2.618 13.053-10.638 11.724-19.065zm-401.585-122.743-39.963 141.865c-.226.801-.788 1.204-1.103 1.373-.316.169-.963.411-1.756.159l-49.081-15.832c-1.062-.343-1.706-1.392-1.533-2.494l42.668-270.799c4.996-31.712 23.43-59.118 50.768-75.677zm231.448-254.311-77.282 61.456v-21.55l65.23-48.289zm-34.874-10.11-49.89 36.933-49.891-36.933zm-42.407 291.29h33.661c2.042 0 3.793 1.432 4.259 3.479 2.675 11.765 10.765 33.458 34.905 46.556 1.482.804 2.403 2.315 2.403 3.943v44.475c0 2.452-1.995 4.446-4.446 4.446h-70.782zm-80.198-289.563 65.231 48.289v21.55l-77.282-61.456zm-59.003 443.804v-410.727l33.46-16.302 90.774 72.185v185.636h-33.662c-9.076 0-16.829 6.222-18.854 15.13-2.581 11.356-9.438 26.945-27.446 36.716-6.312 3.424-10.233 9.976-10.233 17.1v44.475c0 10.705 8.709 19.413 19.413 19.413h13.726c4.133 0 7.483-3.35 7.483-7.483s-3.35-7.483-7.483-7.483h-13.726c-2.452 0-4.446-1.995-4.446-4.446v-44.475c0-1.629.92-3.14 2.403-3.944 24.14-13.098 32.23-34.79 34.904-46.555.466-2.048 2.217-3.479 4.259-3.479h33.662v102.9h-22.159c-4.133 0-7.483 3.35-7.483 7.483s3.35 7.483 7.483 7.483h22.159v36.374h-124.234zm246.709 36.535h-229.984v-21.568h229.983v21.568zm16.725-36.535h-124.233v-36.374h70.782c10.705 0 19.413-8.708 19.413-19.413v-44.475c0-7.124-3.921-13.676-10.232-17.099-18.009-9.771-24.866-25.36-27.448-36.717-2.025-8.908-9.778-15.13-18.854-15.13h-33.661v-185.635l90.774-72.185 33.46 16.302v410.726z"/></g></g></svg>