<svg id="Capa_1" enable-background="new 0 0 512.033 512.033" height="512" viewBox="0 0 512.033 512.033" width="512" xmlns="http://www.w3.org/2000/svg"><g><g><g><path d="m374.142 504.533h-236.251c-2.008 0-3.636-1.628-3.636-3.636v-18.908c0-8.413 6.82-15.233 15.233-15.233h213.059c8.413 0 15.233 6.82 15.233 15.233v18.908c-.001 2.008-1.629 3.636-3.638 3.636z" fill="#c5d3dd"/></g><g><path d="m377.777 481.985v18.914c0 2.008-1.628 3.636-3.636 3.636h-16.364v-22.55c0-8.41-6.82-15.23-15.23-15.23h20c8.411 0 15.23 6.819 15.23 15.23z" fill="#b6c4cf"/></g><g><path d="m193.067 397.738h125.9v69.018h-125.9z" fill="#8d9ca8"/></g><g><path d="m298.967 397.738h20v69.018h-20z" fill="#7a8c98"/></g><g><path d="m482.306 397.738h-452.579c-12.162 0-22.021-9.859-22.021-22.021v-305.779c0-12.162 9.859-22.021 22.021-22.021h452.579c12.162 0 22.021 9.859 22.021 22.021v305.779c0 12.162-9.859 22.021-22.021 22.021z" fill="#596c76"/></g><g><path d="m504.327 69.935v305.78c0 12.16-9.86 22.02-22.02 22.02h-21.32c12.16 0 22.02-9.86 22.02-22.02v-305.78c0-12.16-9.86-22.02-22.02-22.02h21.32c12.16 0 22.02 9.86 22.02 22.02z" fill="#465a61"/></g><g><path d="m482.306 397.738h-452.579c-12.162 0-22.021-9.859-22.021-22.021v-27.069h496.621v27.069c0 12.162-9.859 22.021-22.021 22.021z" fill="#c5d3dd"/></g><g><path d="m504.327 348.645v27.07c0 12.16-9.86 22.02-22.02 22.02h-21.32c12.16 0 22.02-9.86 22.02-22.02v-27.07z" fill="#b6c4cf"/></g><g><path d="m469.906 348.648h-427.779v-262.209c0-3.652 2.961-6.613 6.613-6.613h414.553c3.652 0 6.613 2.961 6.613 6.613z" fill="#f2fbff"/></g><g><path d="m469.907 86.435v262.21h-20v-262.21c0-3.65-2.96-6.61-6.61-6.61h20c3.65 0 6.61 2.96 6.61 6.61z" fill="#dff6fd"/></g></g><g><path d="m420.32 348.648h-328.607v-335.747c0-2.983 2.418-5.401 5.401-5.401h317.804c2.983 0 5.401 2.418 5.401 5.401v335.747z" fill="#f9f7f8"/></g><g><path d="m420.317 12.905v335.74h-20.08v-335.74c0-2.99-2.42-5.4-5.4-5.4h20.08c2.98 0 5.4 2.41 5.4 5.4z" fill="#efedef"/></g><g><path d="m420.32 57.4h-328.607v-44.499c0-2.983 2.418-5.401 5.401-5.401h317.804c2.983 0 5.401 2.418 5.401 5.401v44.499z" fill="#c8effe"/></g><g><path d="m420.317 12.905v44.49h-20.08v-44.49c0-2.99-2.42-5.4-5.4-5.4h20.08c2.98 0 5.4 2.41 5.4 5.4z" fill="#99e6fc"/></g><g><g><path d="m368.708 315.003h-225.383c-2.383 0-4.314-1.932-4.314-4.314v-39.237c0-2.383 1.932-4.314 4.314-4.314h225.383c2.383 0 4.314 1.932 4.314 4.314v39.237c0 2.383-1.931 4.314-4.314 4.314z" fill="#fedba6"/></g></g><g><g><path d="m373.027 271.455v39.23c0 2.39-1.94 4.32-4.32 4.32h-20c2.38 0 4.32-1.93 4.32-4.32v-39.23c0-2.39-1.94-4.32-4.32-4.32h20c2.38 0 4.32 1.93 4.32 4.32z" fill="#fece85"/></g></g><g><g><path d="m249.87 150.526h-64.168v53.449c0 3.507 2.281 6.603 5.632 7.637 5.485 1.694 13.153 4.058 14.249 4.379 30.888 9.037 74.003 9.413 104.1-5.516 2.691-1.335 4.355-4.119 4.355-7.123v-52.827h-64.168z" fill="#8d9ca8"/></g><g><path d="m314.037 150.525v52.83c0 3-1.66 5.79-4.35 7.12-5.24 2.6-10.87 4.73-16.76 6.44.71-1.21 1.11-2.61 1.11-4.08v-62.31z" fill="#7a8c98"/></g><g><path d="m246.006 91.825-102.83 43.505c-1.565.662-1.565 2.88 0 3.543l102.83 43.505c2.47 1.045 5.259 1.045 7.729 0l102.83-43.505c1.565-.662 1.565-2.88 0-3.543l-102.83-43.505c-2.471-1.045-5.259-1.045-7.729 0z" fill="#596c76"/></g><g><path d="m356.567 138.875-102.83 43.5c-2.47 1.05-5.26 1.05-7.73 0l-15.52-6.57 87.31-36.93c1.56-.66 1.56-2.88 0-3.54l-87.31-36.94 15.52-6.57c2.47-1.04 5.26-1.04 7.73 0l102.83 43.51c1.56.66 1.56 2.88 0 3.54z" fill="#465a61"/></g><g><path d="m357.739 225.589c-6.789 0-12.293-5.504-12.293-12.293v-14.578c0-6.789 5.504-12.293 12.293-12.293 6.789 0 12.293 5.504 12.293 12.293v14.578c-.001 6.789-5.504 12.293-12.293 12.293z" fill="#596c76"/></g></g><g><path d="m482.307 40.417h-54.487v-27.516c0-7.114-5.787-12.901-12.901-12.901h-317.805c-7.114 0-12.901 5.787-12.901 12.901v27.516h-54.486c-16.277 0-29.521 13.243-29.521 29.521v63.309c0 4.143 3.357 7.5 7.5 7.5s7.5-3.357 7.5-7.5v-63.309c0-8.007 6.514-14.521 14.521-14.521h54.486v1.982 14.926h-35.473c-7.782 0-14.113 6.332-14.113 14.114v254.708h-19.421v-173.894c0-4.143-3.357-7.5-7.5-7.5s-7.5 3.357-7.5 7.5v208.464c0 16.278 13.243 29.521 29.521 29.521h155.84v54.018h-36.079c-12.535 0-22.732 10.198-22.732 22.733v18.907c0 6.141 4.995 11.137 11.136 11.137h236.252c6.141 0 11.136-4.996 11.136-11.137v-18.907c0-12.535-10.197-22.733-22.732-22.733h-36.079v-54.018h155.84c16.277 0 29.521-13.243 29.521-29.521v-305.779c-.003-16.278-13.246-29.521-29.523-29.521zm-54.487 46.908h34.586v253.822h-34.586zm-328.607-72.325h313.607v34.899h-313.607zm0 49.899h313.607v276.248h-313.607zm-49.586 22.426h34.586v253.822h-34.586zm312.919 386.931c4.264 0 7.732 3.469 7.732 7.733v15.044h-228.523v-15.044c0-4.265 3.469-7.733 7.732-7.733zm-161.98-15v-54.018h110.9v54.018zm296.261-83.539c0 8.007-6.514 14.521-14.521 14.521h-452.579c-8.007 0-14.521-6.515-14.521-14.521v-19.569h481.621zm0-34.57h-19.421v-254.708c0-7.782-6.331-14.114-14.113-14.114h-35.473v-14.926-1.982h54.486c8.007 0 14.521 6.515 14.521 14.521z"/><path d="m368.708 259.637h-29.865c-4.143 0-7.5 3.357-7.5 7.5s3.357 7.5 7.5 7.5h26.68v32.866h-219.012v-32.866h156.971c4.143 0 7.5-3.357 7.5-7.5s-3.357-7.5-7.5-7.5h-160.157c-6.515 0-11.814 5.3-11.814 11.814v39.237c0 6.515 5.3 11.814 11.814 11.814h225.383c6.515 0 11.814-5.3 11.814-11.814v-39.237c0-6.514-5.299-11.814-11.814-11.814z"/><path d="m140.254 145.78 37.948 16.055v42.14c0 6.838 4.389 12.787 10.919 14.803 8.779 2.711 13.476 4.154 14.355 4.411 13.917 4.071 30.993 6.621 48.614 6.621 21.013 0 42.8-3.625 60.925-12.616 5.177-2.568 8.522-8.001 8.522-13.842v-41.517l28.7-12.142v30.719c-7.203 2.962-12.292 10.048-12.292 18.306v14.578c0 10.914 8.879 19.793 19.792 19.793 10.914 0 19.793-8.879 19.793-19.793v-14.578c0-8.259-5.089-15.344-12.293-18.306 0 0-.003-43.235-.004-43.26 0-.017.004-.033.004-.05 0-.089-.017-.174-.02-.263-.008-.166-.018-.332-.037-.495-.281-3.482-2.438-6.543-5.696-7.92l-102.827-43.506c-4.314-1.824-9.261-1.824-13.573 0l-102.83 43.505c-3.494 1.478-5.752 4.885-5.752 8.679s2.258 7.201 5.752 8.678zm212.692 52.938c0-2.643 2.149-4.792 4.792-4.792s4.793 2.149 4.793 4.792v14.578c0 2.643-2.15 4.793-4.793 4.793s-4.792-2.15-4.792-4.793zm-46.408 4.635c0 .194-.096.358-.188.404-29.535 14.652-71.848 12.882-98.662 5.036-.549-.161-3.446-1.045-14.142-4.347-.206-.063-.344-.253-.344-.471v-35.794l49.881 21.104c2.157.912 4.472 1.369 6.787 1.368 2.314 0 4.63-.456 6.786-1.368l49.882-21.104zm-57.61-104.621c.599-.254 1.285-.254 1.885 0l73.254 30.992h-67.881c-4.143 0-7.5 3.357-7.5 7.5s3.357 7.5 7.5 7.5h67.299l-72.673 30.746c-.598.254-1.284.254-1.884 0l-90.69-38.369z"/><circle cx="189.123" cy="291.07" r="7.5"/><circle cx="222.57" cy="291.07" r="7.5"/><circle cx="256.017" cy="291.07" r="7.5"/><circle cx="289.463" cy="291.07" r="7.5"/><circle cx="322.91" cy="291.07" r="7.5"/></g></g></svg>