<svg id="Capa_1" enable-background="new 0 0 512.044 512.044" height="512" viewBox="0 0 512.044 512.044" width="512" xmlns="http://www.w3.org/2000/svg"><g><g><g><path d="m497.629 351.984h-409.417c-3.819 0-6.915-3.096-6.915-6.915v-178.094c0-3.819 3.096-6.915 6.915-6.915h409.417c3.819 0 6.915 3.096 6.915 6.915v178.094c0 3.819-3.096 6.915-6.915 6.915z" fill="#f2fbff"/></g><g><path d="m504.542 166.972v178.1c0 3.82-3.09 6.91-6.91 6.91h-20c3.82 0 6.91-3.09 6.91-6.91v-178.1c0-3.82-3.09-6.91-6.91-6.91h20c3.82 0 6.91 3.09 6.91 6.91z" fill="#dff6fd"/></g><g><path d="m43.308 189.837h37.99v132.369h-37.99z" fill="#8d9ca8"/></g><g><path d="m62.303 189.837h18.995v132.369h-18.995z" fill="#7a8c98"/></g><g><path d="m39.607 447.109h-28.406c-2.044 0-3.701-1.657-3.701-3.701v-374.772c0-2.044 1.657-3.701 3.701-3.701h28.405c2.044 0 3.701 1.657 3.701 3.701v374.772c.001 2.044-1.656 3.701-3.7 3.701z" fill="#c5d3dd"/></g><g><path d="m43.312 68.632v374.78c0 2.04-1.66 3.7-3.71 3.7h-17.9c2.04 0 3.7-1.66 3.7-3.7v-374.78c0-2.04-1.66-3.7-3.7-3.7h17.9c2.05 0 3.71 1.66 3.71 3.7z" fill="#b6c4cf"/></g></g><g><path d="m504.544 226.464c-4.142 0-7.5 3.357-7.5 7.5v110.52h-265.242c-4.142 0-7.5 3.357-7.5 7.5s3.358 7.5 7.5 7.5h265.827c7.948 0 14.415-6.467 14.415-14.415v-111.105c0-4.142-3.358-7.5-7.5-7.5z"/><path d="m497.629 152.56h-409.417c-7.949 0-14.415 6.467-14.415 14.415v15.362h-22.989v-113.701c0-6.177-5.025-11.201-11.201-11.201h-28.406c-6.176 0-11.201 5.024-11.201 11.201v374.771c0 6.177 5.025 11.201 11.201 11.201h28.406c6.176 0 11.201-5.024 11.201-11.201v-113.7h22.989v15.362c0 7.948 6.466 14.415 14.415 14.415h108.892c4.142 0 7.5-3.357 7.5-7.5s-3.358-7.5-7.5-7.5h-108.307v-176.924h408.247v31.592c0 4.143 3.358 7.5 7.5 7.5s7.5-3.357 7.5-7.5v-32.177c0-7.948-6.466-14.415-14.415-14.415zm-461.821 287.049h-20.808v-367.174h20.808zm37.989-124.902h-22.989v-117.37h22.989z"/><circle cx="118.909" cy="193.554" r="10"/><circle cx="466.933" cy="193.554" r="10"/><circle cx="118.909" cy="318.49" r="10"/><circle cx="466.933" cy="318.49" r="10"/><path d="m332.528 284.654v-57.264c0-4.143-3.358-7.5-7.5-7.5s-7.5 3.357-7.5 7.5v57.264c0 4.143 3.358 7.5 7.5 7.5s7.5-3.358 7.5-7.5z"/><path d="m240.797 255.693c0-4.143-3.358-7.5-7.5-7.5h-13.709v-12.884h15.539c4.142 0 7.5-3.357 7.5-7.5s-3.358-7.5-7.5-7.5h-23.039c-4.142 0-7.5 3.357-7.5 7.5v56.845c0 4.143 3.358 7.5 7.5 7.5s7.5-3.357 7.5-7.5v-21.461h13.709c4.142 0 7.5-3.358 7.5-7.5z"/><path d="m288.426 235.309c4.142 0 7.5-3.357 7.5-7.5s-3.358-7.5-7.5-7.5h-23.04c-4.142 0-7.5 3.357-7.5 7.5v56.845c0 4.143 3.358 7.5 7.5 7.5s7.5-3.357 7.5-7.5v-21.461h13.709c4.142 0 7.5-3.357 7.5-7.5s-3.358-7.5-7.5-7.5h-13.709v-12.884z"/><path d="m429.487 227.913v56.741c0 4.143 3.358 7.5 7.5 7.5h23.908c4.142 0 7.5-3.357 7.5-7.5s-3.358-7.5-7.5-7.5h-16.408v-13.37h14.646c4.142 0 7.5-3.357 7.5-7.5s-3.358-7.5-7.5-7.5h-14.646v-13.371h16.408c4.142 0 7.5-3.357 7.5-7.5s-3.358-7.5-7.5-7.5h-23.908c-4.142 0-7.5 3.357-7.5 7.5z"/><path d="m388.642 234.89c4.236 0 8.319 1.246 11.81 3.604 3.433 2.318 8.095 1.416 10.414-2.017 2.319-3.432 1.416-8.094-2.017-10.413-5.979-4.039-12.967-6.175-20.207-6.175-19.923 0-36.132 16.209-36.132 36.132s16.208 36.132 36.132 36.132c7.972 0 15.131-2.622 20.706-7.587 1.094-.976 2.131-2.045 3.081-3.18 2.661-3.175 2.243-7.905-.932-10.565-3.176-2.66-7.905-2.243-10.565.933-.485.579-1.013 1.123-1.563 1.614-2.821 2.512-6.43 3.785-10.727 3.785-11.652 0-21.132-9.479-21.132-21.132s9.479-21.131 21.132-21.131z"/><path d="m189.71 256.022c0-19.923-16.209-36.132-36.132-36.132s-36.132 16.209-36.132 36.132 16.208 36.132 36.132 36.132 36.132-16.209 36.132-36.132zm-57.264 0c0-11.652 9.479-21.132 21.132-21.132s21.132 9.479 21.132 21.132-9.48 21.132-21.132 21.132-21.132-9.48-21.132-21.132z"/></g></g></svg>