<svg id="Capa_1" enable-background="new 0 0 512.021 512.021" height="512" viewBox="0 0 512.021 512.021" width="512" xmlns="http://www.w3.org/2000/svg"><g><g><path d="m7.626 449.81h496.769v54.716h-496.769z" fill="#c5d3dd"/></g><g><path d="m484.146 449.813h20.245v54.718h-20.245z" fill="#b6c4cf"/></g><g><path d="m173.215 7.494h165.59v442.316h-165.59z" fill="#f2fbff"/></g><g><path d="m173.215 449.81h-165.589v-435.918c0-3.533 2.864-6.397 6.397-6.397h159.192z" fill="#c8effe"/></g><g><path d="m504.395 449.81h-165.59v-442.316h159.192c3.533 0 6.397 2.864 6.397 6.397v435.919z" fill="#c8effe"/></g><g><path d="m318.553 7.49h20.255v442.323h-20.255z" fill="#dff6fd"/></g><g><path d="m152.969 7.49h20.245v442.323h-20.245z" fill="#99e6fc"/></g><g><path d="m504.391 13.895v435.917h-20.245v-435.917c0-3.537-2.868-6.405-6.395-6.405h20.245c3.537 0 6.395 2.868 6.395 6.405z" fill="#99e6fc"/></g><g><path d="m130.902 49.132h-80.963c-4.139 0-7.494 3.355-7.494 7.494s3.355 7.494 7.494 7.494h80.962c4.139 0 7.494-3.355 7.494-7.494s-3.354-7.494-7.493-7.494z"/><path d="m130.902 78.974h-80.963c-4.139 0-7.494 3.355-7.494 7.494s3.355 7.494 7.494 7.494h80.962c4.139 0 7.494-3.355 7.494-7.494.001-4.139-3.354-7.494-7.493-7.494z"/><path d="m130.902 363.342h-80.963c-4.139 0-7.494 3.355-7.494 7.494s3.355 7.494 7.494 7.494h80.962c4.139 0 7.494-3.355 7.494-7.494s-3.354-7.494-7.493-7.494z"/><path d="m130.902 393.182h-80.963c-4.139 0-7.494 3.355-7.494 7.494s3.355 7.494 7.494 7.494h80.962c4.139 0 7.494-3.355 7.494-7.494s-3.354-7.494-7.493-7.494z"/><path d="m215.529 64.121h80.963c4.139 0 7.494-3.355 7.494-7.494s-3.355-7.494-7.494-7.494h-80.963c-4.139 0-7.494 3.355-7.494 7.494s3.355 7.494 7.494 7.494z"/><path d="m215.529 93.962h80.963c4.139 0 7.494-3.355 7.494-7.494 0-4.14-3.355-7.494-7.494-7.494h-80.963c-4.139 0-7.494 3.355-7.494 7.494 0 4.14 3.355 7.494 7.494 7.494z"/><path d="m215.529 378.331h80.963c4.139 0 7.494-3.355 7.494-7.494s-3.355-7.494-7.494-7.494h-80.963c-4.139 0-7.494 3.355-7.494 7.494s3.355 7.494 7.494 7.494z"/><path d="m215.529 408.171h80.963c4.139 0 7.494-3.355 7.494-7.494s-3.355-7.494-7.494-7.494h-80.963c-4.139 0-7.494 3.355-7.494 7.494s3.355 7.494 7.494 7.494z"/><path d="m497.998 0h-418.398c-4.139 0-7.494 3.355-7.494 7.494 0 4.14 3.355 7.494 7.494 7.494h86.121v427.327h-150.601v-427.326h29.661c4.139 0 7.494-3.355 7.494-7.494 0-4.14-3.355-7.495-7.494-7.495h-30.758c-7.66 0-13.892 6.231-13.892 13.892v490.635c0 4.139 3.355 7.494 7.494 7.494h371.773c4.139 0 7.494-3.355 7.494-7.494 0-4.14-3.355-7.494-7.494-7.494h-364.278v-39.728h481.781v39.728h-83.19c-4.139 0-7.494 3.355-7.494 7.494s3.355 7.494 7.494 7.494h90.684c4.139 0 7.494-3.355 7.494-7.494v-490.635c0-7.661-6.231-13.892-13.891-13.892zm-166.687 442.316h-150.601v-427.327h150.601zm165.59 0h-150.602v-427.327h150.601v427.327z"/><path d="m49.939 259.405c4.139 0 7.494-3.355 7.494-7.494v-46.516c0-4.139-3.355-7.494-7.494-7.494s-7.494 3.355-7.494 7.494v46.516c0 4.139 3.355 7.494 7.494 7.494z"/><path d="m215.529 259.405c4.139 0 7.494-3.355 7.494-7.494v-46.516c0-4.139-3.355-7.494-7.494-7.494s-7.494 3.355-7.494 7.494v46.516c0 4.139 3.355 7.494 7.494 7.494z"/><path d="m381.119 259.405c4.139 0 7.494-3.355 7.494-7.494v-46.516c0-4.139-3.355-7.494-7.494-7.494s-7.494 3.355-7.494 7.494v46.516c0 4.139 3.355 7.494 7.494 7.494z"/><path d="m381.119 64.121h80.962c4.139 0 7.494-3.355 7.494-7.494s-3.355-7.494-7.494-7.494h-80.962c-4.139 0-7.494 3.355-7.494 7.494s3.355 7.494 7.494 7.494z"/><path d="m381.119 93.962h80.962c4.139 0 7.494-3.355 7.494-7.494 0-4.14-3.355-7.494-7.494-7.494h-80.962c-4.139 0-7.494 3.355-7.494 7.494 0 4.14 3.355 7.494 7.494 7.494z"/><path d="m381.119 378.331h80.962c4.139 0 7.494-3.355 7.494-7.494s-3.355-7.494-7.494-7.494h-80.962c-4.139 0-7.494 3.355-7.494 7.494s3.355 7.494 7.494 7.494z"/><path d="m381.119 408.171h80.962c4.139 0 7.494-3.355 7.494-7.494s-3.355-7.494-7.494-7.494h-80.962c-4.139 0-7.494 3.355-7.494 7.494s3.355 7.494 7.494 7.494z"/></g></g></svg>