<svg id="Capa_1" enable-background="new 0 0 511.984 511.984" height="512" viewBox="0 0 511.984 511.984" width="512" xmlns="http://www.w3.org/2000/svg"><g><g><path d="m107.243 444.471 10.89 60.016h275.718l10.891-60.016z" fill="#e8ad8c"/></g><g><path d="m413.483 444.471h-314.981c-3.438 0-6.224-2.787-6.224-6.224v-31.65c0-3.438 2.787-6.224 6.224-6.224h314.981c3.438 0 6.224 2.787 6.224 6.224v31.65c0 3.437-2.786 6.224-6.224 6.224z" fill="#f4d7c8"/></g><g><path d="m404.741 444.466-10.886 60.025h-19.991l10.885-60.025z" fill="#e19974"/></g><g><path d="m419.705 406.592v31.657c0 3.439-2.789 6.217-6.217 6.217h-19.992c3.428 0 6.217-2.779 6.217-6.217v-31.657c0-3.429-2.789-6.218-6.217-6.218h19.992c3.428 0 6.217 2.789 6.217 6.218z" fill="#ecbba3"/></g><g><g><path d="m161.832 103.588v162.012c0 40.696 32.99 73.686 73.686 73.686h40.827c40.696 0 73.686-32.99 73.686-73.686v-162.012z" fill="#596c76"/></g><g><path d="m350.029 103.587v162.013c0 40.693-32.986 73.69-73.689 73.69h-15.943c40.703 0 73.69-32.996 73.69-73.69v-162.013z" fill="#465a61"/></g><g><path d="m351.697 400.372h-191.532v-33.723c0-52.89 42.876-95.766 95.766-95.766 52.89 0 95.766 42.876 95.766 95.766z" fill="#b0e7c9"/></g><g><path d="m351.695 366.65v33.721h-16.609v-33.721c0-26.444-10.721-50.383-28.047-67.718-15.495-15.487-36.28-25.702-59.409-27.684 2.733-.245 5.5-.363 8.3-.363 26.444 0 50.383 10.721 67.718 28.047 17.326 17.335 28.047 41.274 28.047 67.718z" fill="#91deb6"/></g><g><path d="m351.701 366.645v33.725h-191.54v-33.725c0-25.668 10.101-48.977 26.544-66.176l55.687 32.535c8.369 4.885 18.71 4.885 27.078 0l55.687-32.535c16.443 17.199 26.544 40.508 26.544 66.176z" fill="#8d9ca8"/></g><g><path d="m351.695 366.65v33.721h-16.609v-33.721c0-22.598-7.828-43.374-20.928-59.755l10.991-6.419c.514.531 1.02 1.071 1.526 1.619 3.658 3.964 7.04 8.392 9.929 12.94 2.342 3.687 5.279 8.308 6.74 12.45.228.506.456 1.012.667 1.528 3.762 7.81 5.832 16.874 6.916 25.44.507 3.998.768 8.064.768 12.197z" fill="#7a8c98"/></g><g><path d="m255.931 291.65c-9.176 0-16.614-7.438-16.614-16.614v-24.921h33.227v24.921c.001 9.176-7.438 16.614-16.613 16.614z" fill="#fed2a4"/></g><g><path d="m272.546 250.116v24.92c0 9.176-7.437 16.613-16.613 16.613-3.029 0-5.868-.81-8.307-2.229 4.968-2.869 8.307-8.237 8.307-14.384v-24.92z" fill="#ffbd86"/></g><g><path d="m180.774 113.812v62.489c0 41.508 33.649 75.157 75.157 75.157 41.508 0 75.157-33.649 75.157-75.157v-62.489l-75.157-17.541z" fill="#fed2a4"/></g><g><path d="m331.088 118.966v57.334c0 20.759-8.41 39.544-22.016 53.142-13.598 13.606-32.383 22.016-53.142 22.016-2.885 0-5.728-.16-8.528-.489 17.343-1.949 32.889-9.81 44.605-21.527 13.597-13.598 22.007-32.383 22.007-53.142v-62.488z" fill="#ffbd86"/></g><g><path d="m337.445 177.979h-6.358v-33.954h6.358c9.376 0 16.977 7.601 16.977 16.977 0 9.377-7.601 16.977-16.977 16.977z" fill="#fed2a4"/></g><g><path d="m174.417 177.979h6.358v-33.954h-6.358c-9.376 0-16.977 7.601-16.977 16.977 0 9.377 7.601 16.977 16.977 16.977z" fill="#fed2a4"/></g><g><g><path d="m255.931 51.792h-94.099v71.438l94.099-14.647 94.099 14.647v-71.438z" fill="#8d9ca8"/></g><g><path d="m350.033 51.79v71.441l-16.87-2.627v-68.814z" fill="#7a8c98"/></g></g><g><g><path d="m393.508 42.908-128.79-34.265c-5.751-1.53-11.82-1.53-17.571 0l-128.79 34.264c-3.229.859-3.233 5.311-.006 6.176l128.738 34.494c5.788 1.551 11.9 1.551 17.688 0l128.738-34.494c3.227-.865 3.223-5.316-.007-6.175z" fill="#596c76"/></g><g><path d="m393.512 49.082-128.74 34.491c-5.787 1.552-11.894 1.552-17.681 0l-11.669-3.129 117.07-31.362c3.227-.86 3.219-5.314-.009-6.175l-117.061-31.142 11.721-3.121c5.752-1.527 11.825-1.527 17.577 0l128.791 34.264c3.228.86 3.228 5.314.001 6.174z" fill="#465a61"/></g></g><g><circle cx="395.932" cy="152.722" fill="#8d9ca8" r="15.907"/></g><g><path d="m411.84 152.725c0 8.781-7.119 15.9-15.909 15.9-5.989 0-11.21-3.315-13.918-8.207.574.068 1.164.101 1.755.101 8.781 0 15.909-7.119 15.909-15.909 0-2.784-.717-5.415-1.991-7.693 7.963.869 14.154 7.609 14.154 15.808z" fill="#7a8c98"/></g><g><path d="m225.904 146.439c-4.14 0-7.497 3.356-7.497 7.497v14.134c0 4.141 3.357 7.497 7.497 7.497s7.497-3.356 7.497-7.497v-14.134c0-4.141-3.356-7.497-7.497-7.497z"/><path d="m285.958 175.567c4.141 0 7.497-3.356 7.497-7.497v-14.134c0-4.141-3.356-7.497-7.497-7.497s-7.497 3.356-7.497 7.497v14.134c0 4.141 3.356 7.497 7.497 7.497z"/><path d="m276.919 201.1c1.977-3.638.63-8.189-3.008-10.166-3.636-1.977-8.189-.631-10.166 3.009-1.553 2.857-4.534 4.633-7.781 4.633-3.278 0-6.273-1.801-7.817-4.699-1.946-3.656-6.486-5.04-10.14-3.094-3.655 1.946-5.04 6.486-3.094 10.14 4.153 7.802 12.219 12.647 21.051 12.647 8.747 0 16.777-4.779 20.955-12.47z"/><path d="m413.483 392.874h-54.289v-26.225c0-20.253-5.874-39.154-15.989-55.114 9.016-13.073 14.323-28.889 14.323-45.935v-90.633c2.764-3.964 4.392-8.776 4.392-13.964s-1.627-10-4.392-13.964v-80.553l30.907-8.281v72.351c-9.238 3.133-15.906 11.883-15.906 22.166 0 12.905 10.499 23.404 23.403 23.404s23.404-10.5 23.404-23.404c0-10.283-6.67-19.032-15.908-22.166v-85.559c0-1.687-.564-3.238-1.504-4.491-1.39-2.328-3.661-4.092-6.488-4.844l-128.79-34.264c-7.01-1.864-14.419-1.865-21.427 0l-128.79 34.265c-4.777 1.271-7.99 5.421-7.994 10.326-.003 4.904 3.202 9.058 7.975 10.336l37.924 10.162v80.553c-2.764 3.963-4.392 8.776-4.392 13.964s1.627 10.001 4.392 13.964v27.731c0 4.141 3.357 7.497 7.497 7.497s7.497-3.356 7.497-7.497v-17.757c1.447.307 2.941.482 4.469.52 3.671 33.128 26.999 60.401 58.023 69.886v10.894c-19.112 4.589-37.068 14.965-50.535 29.049-1.052 1.1-2.067 2.226-3.064 3.365-5.642-9.734-8.893-21.017-8.893-33.055v-28.361c0-4.141-3.357-7.497-7.497-7.497s-7.497 3.356-7.497 7.497v28.36c0 17.052 5.296 32.884 14.313 45.961-10.108 15.953-15.98 34.843-15.98 55.088v26.225h-54.165c-7.566 0-13.721 6.156-13.721 13.722v31.65c0 7.566 6.155 13.722 13.721 13.722h2.482l9.773 53.858c.647 3.566 3.752 6.159 7.376 6.159h205.762c4.141 0 7.497-3.356 7.497-7.497s-3.356-7.497-7.497-7.497h-199.503l-8.17-45.022h279.539l-8.169 45.022h-29.27c-4.141 0-7.497 3.356-7.497 7.497s3.356 7.497 7.497 7.497h35.529c3.625 0 6.73-2.593 7.377-6.159l9.773-53.858h2.482c7.566 0 13.721-6.156 13.721-13.722v-31.65c0-7.566-6.155-13.722-13.721-13.722zm-17.551-248.563c4.638 0 8.411 3.773 8.411 8.411s-3.773 8.411-8.411 8.411c-4.637 0-8.41-3.773-8.41-8.411s3.773-8.411 8.41-8.411zm-57.348 26.103v-18.823c4.692.564 8.341 4.569 8.341 9.411s-3.648 8.848-8.341 9.412zm3.95 14.527v80.659c0 12.04-3.236 23.336-8.878 33.073-1.002-1.145-2.022-2.277-3.08-3.383-7.149-7.478-14.943-13.443-23.96-18.552-4.252-2.409-8.676-4.516-13.228-6.296-1.162-.455-13.347-4.037-13.347-4.191v-10.903c31.024-9.485 54.353-36.758 58.024-69.886 1.528-.039 3.022-.214 4.469-.521zm-3.95-48.383v-7.522l3.95.615v7.415c-1.283-.274-2.602-.446-3.95-.508zm-202.732-90.547 113.224-30.122c4.485-1.195 9.229-1.195 13.715 0l81.235 21.612h-85.838c-4.14 0-7.497 3.356-7.497 7.497s3.357 7.497 7.497 7.497h93.628l-88.98 23.842c-4.515 1.21-9.289 1.211-13.806 0zm37.426 124.403c-4.692-.564-8.341-4.57-8.341-9.412s3.648-8.847 8.341-9.411zm0-33.856c-1.348.062-2.666.234-3.949.507v-7.414l3.949-.615zm-3.949-22.082v-43.973l75.82 20.315c3.528.946 7.155 1.418 10.784 1.418 3.628 0 7.257-.472 10.784-1.418l75.817-20.314v43.972l-85.45-13.3c-.382-.06-.767-.089-1.153-.089s-.771.029-1.153.089zm18.942 61.825v-49.599l67.659-10.531 67.66 10.531v49.599c0 37.308-30.352 67.659-67.66 67.659-37.307 0-67.659-30.351-67.659-67.659zm76.776 82.134v16.602c0 5.027-4.089 9.117-9.116 9.117s-9.117-4.09-9.117-9.117v-16.602c2.996.33 6.034.52 9.117.52 3.083-.001 6.12-.19 9.116-.52zm-32.339 23.067c2.834 10.164 12.168 17.645 23.223 17.645 11.054 0 20.387-7.48 23.222-17.643 12.477 3.407 23.853 9.499 33.488 17.595l-46.949 27.43c-6.022 3.513-13.5 3.515-19.518.002l-46.954-27.433c9.635-8.097 21.01-14.189 33.488-17.596zm-65.046 85.147c0-21.521 7.747-41.261 20.594-56.59l50.356 29.42c10.682 6.236 23.954 6.236 34.639-.002l50.353-29.417c12.848 15.328 20.596 35.067 20.596 56.589v26.225h-28.094v-21.576c0-4.141-3.356-7.497-7.497-7.497s-7.497 3.356-7.497 7.497v21.576h-90.362v-21.576c0-4.141-3.357-7.497-7.497-7.497s-7.497 3.356-7.497 7.497v21.576h-28.094zm244.548 70.325h-312.436v-29.106h312.436z"/></g></g></g></svg>