<svg id="Capa_1" enable-background="new 0 0 512 512" height="512" viewBox="0 0 512 512" width="512" xmlns="http://www.w3.org/2000/svg"><g><g><path d="m410.563 504.502h-309.125c-20.057 0-36.316-16.259-36.316-36.316v-424.372c0-20.057 16.259-36.316 36.316-36.316h309.125c20.057 0 36.316 16.259 36.316 36.316v424.372c0 20.057-16.259 36.316-36.316 36.316z" fill="#c5d3dd"/></g><g><path d="m446.88 43.816v424.367c0 20.064-16.265 36.319-36.319 36.319h-19.994c20.054 0 36.319-16.255 36.319-36.319v-424.367c0-20.064-16.265-36.319-36.319-36.319h19.994c20.055.001 36.319 16.256 36.319 36.319z" fill="#b6c4cf"/></g><g><path d="m400.903 418.752h-289.806c-9.166 0-16.597-7.431-16.597-16.597v-349.11c0-9.166 7.431-16.597 16.597-16.597h289.807c9.166 0 16.597 7.431 16.597 16.597v349.11c-.001 9.166-7.431 16.597-16.598 16.597z" fill="#f9f7f8"/></g><g><path d="m417.5 53.043v349.111c0 9.167-7.428 16.595-16.595 16.595h-19.994c9.167 0 16.595-7.428 16.595-16.595v-349.111c0-9.167-7.428-16.595-16.595-16.595h19.994c9.167.001 16.595 7.428 16.595 16.595z" fill="#efedef"/></g><g><path d="m256 478.301h-54.831c-4.633 0-8.388-3.755-8.388-8.388v-16.572c0-4.633 3.755-8.388 8.388-8.388h54.831z" fill="#8d9ca8"/></g><g><path d="m236.006 444.951h19.994v33.35h-19.994z" fill="#7a8c98"/></g><g><path d="m310.831 478.301h-54.831v-33.348h54.831c4.633 0 8.388 3.755 8.388 8.388v16.572c0 4.633-3.755 8.388-8.388 8.388z" fill="#8d9ca8"/></g><g><path d="m319.22 453.338v16.575c0 4.629-3.759 8.387-8.387 8.387h-19.994c4.629 0 8.387-3.759 8.387-8.387v-16.575c0-4.629-3.759-8.387-8.387-8.387h19.994c4.629 0 8.387 3.759 8.387 8.387z" fill="#7a8c98"/></g><g><path d="m339.415 7.498h-30.881v96.774c0 4.242 4.393 7.059 8.248 5.287l20.203-9.283c1.542-.709 3.317-.709 4.859 0l20.203 9.283c3.855 1.771 8.248-1.045 8.248-5.287v-96.774z" fill="#b0e7c9"/></g><g><path d="m370.294 7.498v96.77c0 4.249-4.389 7.068-8.247 5.288l-12.106-5.558c.23-.62.36-1.3.36-2.029v-94.471z" fill="#91deb6"/></g><g><path d="m310.832 485.798c8.759 0 15.886-7.127 15.886-15.886v-16.572c0-8.759-7.127-15.885-15.886-15.885h-109.663c-8.759 0-15.886 7.126-15.886 15.885v16.572c0 8.759 7.127 15.886 15.886 15.886zm-47.334-33.348h47.334c.491 0 .89.399.89.89v16.572c0 .491-.399.89-.89.89h-47.334zm-63.219 17.463v-16.572c0-.491.399-.89.89-.89h47.333v18.353h-47.333c-.491-.001-.89-.4-.89-.891z"/><path d="m410.563 0h-309.125c-24.159 0-43.814 19.655-43.814 43.814v424.371c0 24.159 19.655 43.814 43.814 43.814h31.578c4.141 0 7.498-3.356 7.498-7.498 0-4.141-3.356-7.498-7.498-7.498h-31.578c-15.891 0-28.819-12.928-28.819-28.819v-424.37c0-15.891 12.929-28.819 28.819-28.819h199.598v13.956h-189.939c-13.286 0-24.095 10.808-24.095 24.094v349.111c0 13.286 10.809 24.094 24.095 24.094h289.807c13.286 0 24.094-10.808 24.094-24.094v-255.522c0-4.141-3.356-7.498-7.498-7.498-4.141 0-7.498 3.356-7.498 7.498v255.522c0 5.017-4.082 9.099-9.099 9.099h-289.806c-5.018 0-9.1-4.082-9.1-9.099v-349.111c0-5.017 4.082-9.099 9.1-9.099h189.938v60.326c0 4.559 2.291 8.75 6.13 11.21 2.188 1.403 4.676 2.114 7.179 2.114 1.888 0 3.785-.405 5.567-1.223l19.503-8.961 19.503 8.961c4.142 1.903 8.907 1.57 12.747-.89 3.838-2.46 6.129-6.651 6.129-11.21v-60.327h23.111c5.017 0 9.099 4.082 9.099 9.099v58.93c0 4.141 3.356 7.498 7.498 7.498 4.141 0 7.498-3.356 7.498-7.498v-58.93c0-13.286-10.808-24.094-24.094-24.094h-23.111v-13.956h32.77c15.891 0 28.818 12.928 28.818 28.819v424.371c0 15.891-12.928 28.819-28.818 28.819h-242.98c-4.141 0-7.498 3.356-7.498 7.498 0 4.141 3.356 7.498 7.498 7.498h242.98c24.158 0 43.813-19.655 43.813-43.814v-424.372c-.001-24.159-19.656-43.814-43.814-43.814zm-47.765 101.653-17.823-8.189c-3.537-1.624-7.59-1.622-11.12 0l-17.824 8.19v-86.659h46.767z"/><path d="m140.27 65.481c-4.141 0-7.498 3.356-7.498 7.498v85.077c0 4.141 3.356 7.498 7.498 7.498 4.141 0 7.498-3.356 7.498-7.498v-29.416l36.082 34.811c1.455 1.404 3.331 2.102 5.204 2.102 1.964 0 3.926-.767 5.397-2.292 2.875-2.98 2.79-7.726-.19-10.601l-40.332-38.913 37.181-34.176c3.049-2.802 3.249-7.544.446-10.593-2.801-3.05-7.546-3.248-10.593-.446l-33.195 30.511v-26.064c-.001-4.141-3.357-7.498-7.498-7.498z"/><path d="m371.73 150.558h-145.904c-4.141 0-7.498 3.356-7.498 7.498 0 4.141 3.356 7.498 7.498 7.498h145.904c4.141 0 7.498-3.356 7.498-7.498 0-4.141-3.356-7.498-7.498-7.498z"/><path d="m371.73 187.919h-231.46c-4.141 0-7.498 3.356-7.498 7.498 0 4.141 3.356 7.498 7.498 7.498h231.46c4.141 0 7.498-3.356 7.498-7.498s-3.356-7.498-7.498-7.498z"/><path d="m371.73 225.28h-231.46c-4.141 0-7.498 3.356-7.498 7.498 0 4.141 3.356 7.498 7.498 7.498h231.46c4.141 0 7.498-3.356 7.498-7.498s-3.356-7.498-7.498-7.498z"/><path d="m371.73 262.641h-231.46c-4.141 0-7.498 3.356-7.498 7.498 0 4.141 3.356 7.498 7.498 7.498h231.46c4.141 0 7.498-3.356 7.498-7.498s-3.356-7.498-7.498-7.498z"/><path d="m371.73 300.002h-231.46c-4.141 0-7.498 3.356-7.498 7.498s3.356 7.498 7.498 7.498h231.46c4.141 0 7.498-3.356 7.498-7.498s-3.356-7.498-7.498-7.498z"/><path d="m371.73 337.363h-231.46c-4.141 0-7.498 3.356-7.498 7.498 0 4.141 3.356 7.498 7.498 7.498h231.46c4.141 0 7.498-3.356 7.498-7.498 0-4.141-3.356-7.498-7.498-7.498z"/><path d="m371.73 374.724h-231.46c-4.141 0-7.498 3.356-7.498 7.498 0 4.141 3.356 7.498 7.498 7.498h231.46c4.141 0 7.498-3.356 7.498-7.498s-3.356-7.498-7.498-7.498z"/></g></g></svg>