<svg id="Capa_1" enable-background="new 0 0 512 512" height="512" viewBox="0 0 512 512" width="512" xmlns="http://www.w3.org/2000/svg"><g><g><path d="m33.142 478.881c-34.203-34.203-34.203-89.657 0-123.86l283.921-283.922c3.209-3.209 8.413-3.209 11.622 0l112.238 112.238c3.209 3.209 3.209 8.413 0 11.622l-283.921 283.922c-34.203 34.203-89.657 34.203-123.86 0z" fill="#f2fbff"/></g><g><path d="m440.927 194.96-283.926 283.925c-34.201 34.201-89.652 34.201-123.863 0l-.03-.03c33.892 20.481 78.588 16.097 107.846-13.161l285.723-285.713c2.477-2.476 3.056-6.151 1.718-9.177l12.532 12.532c3.205 3.215 3.205 8.418 0 11.624z" fill="#dff6fd"/></g><g><path d="m431.138 173.552-92.667-92.667 68.354-68.354c6.692-6.692 17.541-6.692 24.233 0l68.434 68.434c6.692 6.692 6.692 17.541 0 24.233z" fill="#c5d3dd"/></g><g><path d="m499.493 105.197-68.353 68.353-13.261-13.261 69.361-69.361c4.863-4.863 6.281-11.873 4.234-17.984l8.019 8.019c6.691 6.689 6.691 17.544 0 24.234z" fill="#b6c4cf"/></g><g><circle cx="99.98" cy="412.043" fill="#c8effe" r="47.964"/></g><g><path d="m133.894 445.962c-18.733 18.733-49.1 18.733-67.833 0-6.381-6.381-10.585-14.11-12.622-22.278.349.38.719.759 1.088 1.129 18.733 18.733 49.1 18.733 67.833 0 12.353-12.353 16.556-29.758 12.622-45.555 17.635 18.802 17.276 48.34-1.088 66.704z" fill="#99e6fc"/></g><g><path d="m405.05 230.832-123.86-123.86 35.873-35.873c3.209-3.209 8.413-3.209 11.622 0l112.238 112.238c3.209 3.209 3.209 8.413 0 11.622z" fill="#fedba6"/></g><g><path d="m440.927 194.96-35.879 35.869-14.609-14.609 36.238-36.238c2.477-2.476 3.056-6.151 1.718-9.177l12.532 12.532c3.205 3.214 3.205 8.417 0 11.623z" fill="#fece85"/></g><g><path d="m60.767 372.831c-21.621 21.622-21.621 56.803.001 78.424 10.811 10.81 25.011 16.215 39.212 16.215s28.401-5.406 39.212-16.215c21.621-21.622 21.621-56.803 0-78.424s-56.803-21.621-78.425 0zm67.832 67.832c-15.78 15.782-41.459 15.782-57.24 0-15.781-15.781-15.781-41.458-.001-57.24 7.892-7.892 18.255-11.836 28.621-11.836 10.363 0 20.73 3.946 28.62 11.836 15.781 15.782 15.781 41.459 0 57.24z"/><path d="m504.788 75.668-68.434-68.433c-4.652-4.651-10.835-7.212-17.413-7.212-6.577 0-12.761 2.562-17.413 7.212l-63.058 63.058-4.489-4.489c-2.967-2.968-6.911-4.602-11.107-4.602s-8.141 1.634-11.107 4.601l-180.415 180.416c-2.925 2.926-2.925 7.667 0 10.592 2.926 2.924 7.668 2.923 10.592 0l139.246-139.247 113.269 113.268-242.753 242.752c-31.227 31.23-82.04 31.229-113.267 0-15.128-15.127-23.46-35.24-23.46-56.633s8.332-41.507 23.46-56.634l79.152-79.152c2.925-2.926 2.925-7.667 0-10.592-2.926-2.924-7.667-2.924-10.592 0l-79.152 79.152c-17.958 17.956-27.847 41.831-27.847 67.226 0 25.394 9.89 49.269 27.846 67.225 18.534 18.534 42.88 27.801 67.226 27.801 24.345 0 48.691-9.267 67.226-27.801l283.922-283.92c2.923-2.923 4.6-6.958 4.6-11.107 0-4.151-1.677-8.185-4.6-11.107l-4.49-4.49 20.195-20.195c2.926-2.925 2.926-7.667.001-10.591-2.925-2.926-7.667-2.925-10.591-.001l-20.196 20.196-41.038-41.037-41.038-41.038 63.059-63.058c3.76-3.762 9.88-3.762 13.641 0l68.435 68.434c1.822 1.822 2.825 4.244 2.825 6.821s-1.004 4.999-2.826 6.821l-18.371 18.372c-2.925 2.925-2.925 7.667.001 10.591 2.923 2.923 7.665 2.926 10.591-.001l18.37-18.371c4.652-4.651 7.213-10.835 7.213-17.413-.001-6.578-2.563-12.763-7.213-17.414zm-69.161 112.966c.285.284.285.746 0 1.03l-30.577 30.576-113.268-113.267 30.577-30.578c.285-.283.745-.284 1.03.001z"/><path d="m411.706 56.738-16.912 16.912c-2.925 2.926-2.925 7.667 0 10.592 1.463 1.462 3.38 2.193 5.296 2.193s3.833-.731 5.296-2.193l16.913-16.912c2.924-2.926 2.924-7.667 0-10.592-2.926-2.924-7.667-2.924-10.593 0z"/><path d="m444.694 89.724-16.913 16.914c-2.925 2.925-2.925 7.667 0 10.592 1.463 1.462 3.38 2.193 5.296 2.193 1.917 0 3.833-.731 5.296-2.193l16.913-16.914c2.925-2.925 2.925-7.667 0-10.592-2.926-2.924-7.667-2.924-10.592 0z"/></g></g></svg>