<svg id="Capa_1" enable-background="new 0 0 512 512" height="512" viewBox="0 0 512 512" width="512" xmlns="http://www.w3.org/2000/svg"><g><g><g><path d="m479.708 441.759h-447.416c-13.693 0-24.794-11.101-24.794-24.794v-27.387c0-4.734 3.838-8.572 8.572-8.572h479.858c4.734 0 8.572 3.838 8.572 8.572v27.387c.001 13.693-11.099 24.794-24.792 24.794z" fill="#c5d3dd"/></g><g><path d="m504.496 389.582v27.384c0 13.697-11.098 24.795-24.785 24.795h-19.996c13.687 0 24.785-11.098 24.785-24.795v-27.384c0-4.739-3.829-8.578-8.568-8.578h19.996c4.739 0 8.568 3.839 8.568 8.578z" fill="#b6c4cf"/></g><g><path d="m440.632 381.006h-377.672c-15.264 0-27.638-12.374-27.638-27.638v-247.631c0-19.603 15.891-35.494 35.494-35.494h361.96c19.603 0 35.494 15.891 35.494 35.494v247.631c0 15.264-12.374 27.638-27.638 27.638z" fill="#596c76"/></g><g><path d="m468.274 105.733v247.637c0 15.267-12.377 27.634-27.644 27.634h-19.996c15.267 0 27.644-12.367 27.644-27.634v-247.637c0-19.596-15.897-35.492-35.502-35.492h19.996c19.606 0 35.502 15.897 35.502 35.492z" fill="#465a61"/></g><g><path d="m293.51 411.382h-75.02c-6.507 0-11.782-5.275-11.782-11.782v-18.595h98.583v18.595c.001 6.508-5.274 11.782-11.781 11.782z" fill="#8d9ca8"/></g><g><path d="m305.289 381.004v18.596c0 6.509-5.269 11.777-11.777 11.777h-19.996c6.509 0 11.777-5.269 11.777-11.777v-18.596z" fill="#7a8c98"/></g></g><g><path d="m428.555 349.57h-353.519c-5.285 0-9.569-4.284-9.569-9.569v-228.752c0-5.285 4.284-9.569 9.569-9.569h353.519c5.285 0 9.569 4.284 9.569 9.569v228.751c.001 5.285-4.284 9.57-9.569 9.57z" fill="#f2fbff"/></g><g><path d="m438.121 111.242v228.761c0 5.279-4.279 9.568-9.568 9.568h-19.996c5.289 0 9.568-4.289 9.568-9.568v-228.761c0-5.279-4.279-9.568-9.568-9.568h19.996c5.289 0 9.568 4.289 9.568 9.568z" fill="#dff6fd"/></g><g><path d="m428.557 101.679h-99.267v247.89h99.266c5.284 0 9.568-4.284 9.568-9.568v-228.754c.001-5.284-4.283-9.568-9.567-9.568z" fill="#fedba6"/></g><g><path d="m438.121 111.242v228.761c0 5.279-4.279 9.568-9.568 9.568h-19.996c5.289 0 9.568-4.289 9.568-9.568v-228.761c0-5.279-4.279-9.558-9.568-9.558h19.996c5.289 0 9.568 4.279 9.568 9.558z" fill="#fece85"/></g><g><path d="m329.29 184.309h108.834v82.63h-108.834z" fill="#b0e7c9"/></g><g><path d="m418.125 184.309h20v82.63h-20z" fill="#91deb6"/></g><g><g><path d="m141.624 192.505v65.929c0 30.792 24.962 55.754 55.754 55.754 30.792 0 55.754-24.962 55.754-55.754v-65.929z" fill="#596c76"/></g><g><path d="m253.135 192.505v65.935c0 15.395-6.248 29.335-16.336 39.422-10.087 10.087-24.027 16.323-39.422 16.323-4.432 0-8.748-.515-12.883-1.494 10.229-2.422 19.363-7.653 26.539-14.828 10.087-10.088 16.336-24.027 16.336-39.422v-65.935h25.766z" fill="#465a61"/></g><g><path d="m255.396 349.572h-116.034v-15.684c0-32.042 25.975-58.017 58.017-58.017 32.042 0 58.017 25.975 58.017 58.017z" fill="#e5caf3"/></g><g><path d="m255.39 333.883v15.691h-25.766v-15.691c0-16.014-6.493-30.52-16.993-41.02-7.601-7.601-17.289-13.102-28.137-15.563 4.148-.928 8.451-1.43 12.883-1.43 16.014 0 30.52 6.493 41.02 16.993 10.499 10.501 16.993 25.007 16.993 41.02z" fill="#d9b1ee"/></g><g><path d="m197.379 295.847c-9.833 0-17.805-7.971-17.805-17.805v-41.04h35.61v41.04c0 9.833-7.972 17.805-17.805 17.805z" fill="#fed2a4"/></g><g><path d="m215.182 237.003v41.045c0 9.83-7.975 17.804-17.804 17.804-3.234 0-6.287-.863-8.902-2.396 5.321-3.066 8.902-8.825 8.902-15.408v-41.045z" fill="#ffbd86"/></g><g><path d="m197.379 257.552c-27.784 0-50.307-22.523-50.307-50.307v-19.986l50.307-21.037 50.307 21.037v19.986c0 27.784-22.523 50.307-50.307 50.307z" fill="#fed2a4"/></g><g><path d="m247.685 187.261v19.982c0 27.789-22.52 50.308-50.308 50.308-3.478 0-6.88-.348-10.152-1.018 22.919-4.715 40.144-24.98 40.144-49.29v-28.471z" fill="#ffbd86"/></g><g><path d="m247.604 159.612c-3.983-8.371-9.443-14.678-15.303-19.425-20.213-16.377-49.633-16.377-69.846 0-5.859 4.747-11.32 11.054-15.303 19.425-3.821 8.032-5.529 16.908-5.529 25.802v27.424s35.548-.896 55.754-34.606c20.206 33.71 55.754 34.606 55.754 34.606v-27.424c.002-8.895-1.705-17.77-5.527-25.802z" fill="#596c76"/></g><g><path d="m253.135 185.419v27.415s-11.852-.296-25.766-7.047v-20.368c0-8.902-1.713-17.779-5.527-25.805-3.981-8.374-9.443-14.687-15.305-19.428-6.583-5.333-14.146-8.928-22.043-10.77 16.361-3.865 34.179-.271 47.809 10.77 5.862 4.741 11.324 11.054 15.305 19.428 3.814 8.027 5.527 16.903 5.527 25.805z" fill="#465a61"/></g><g><path d="m495.929 373.507h-26.532c4.008-5.708 6.37-12.651 6.37-20.139v-247.632c0-23.706-19.286-42.992-42.992-42.992l-56.1-.002c-4.141 0-7.498 3.357-7.498 7.499 0 4.141 3.357 7.498 7.498 7.498l56.101.002c15.437 0 27.995 12.559 27.995 27.995v247.631c0 11.105-9.034 20.139-20.139 20.139h-377.672c-11.105 0-20.139-9.034-20.139-20.139v-247.631c0-15.436 12.559-27.995 27.995-27.995h271.475c4.141 0 7.498-3.357 7.498-7.498s-3.357-7.499-7.498-7.499h-271.475c-23.706 0-42.992 19.286-42.992 42.992v247.631c0 7.488 2.362 14.432 6.37 20.139h-18.123c-8.862.001-16.071 7.21-16.071 16.072v27.388c0 17.806 14.486 32.292 32.292 32.292h60.771c4.141 0 7.498-3.357 7.498-7.498s-3.357-7.499-7.498-7.499h-60.771c-9.537 0-17.296-7.758-17.296-17.295v-27.388c0-.593.482-1.074 1.074-1.074h183.14v11.097c0 10.632 8.649 19.28 19.28 19.28h75.02c10.631 0 19.28-8.648 19.28-19.28v-11.097h183.139c.592 0 1.074.481 1.074 1.074v27.388c0 9.537-7.759 17.295-17.296 17.295h-352.173c-4.141 0-7.498 3.357-7.498 7.499s3.357 7.498 7.498 7.498h352.174c17.806 0 32.292-14.486 32.292-32.292v-27.388c0-8.862-7.209-16.071-16.071-16.071zm-198.136 26.094c0 2.362-1.922 4.283-4.283 4.283h-75.02c-2.362 0-4.283-1.922-4.283-4.283v-11.097h83.586z"/><path d="m57.969 111.247v228.753c0 9.411 7.657 17.068 17.068 17.068h353.519.001c9.411 0 17.067-7.656 17.067-17.067v-228.755c0-9.411-7.656-17.067-17.067-17.067h-.001-353.519c-9.411.001-17.068 7.657-17.068 17.068zm189.929 230.823h-101.038v-8.183c0-19.629 11.255-36.674 27.648-45.033 4.062 8.557 12.785 14.49 22.871 14.49s18.809-5.933 22.871-14.491c16.393 8.359 27.648 25.406 27.648 45.034zm-50.519-92.017c-19.883 0-36.633-13.628-41.423-32.032 11.59-3.064 28.161-10.177 41.423-26.684 13.261 16.506 29.831 23.619 41.421 26.683-4.792 18.404-21.539 32.033-41.421 32.033zm10.306 14.068v13.92c0 5.684-4.624 10.307-10.306 10.307s-10.306-4.623-10.306-10.307v-13.92c3.345.605 6.788.928 10.306.928 3.518.001 6.961-.322 10.306-.928zm14.997-4.925c9.335-4.573 17.266-11.586 22.953-20.209v19.446c0 9.042-2.513 17.502-6.86 24.743-4.841-3.957-10.25-7.243-16.094-9.699v-14.281zm-18.872-84.819c-1.355-2.26-3.796-3.644-6.431-3.644s-5.077 1.384-6.431 3.644c-12.494 20.843-31.342 27.666-41.825 29.893v-18.856c0-8.287 1.615-15.884 4.802-22.581 3.124-6.569 7.583-12.228 13.252-16.821 8.75-7.089 19.476-10.635 30.202-10.635s21.452 3.545 30.203 10.635c5.668 4.593 10.127 10.252 13.252 16.82 3.186 6.699 4.802 14.296 4.802 22.581v18.855c-10.496-2.23-29.336-9.055-41.826-29.891zm-31.734 84.82v14.278c-5.843 2.457-11.259 5.731-16.1 9.689-4.343-7.237-6.853-15.693-6.853-24.73v-19.44c5.687 8.62 13.618 15.632 22.953 20.203zm164.713-150.021h91.766c1.142 0 2.071.928 2.071 2.071v65.563h-93.837zm0 82.631h93.837v67.633h-93.837zm0 82.63h93.837v65.563c0 1.142-.929 2.071-2.071 2.071h-91.766zm-14.997 67.633h-58.897v-8.183c0-14.903-5.013-28.647-13.427-39.662 7.027-10.186 11.164-22.508 11.164-35.792v-73.021c0-10.532-2.105-20.296-6.256-29.023-4.094-8.605-9.932-16.018-17.353-22.03-22.972-18.613-56.316-18.613-79.287 0-7.421 6.012-13.26 13.425-17.353 22.03-4.151 8.726-6.256 18.49-6.256 29.024v73.02c0 13.281 4.123 25.613 11.146 35.8-8.405 11.016-13.408 24.76-13.408 39.655v8.183h-56.828c-1.142 0-2.071-.928-2.071-2.071v-228.753c0-1.142.929-2.071 2.071-2.071h246.755z"/></g></g></g></svg>