<svg id="Capa_1" enable-background="new 0 0 512 512" height="512" viewBox="0 0 512 512" width="512" xmlns="http://www.w3.org/2000/svg"><g><g><path d="m409.782 504.509h-307.564c-12.286 0-22.246-9.96-22.246-22.246v-426.863c0-12.286 9.96-22.246 22.246-22.246h307.565c12.286 0 22.246 9.96 22.246 22.246v426.863c-.001 12.286-9.961 22.246-22.247 22.246z" fill="#e8ad8c"/></g><g><path d="m432.024 55.396v426.866c0 12.285-9.958 22.243-22.243 22.243h-19.676c12.285 0 22.253-9.958 22.253-22.243v-426.866c0-12.285-9.968-22.243-22.253-22.243h19.676c12.285 0 22.243 9.958 22.243 22.243z" fill="#e19974"/></g><g><path d="m387.396 469.373h-262.792c-4.9 0-8.872-3.972-8.872-8.872v-383.339c0-4.9 3.972-8.872 8.872-8.872h262.792c4.9 0 8.872 3.972 8.872 8.872v383.339c0 4.9-3.972 8.872-8.872 8.872z" fill="#f9f7f8"/></g><g><path d="m396.268 77.159v383.339c0 4.904-3.975 8.879-8.869 8.879h-20.235c4.904 0 8.879-3.975 8.879-8.879v-383.339c0-4.894-3.975-8.869-8.879-8.869h20.235c4.894 0 8.869 3.975 8.869 8.869z" fill="#efedef"/></g><g><g><g><circle cx="174.374" cy="235.207" fill="#e5caf3" r="19.828"/></g><g><circle cx="174.344" cy="320.479" fill="#e5caf3" r="19.828"/></g><g><circle cx="174.314" cy="405.75" fill="#e5caf3" r="19.828"/></g><g><path d="m194.206 235.215c-.01 10.947-8.889 19.826-19.836 19.816-8.01 0-14.912-4.754-18.028-11.586 1.908.609 3.935.949 6.043.949 10.947 0 19.836-8.879 19.836-19.826 0-2.946-.639-5.733-1.808-8.25 8 2.557 13.793 10.048 13.793 18.897z" fill="#d9b1ee"/></g><g><path d="m194.176 320.481c-.01 10.957-8.889 19.826-19.836 19.826-8.01 0-14.902-4.744-18.028-11.586 1.908.609 3.935.939 6.043.939 10.947.01 19.836-8.869 19.836-19.816 0-2.946-.639-5.743-1.798-8.25 7.99 2.557 13.783 10.047 13.783 18.887z" fill="#d9b1ee"/></g><g><path d="m194.146 405.756c-.01 10.957-8.889 19.826-19.836 19.826-8.01-.01-14.902-4.754-18.018-11.586 1.898.609 3.925.939 6.033.939 10.957 0 19.836-8.869 19.836-19.826 0-2.937-.639-5.733-1.798-8.24 7.99 2.557 13.783 10.047 13.783 18.887z" fill="#d9b1ee"/></g></g><g><path d="m229.778 211.524c-.001 0-.001 0-.002 0-4.136 0-7.489 3.352-7.491 7.488-.001 4.137 3.351 7.493 7.488 7.494l127.739.042h.002c4.136 0 7.489-3.352 7.491-7.488.001-4.138-3.351-7.493-7.488-7.494z"/><path d="m229.767 243.945c-.001 0-.001 0-.002 0-4.136 0-7.49 3.353-7.491 7.489-.001 4.137 3.352 7.492 7.489 7.493l90.839.023h.002c4.136 0 7.49-3.352 7.491-7.489s-3.352-7.492-7.489-7.493z"/><path d="m357.487 296.837-127.739-.042c-.001 0-.001 0-.002 0-4.135 0-7.489 3.352-7.491 7.488-.001 4.137 3.351 7.493 7.488 7.494l127.739.042h.002c4.135 0 7.489-3.352 7.491-7.488.002-4.137-3.351-7.493-7.488-7.494z"/><path d="m229.733 344.198 90.868.023h.002c4.136 0 7.49-3.352 7.491-7.489.001-4.138-3.352-7.492-7.489-7.493l-90.868-.023c-.001 0-.001 0-.002 0-4.136 0-7.49 3.352-7.491 7.489 0 4.138 3.352 7.492 7.489 7.493z"/><path d="m357.457 382.109-127.739-.042c-.001 0-.001 0-.002 0-4.136 0-7.489 3.352-7.491 7.488-.001 4.137 3.351 7.493 7.488 7.494l127.739.042h.002c4.136 0 7.489-3.352 7.491-7.488.002-4.138-3.351-7.493-7.488-7.494z"/><path d="m322.637 414.511-92.93-.023c-.001 0-.001 0-.002 0-4.136 0-7.49 3.353-7.491 7.489-.001 4.137 3.352 7.492 7.489 7.493l92.93.023h.002c4.136 0 7.49-3.352 7.491-7.489s-3.352-7.492-7.489-7.493z"/><path d="m174.383 207.888c-.003 0-.006 0-.01 0-7.293 0-14.152 2.839-19.311 7.995-5.162 5.159-8.005 12.018-8.008 19.316-.002 7.297 2.837 14.157 7.996 19.319 5.158 5.162 12.018 8.006 19.315 8.008h.01c7.293 0 14.151-2.839 19.31-7.995 5.162-5.158 8.006-12.017 8.008-19.315.005-15.064-12.247-27.322-27.31-27.328zm8.712 36.046c-2.33 2.329-5.427 3.611-8.722 3.611-.001 0-.003 0-.004 0-3.295-.001-6.393-1.285-8.722-3.615-2.33-2.331-3.612-5.43-3.611-8.726s1.286-6.393 3.617-8.723c2.33-2.329 5.426-3.611 8.72-3.611h.005c6.803.002 12.335 5.539 12.333 12.342-.001 3.295-1.285 6.392-3.616 8.722z"/><path d="m174.352 293.159c-.003 0-.004 0-.007 0-15.06 0-27.315 12.25-27.32 27.311-.005 15.063 12.247 27.322 27.311 27.328h.007c15.06 0 27.315-12.25 27.32-27.31.002-7.298-2.837-14.158-7.995-19.32-5.158-5.161-12.018-8.006-19.316-8.009zm12.329 27.324c-.002 6.801-5.536 12.333-12.338 12.333 0 0-.002 0-.003 0-6.803-.002-12.336-5.539-12.334-12.341s5.537-12.334 12.338-12.334h.003c3.295.001 6.393 1.285 8.723 3.617 2.33 2.331 3.612 5.43 3.611 8.725 0-.001 0-.001 0 0z"/><path d="m174.323 378.431c-.003 0-.004 0-.007 0-15.06 0-27.316 12.25-27.32 27.31-.005 15.064 12.246 27.323 27.31 27.329h.01c7.293 0 14.151-2.839 19.31-7.995 5.162-5.159 8.006-12.018 8.008-19.315 0 0 0 0 0-.001.005-15.064-12.247-27.322-27.311-27.328zm8.712 36.046c-2.33 2.329-5.426 3.611-8.72 3.611-.001 0-.003 0-.005 0-6.803-.002-12.336-5.539-12.333-12.342.002-6.801 5.537-12.333 12.338-12.333h.003c6.803.002 12.335 5.539 12.333 12.341 0 3.295-1.284 6.394-3.616 8.723z"/><path d="m234.639 185.709c1.132 2.999 3.982 4.847 7.01 4.847.878 0 1.773-.156 2.643-.485 3.871-1.46 5.824-5.782 4.364-9.653l-16.849-44.648c-.026-.068-.053-.137-.081-.206-1.319-3.205-4.41-5.276-7.876-5.276-.002 0-.006 0-.008 0-3.469.003-6.561 2.081-7.875 5.292-.023.057-.046.114-.068.172l-17.004 44.646c-1.472 3.865.468 8.193 4.334 9.666 3.867 1.472 8.194-.468 9.666-4.334l2.397-6.294h16.98zm-13.642-21.255 2.823-7.412 2.797 7.412z"/><path d="m329.278 190.555c4.137 0 7.491-3.353 7.491-7.491v-7.417l13.276 12.808c1.454 1.403 3.327 2.1 5.2 2.1 1.962 0 3.922-.767 5.392-2.29 2.872-2.977 2.788-7.719-.19-10.592l-18.794-18.131 17.054-15.676c3.046-2.799 3.245-7.539.445-10.584-2.798-3.046-7.537-3.245-10.584-.446l-11.799 10.845v-5.902c0-4.137-3.354-7.491-7.491-7.491s-7.491 3.354-7.491 7.491v45.284c0 4.139 3.354 7.492 7.491 7.492z"/><path d="m286.54 190.555c10.431 0 19.203-6.724 20.857-15.988 1.257-7.043-1.847-16.211-14.333-20.815-5.23-1.929-10.122-4.023-11.955-4.821-.269-.291-.372-.669-.306-1.131.137-.955.982-1.733 2.318-2.136 5.393-1.625 10.577 2.39 10.78 2.55 3.165 2.614 7.854 2.192 10.501-.958 2.662-3.167 2.253-7.893-.914-10.554-4.17-3.504-14.06-8.58-24.688-5.382-6.941 2.091-11.856 7.59-12.827 14.353-.917 6.389 1.854 12.534 7.232 16.041.331.216.678.405 1.039.566.264.118 6.554 2.917 13.634 5.528 2.383.88 5.062 2.487 4.769 4.127-.262 1.468-2.385 3.64-6.109 3.64-3.993 0-7.817-1.59-10.23-4.251-2.778-3.065-7.515-3.299-10.581-.521s-3.299 7.515-.521 10.581c5.285 5.827 13.06 9.171 21.334 9.171z"/><path d="m156.755 145.271h4.963v37.793c0 4.137 3.354 7.491 7.491 7.491s7.491-3.353 7.491-7.491v-37.793h5.064c4.137 0 7.491-3.353 7.491-7.491s-3.354-7.491-7.491-7.491h-25.009c-4.137 0-7.491 3.354-7.491 7.491s3.354 7.491 7.491 7.491z"/></g></g><g><path d="m279.948 93.986h-47.896c-4.331 0-7.841-3.511-7.841-7.841v-70.813c0-4.331 3.511-7.841 7.841-7.841h47.896c4.331 0 7.841 3.511 7.841 7.841v70.813c0 4.33-3.51 7.841-7.841 7.841z" fill="#c5d3dd"/></g><g><path d="m287.791 15.335v70.813c0 4.325-3.516 7.84-7.84 7.84h-19.975c4.325 0 7.84-3.516 7.84-7.84v-70.813c0-4.335-3.516-7.84-7.84-7.84h19.975c4.324 0 7.84 3.506 7.84 7.84z" fill="#b6c4cf"/></g><path d="m409.782 25.663h-114.502v-10.331c0-8.454-6.877-15.332-15.332-15.332h-47.896c-8.454 0-15.332 6.878-15.332 15.332v10.331h-114.502c-16.397 0-29.737 13.34-29.737 29.737v426.864c0 16.397 13.34 29.737 29.737 29.737h55.686c4.137 0 7.491-3.353 7.491-7.491s-3.354-7.491-7.491-7.491h-55.686c-8.136 0-14.755-6.619-14.755-14.755v-426.864c0-8.136 6.619-14.755 14.755-14.755h114.502v20.155h-92.115c-9.023 0-16.363 7.341-16.363 16.363v383.339c0 9.022 7.34 16.363 16.363 16.363h262.792c9.023 0 16.363-7.341 16.363-16.363v-308.694c0-4.137-3.354-7.491-7.491-7.491s-7.491 3.353-7.491 7.491v308.693c0 .762-.619 1.381-1.381 1.381h-262.793c-.762 0-1.381-.619-1.381-1.381v-383.339c0-.762.619-1.381 1.381-1.381h92.115v10.364c0 8.454 6.878 15.332 15.332 15.332h47.896c8.454 0 15.332-6.878 15.332-15.332v-10.364h92.115c.762 0 1.381.619 1.381 1.381v40.085c0 4.137 3.354 7.491 7.491 7.491s7.491-3.353 7.491-7.491v-40.085c0-9.022-7.34-16.363-16.363-16.363h-92.114v-20.154h114.502c8.136 0 14.755 6.619 14.755 14.755v426.864c0 8.136-6.619 14.755-14.755 14.755h-216.868c-4.137 0-7.491 3.353-7.491 7.491 0 4.137 3.354 7.491 7.491 7.491h216.868c16.397 0 29.737-13.34 29.737-29.737v-426.864c0-16.397-13.34-29.737-29.737-29.737zm-129.483 60.482c0 .193-.158.35-.351.35h-47.896c-.193 0-.351-.157-.351-.35v-70.813c0-.193.158-.35.351-.35h47.896c.193 0 .351.157.351.35z"/></g></svg>