<svg id="Capa_1" enable-background="new 0 0 512 512" height="512" viewBox="0 0 512 512" width="512" xmlns="http://www.w3.org/2000/svg"><g><g><path d="m256 288.062h-80.059v205.34c0 7.808 7.839 13.183 15.123 10.369l64.936-25.094 64.936 25.094c7.284 2.815 15.123-2.56 15.123-10.369v-205.34z" fill="#c8effe"/></g><g><path d="m336.058 288.058v205.343c0 7.81-7.84 13.187-15.122 10.374l-7.661-2.962c1.746-1.935 2.833-4.509 2.833-7.411v-205.344z" fill="#99e6fc"/></g><g><path d="m289.516 288.057v203.577l-33.516-12.957-33.515 12.957v-203.577z" fill="#e5caf3"/></g><g><path d="m289.516 288.058v203.577l-19.95-7.71v-195.867z" fill="#d9b1ee"/></g><g><circle cx="256" cy="169.699" fill="#fedba6" r="162.218"/></g><g><path d="m418.221 169.696c0 89.594-72.627 162.221-162.221 162.221-37.466 0-71.979-12.698-99.439-34.034 24.458 14.783 53.136 23.291 83.809 23.291 89.594 0 162.221-72.627 162.221-162.221 0-52.099-24.558-98.452-62.722-128.137 46.961 28.419 78.352 79.989 78.352 138.88z" fill="#fece85"/></g><g><circle cx="256" cy="169.699" fill="#fec165" r="128.546"/></g><g><path d="m384.546 169.696c0 71.001-57.555 128.546-128.546 128.546-30.403 0-58.343-10.553-80.348-28.199 19.002 11.102 41.116 17.456 64.717 17.456 70.991 0 128.546-57.555 128.546-128.546 0-40.588-18.813-76.777-48.189-100.337 38.175 22.294 63.82 63.69 63.82 111.08z" fill="#fdb441"/></g><g><g><g><path d="m259.17 254.716c-48.72 0-88.357-39.637-88.357-88.357s39.637-88.356 88.357-88.356c17.704 0 34.79 5.222 49.414 15.101 8.424 5.692 10.64 17.135 4.948 25.56-5.692 8.424-17.135 10.641-25.56 4.948-8.513-5.751-18.473-8.792-28.803-8.792-28.419 0-51.54 23.121-51.54 51.539 0 28.419 23.121 51.54 51.54 51.54 10.475 0 19.271-3.104 26.146-9.227 1.34-1.192 2.625-2.52 3.82-3.944 6.536-7.788 18.148-8.802 25.935-2.268 7.788 6.536 8.803 18.147 2.268 25.935-2.337 2.784-4.872 5.398-7.535 7.77-13.627 12.137-31.136 18.551-50.633 18.551z" fill="#f9f7f8"/></g></g><g><g><path d="m210.684 183.831c-8.489-9.187-13.695-21.476-13.695-34.952 0-14.144 5.967-27.864 16.272-37.545 5.04-4.735 11.024-8.447 17.515-10.835 9.135-3.361 19.372-4.153 28.998-3.001 9.513 1.138 17.022 7.645 26.058 10.284 11.15 3.256 19.89-5.495 20.212-16.328.858.528 1.706 1.077 2.544 1.646 8.419 5.696 10.633 17.137 4.948 25.565-5.696 8.419-17.137 10.643-25.566 4.948-8.509-5.756-18.473-8.798-28.797-8.798-28.418 0-51.54 23.122-51.54 51.54-.001 6.134 1.076 12.02 3.051 17.476z" fill="#efedef"/></g><g><path d="m317.336 228.399c-2.334 2.783-4.868 5.396-7.531 7.77-13.626 12.129-31.142 18.543-50.632 18.543-35.6 0-66.353-21.157-80.328-51.56 16.189 20.728 41.406 34.084 69.684 34.084 19.501 0 37.007-6.414 50.642-18.543 2.653-2.374 5.197-4.987 7.531-7.77 2.713-3.242 4.13-7.132 4.289-11.052 1.436.668 2.813 1.526 4.08 2.594 7.791 6.532 8.798 18.143 2.265 25.934z" fill="#efedef"/></g></g><g><path d="m395.637 73.24c-2.351-3.398-7.011-4.247-10.408-1.895-3.398 2.35-4.246 7.01-1.895 10.408 17.927 25.906 27.403 56.317 27.403 87.945 0 85.322-69.415 154.737-154.737 154.737s-154.737-69.415-154.737-154.737 69.415-154.737 154.737-154.737c39.377 0 76.897 14.801 105.646 41.676 3.019 2.823 7.753 2.661 10.574-.356 2.822-3.019 2.662-7.753-.356-10.574-31.531-29.475-72.679-45.707-115.864-45.707-93.572 0-169.699 76.126-169.699 169.699 0 61.568 32.96 115.58 82.159 145.327v178.376c0 6.135 3.021 11.869 8.08 15.337 5.06 3.468 11.496 4.219 17.221 2.01l31.341-12.112c.027-.01.054-.015.081-.026l30.817-11.913 30.818 11.914c.035.014.071.022.106.035l31.316 12.102c2.169.838 4.442 1.251 6.703 1.251 3.703 0 7.375-1.107 10.516-3.26 5.06-3.469 8.08-9.203 8.08-15.337v-178.377c49.199-29.747 82.159-83.759 82.159-145.327.001-34.685-10.394-68.04-30.061-96.459zm-113.602 407.477-23.338-9.019c-.35-.135-.709-.236-1.071-.316-1.066-.238-2.169-.239-3.235-.004-.368.081-.732.183-1.088.32l-23.338 9.019v-66.456c0-4.132-3.349-7.481-7.481-7.481s-7.481 3.349-7.481 7.481v72.238l-26.635 10.293c-1.552.598-2.777.012-3.367-.393-.59-.404-1.579-1.332-1.579-2.997v-170.329c10.028 4.765 20.595 8.571 31.581 11.307v45.548c0 4.132 3.349 7.481 7.481 7.481s7.481-3.349 7.481-7.481v-42.526c8.489 1.313 17.183 1.996 26.034 1.996s17.545-.684 26.034-1.996v143.315zm46.543 12.685c0 1.666-.99 2.593-1.579 2.997-.591.405-1.813.992-3.365.393l-26.636-10.293v-152.119c10.986-2.736 21.552-6.542 31.581-11.307v170.329z"/><path d="m256 33.672c-75.005 0-136.027 61.022-136.027 136.027s61.022 136.028 136.027 136.028c75.006 0 136.027-61.022 136.027-136.028 0-75.005-61.021-136.027-136.027-136.027zm0 257.092c-66.755 0-121.065-54.309-121.065-121.065 0-66.755 54.309-121.065 121.065-121.065s121.065 54.31 121.065 121.065c0 66.756-54.31 121.065-121.065 121.065z"/><path d="m319.879 196.729c-10.933-9.173-27.296-7.745-36.474 3.189-.965 1.151-1.997 2.216-3.065 3.167-5.463 4.866-12.585 7.333-21.17 7.333-24.294 0-44.059-19.766-44.059-44.06 0-24.293 19.765-44.058 44.059-44.058 8.831 0 17.343 2.597 24.615 7.51 5.732 3.871 12.627 5.283 19.416 3.965 6.789-1.314 12.659-5.194 16.532-10.925 7.992-11.829 4.87-27.954-6.96-35.947-15.865-10.717-34.401-16.383-53.602-16.383-52.845 0-95.839 42.992-95.839 95.837s42.993 95.839 95.839 95.839c21.363 0 40.592-7.07 55.609-20.446 2.932-2.612 5.721-5.487 8.29-8.547 9.174-10.933 7.743-27.296-3.191-36.474zm-8.271 26.856c-2.105 2.508-4.386 4.861-6.781 6.993-12.234 10.896-28.022 16.656-45.657 16.656-44.595 0-80.876-36.281-80.876-80.876s36.281-80.874 80.876-80.874c16.205 0 31.845 4.778 45.226 13.819 4.993 3.373 6.311 10.179 2.938 15.172-1.634 2.42-4.113 4.057-6.978 4.613-2.867.552-5.776-.041-8.195-1.675-9.755-6.591-21.163-10.074-32.991-10.074-32.544 0-59.021 26.476-59.021 59.02 0 32.545 26.477 59.022 59.021 59.022 12.365 0 22.836-3.743 31.12-11.121 1.606-1.429 3.145-3.018 4.575-4.721 3.875-4.615 10.781-5.218 15.395-1.348 4.616 3.873 5.22 10.78 1.348 15.394z"/></g></g></g></svg>