<svg id="Capa_1" enable-background="new 0 0 512.043 512.043" height="512" viewBox="0 0 512.043 512.043" width="512" xmlns="http://www.w3.org/2000/svg"><g><g><path d="m497.629 351.983h-409.417c-3.819 0-6.915-3.096-6.915-6.915v-178.093c0-3.819 3.096-6.915 6.915-6.915h409.417c3.819 0 6.915 3.096 6.915 6.915v178.094c-.001 3.818-3.096 6.914-6.915 6.914z" fill="#f2fbff"/></g><g><path d="m504.542 166.971v178.1c0 3.82-3.09 6.91-6.91 6.91h-20c3.82 0 6.91-3.09 6.91-6.91v-178.1c0-3.82-3.09-6.91-6.91-6.91h20c3.819.001 6.91 3.091 6.91 6.91z" fill="#dff6fd"/></g><g><path d="m43.307 189.837h37.99v132.369h-37.99z" fill="#8d9ca8"/></g><g><path d="m62.302 189.837h18.995v132.369h-18.995z" fill="#7a8c98"/></g><g><path d="m39.606 447.108h-28.405c-2.044 0-3.701-1.657-3.701-3.701v-374.771c0-2.044 1.657-3.701 3.701-3.701h28.405c2.044 0 3.701 1.657 3.701 3.701v374.772c0 2.043-1.657 3.7-3.701 3.7z" fill="#c5d3dd"/></g><g><path d="m43.312 68.632v374.78c0 2.04-1.66 3.7-3.71 3.7h-17.9c2.04 0 3.7-1.66 3.7-3.7v-374.78c0-2.04-1.66-3.7-3.7-3.7h17.9c2.049-.001 3.71 1.66 3.71 3.7z" fill="#b6c4cf"/></g><g><path d="m497.629 152.56h-409.417c-7.948 0-14.415 6.467-14.415 14.415v15.362h-22.989v-113.701c0-6.177-5.024-11.201-11.201-11.201h-28.406c-6.177 0-11.201 5.024-11.201 11.201v86.367c0 4.143 3.357 7.5 7.5 7.5s7.5-3.357 7.5-7.5v-82.568h20.808v367.174h-20.808v-249.772c0-4.143-3.357-7.5-7.5-7.5s-7.5 3.357-7.5 7.5v253.57c0 6.177 5.024 11.201 11.201 11.201h28.405c6.177 0 11.201-5.024 11.201-11.201v-113.701h22.989v15.362c0 7.948 6.467 14.415 14.415 14.415h276.346c4.143 0 7.5-3.357 7.5-7.5s-3.357-7.5-7.5-7.5h-275.76v-176.923h408.246v176.924h-99.07c-4.143 0-7.5 3.357-7.5 7.5s3.357 7.5 7.5 7.5h99.656c7.948 0 14.414-6.467 14.414-14.415v-178.094c0-7.949-6.466-14.415-14.414-14.415zm-423.832 162.146h-22.989v-117.369h22.989z"/><circle cx="118.908" cy="193.553" r="10"/><circle cx="466.932" cy="193.553" r="10"/><circle cx="118.908" cy="318.49" r="10"/><circle cx="466.932" cy="318.49" r="10"/><path d="m280.481 215.829c-1.432-3.479-4.785-5.725-8.546-5.725-.003 0-.007 0-.01 0-3.765.004-7.118 2.258-8.544 5.741-.023.057-.046.114-.067.172l-28.851 75.752c-1.475 3.87.469 8.203 4.34 9.678 3.865 1.475 8.203-.469 9.678-4.34l5.345-14.035h36.002l5.289 14.015c1.133 3.003 3.987 4.854 7.018 4.854.88 0 1.775-.156 2.647-.485 3.875-1.462 5.831-5.789 4.368-9.665l-28.589-75.755c-.024-.069-.051-.139-.08-.207zm-20.941 52.243 12.37-32.48 12.258 32.48z"/><path d="m372.53 210.667h-30.912c-4.143 0-7.5 3.357-7.5 7.5v76.271c0 4.143 3.357 7.5 7.5 7.5s7.5-3.357 7.5-7.5v-31.357h20.957c4.143 0 7.5-3.357 7.5-7.5s-3.357-7.5-7.5-7.5h-20.957v-22.414h23.412c4.143 0 7.5-3.357 7.5-7.5s-3.357-7.5-7.5-7.5z"/><path d="m444.093 225.807c4.143 0 7.5-3.357 7.5-7.5s-3.357-7.5-7.5-7.5h-32.079c-4.143 0-7.5 3.357-7.5 7.5v76.132c0 4.143 3.357 7.5 7.5 7.5h32.079c4.143 0 7.5-3.357 7.5-7.5s-3.357-7.5-7.5-7.5h-24.579v-23.066h22.214c4.143 0 7.5-3.357 7.5-7.5s-3.357-7.5-7.5-7.5h-22.214v-23.065h24.579z"/><path d="m180.164 225.104c6.196 0 12.172 1.824 17.281 5.276 3.433 2.317 8.094 1.416 10.413-2.017 2.318-3.432 1.416-8.094-2.017-10.413-7.599-5.133-16.478-7.847-25.678-7.847-25.318 0-45.917 20.599-45.917 45.917s20.599 45.917 45.917 45.917c10.059 0 19.074-3.295 26.071-9.526 1.372-1.222 2.676-2.566 3.877-3.999 2.662-3.174 2.247-7.904-.927-10.565-3.174-2.662-7.903-2.248-10.565.927-.735.876-1.529 1.695-2.36 2.436-4.268 3.801-9.683 5.729-16.096 5.729-17.048 0-30.917-13.869-30.917-30.917s13.87-30.918 30.918-30.918z"/></g></g></svg>