<svg id="Capa_1" enable-background="new 0 0 511.853 511.853" height="512" viewBox="0 0 511.853 511.853" width="512" xmlns="http://www.w3.org/2000/svg"><g><g><path d="m381.431 504.353h-251.009c-18.26 0-33.063-14.803-33.063-33.063v-337.31c0-6.051 4.905-10.956 10.956-10.956h295.223c6.051 0 10.956 4.905 10.956 10.956v337.31c0 18.26-14.803 33.063-33.063 33.063z" fill="#c8effe"/></g><g><path d="m414.497 133.983v337.31c0 18.26-14.81 33.06-33.07 33.06h-20c18.26 0 33.07-14.8 33.07-33.06v-337.31c0-6.05-4.91-10.96-10.96-10.96h20c6.049 0 10.96 4.91 10.96 10.96z" fill="#99e6fc"/></g><g><path d="m321.042 321.767-57.037 57.037c-4.462 4.461-11.695 4.461-16.157 0l-57.037-57.037c-4.461-4.462-4.461-11.695 0-16.156l57.037-57.037c4.462-4.461 11.695-4.461 16.157 0l57.037 57.037c4.462 4.461 4.462 11.694 0 16.156z" fill="#fedba6"/></g><g><path d="m321.047 321.763-57.04 57.04c-4.46 4.46-11.7 4.46-16.16 0l-3.54-3.54c1.37-.49 2.66-1.3 3.76-2.4l51.83-51.83c4.06-4.06 4.06-10.63 0-14.69l-51.83-51.83c-1.1-1.1-2.39-1.9-3.76-2.4l3.54-3.54c4.46-4.46 11.7-4.46 16.16 0l57.04 57.04c4.46 4.46 4.46 11.69 0 16.15z" fill="#fece85"/></g><g><g><path d="m344.954 223.353c-9.596.18-17.449-7.971-17.449-17.568v-92.462c0-39.531-32.046-71.578-71.578-71.578-39.531 0-71.578 32.046-71.578 71.578v92.462c0 9.597-7.854 17.748-17.449 17.568-9.306-.174-16.796-7.772-16.796-17.12v-92.91c0-58.444 47.378-105.823 105.822-105.823 58.444 0 105.823 47.378 105.823 105.823v92.91c0 9.348-7.49 16.946-16.795 17.12z" fill="#c5d3dd"/></g></g><g><g><path d="m361.747 113.323v92.91c0 9.35-7.49 16.95-16.79 17.12-3.38.06-6.55-.91-9.23-2.61 4.82-3.03 8.02-8.4 8.02-14.51v-92.91c0-29.22-11.84-55.67-31-74.83-17.15-17.15-40.19-28.45-65.82-30.6 2.96-.26 5.97-.39 9-.39 29.22 0 55.68 11.85 74.82 30.99 19.16 19.16 31 45.61 31 74.83z" fill="#b6c4cf"/></g></g><g><path d="m403.538 115.524h-34.289v-2.201c0-62.486-50.836-113.323-113.322-113.323-31.162 0-61.274 13.032-82.617 35.756-2.836 3.02-2.688 7.766.332 10.602 3.02 2.834 7.766 2.688 10.602-.332 18.79-20.007 44.248-31.026 71.683-31.026 54.215 0 98.322 44.107 98.322 98.323v92.91c0 5.208-4.233 9.523-9.437 9.62-2.443.053-4.854-.93-6.708-2.751-1.971-1.934-3.101-4.602-3.101-7.318v-92.461c0-43.604-35.474-79.078-79.077-79.078s-79.078 35.475-79.078 79.078v92.461c0 2.717-1.13 5.385-3.101 7.318-1.854 1.82-4.2 2.794-6.709 2.751-5.202-.097-9.436-4.412-9.436-9.62v-92.91c0-14.137 2.935-27.778 8.721-40.546 1.71-3.772.038-8.217-3.734-9.927-3.777-1.711-8.218-.038-9.928 3.735-6.675 14.725-10.059 30.45-10.059 46.737v2.201h-34.289c-10.177 0-18.456 8.279-18.456 18.456v337.309c0 22.367 18.196 40.563 40.563 40.563h251.009c22.367 0 40.563-18.196 40.563-40.563v-337.308c.002-10.176-8.277-18.456-18.454-18.456zm-211.689-2.201c0-35.333 28.745-64.078 64.078-64.078 35.332 0 64.077 28.745 64.077 64.078v2.201h-128.155zm215.145 357.966c0 14.096-11.468 25.563-25.563 25.563h-251.009c-14.096 0-25.563-11.468-25.563-25.563v-337.309c0-1.905 1.551-3.456 3.456-3.456h34.289v75.709c0 13.325 10.836 24.369 24.155 24.618.153.003.305.004.457.004 6.362 0 12.398-2.492 17.039-7.048 4.826-4.736 7.594-11.306 7.594-18.023v-75.26h128.155v75.26c0 6.718 2.768 13.287 7.594 18.023 4.751 4.663 10.984 7.157 17.495 7.044 13.32-.249 24.156-11.293 24.156-24.618v-75.709h34.289c1.905 0 3.456 1.551 3.456 3.456z"/><path d="m259.967 299.35c2.875 0 5.646.846 8.013 2.444 3.433 2.317 8.095 1.416 10.413-2.017s1.416-8.095-2.017-10.413c-4.856-3.28-10.53-5.015-16.409-5.015-16.178 0-29.339 13.161-29.339 29.339s13.161 29.34 29.339 29.34c6.523 0 12.393-2.156 16.974-6.235.896-.797 1.747-1.676 2.531-2.61 2.662-3.174 2.247-7.904-.926-10.566-3.174-2.662-7.904-2.247-10.566.926-.319.381-.66.733-1.014 1.048-1.817 1.618-4.172 2.438-6.999 2.438-7.906 0-14.339-6.433-14.339-14.34s6.433-14.339 14.339-14.339z"/><path d="m269.309 243.27c-3.575-3.574-8.327-5.543-13.382-5.543-5.056 0-9.808 1.969-13.382 5.543l-57.038 57.037c-7.378 7.379-7.378 19.385 0 26.764l57.038 57.036c3.574 3.575 8.326 5.544 13.382 5.544 5.055 0 9.807-1.969 13.381-5.543l16.421-16.42c2.93-2.929 2.93-7.678.001-10.606s-7.678-2.93-10.606-.001l-16.422 16.42c-1.482 1.484-4.066 1.484-5.549 0l-57.038-57.037c-.741-.74-1.149-1.726-1.149-2.774s.408-2.034 1.149-2.774l57.038-57.038c1.482-1.482 4.066-1.483 5.549.001l57.038 57.037c.741.741 1.149 1.727 1.149 2.774s-.408 2.033-1.15 2.775l-15.95 15.951c-2.929 2.929-2.929 7.678.001 10.606 2.928 2.928 7.677 2.929 10.606-.001l15.949-15.95c3.575-3.574 5.544-8.326 5.544-13.382s-1.969-9.808-5.543-13.382z"/></g></g></svg>